<?xml version="1.0" standalone="no"?>
<!DOCTYPE svg PUBLIC "-//W3C//DTD SVG 1.1//EN" "http://www.w3.org/Graphics/SVG/1.1/DTD/svg11.dtd" >
<svg xmlns="http://www.w3.org/2000/svg" xmlns:xlink="http://www.w3.org/1999/xlink" version="1.1">
<metadata>
Created by FontForge 20170910 at Tue Jul  5 17:08:51 2016
 By Jimmy Wärting
Copyright \(c\) 2016 by Fontfabric LLC. All rights reserved.
</metadata>
<defs>
<font id="Akrobat-ExtraBold" horiz-adv-x="0" >
  <font-face 
    font-family="Akrobat ExtraBold"
    font-weight="800"
    font-stretch="normal"
    units-per-em="1000"
    panose-1="0 0 9 0 0 0 0 0 0 0"
    ascent="800"
    descent="-200"
    x-height="529"
    cap-height="700"
    bbox="-532 -273 815 986"
    underline-thickness="50"
    underline-position="-100"
    stemh="112"
    stemv="119"
    unicode-range="U+0020-25CA"
  />
<missing-glyph horiz-adv-x="500" 
d="M410 800v-1000h-317v1000h317zM333 733h-165v-33h65v-37h-66v-33h166v33h-66v37h66v33zM267 604h-100v-104h166v34h-66v70zM233 570v-36h-33v36h33zM333 473h-166v-33h66v-37h-66v-33h100v70h66v33zM333 413h-33v-66h-133v-34h166v100zM333 291h-100v-56h34v23h33v-47
h-100v80h-33v-113h166v113zM333 118h-166v-113h166v113zM300 85v-47h-100v47h100zM333 -18h-166v-33h70l-70 -47v-33h166v33h-102l70 47h32v33z" />
    <glyph glyph-name=".notdef" horiz-adv-x="500" 
d="M410 800v-1000h-317v1000h317zM333 733h-165v-33h65v-37h-66v-33h166v33h-66v37h66v33zM267 604h-100v-104h166v34h-66v70zM233 570v-36h-33v36h33zM333 473h-166v-33h66v-37h-66v-33h100v70h66v33zM333 413h-33v-66h-133v-34h166v100zM333 291h-100v-56h34v23h33v-47
h-100v80h-33v-113h166v113zM333 118h-166v-113h166v113zM300 85v-47h-100v47h100zM333 -18h-166v-33h70l-70 -47v-33h166v33h-102l70 47h32v33z" />
    <glyph glyph-name="A" unicode="A" horiz-adv-x="485" 
d="M353 0l-28 127h-164l-28 -127h-128l172 700h132l172 -700h-128zM186 244h114l-28 130c-10 48 -21 125 -28 172h-3c-6 -47 -17 -124 -27 -172z" />
    <glyph glyph-name="Aacute" unicode="&#xc1;" horiz-adv-x="485" 
d="M375 899l-111 -132h-86l94 132h103zM353 0l-28 127h-164l-28 -127h-128l172 700h132l172 -700h-128zM186 244h114l-28 130c-10 48 -21 125 -28 172h-3c-6 -47 -17 -124 -27 -172z" />
    <glyph glyph-name="Abreve" unicode="&#x102;" horiz-adv-x="485" 
d="M245 769c-71 0 -123 45 -126 122h79c1 -30 20 -47 46 -47c25 0 45 17 46 47h78c-3 -79 -54 -122 -123 -122zM353 0l-28 127h-164l-28 -127h-128l172 700h132l172 -700h-128zM186 244h114l-28 130c-10 48 -21 125 -28 172h-3c-6 -47 -17 -124 -27 -172z" />
    <glyph glyph-name="Acircumflex" unicode="&#xc2;" horiz-adv-x="485" 
d="M242 835l-47 -68h-82l81 131h94l81 -131h-81zM353 0l-28 127h-164l-28 -127h-128l172 700h132l172 -700h-128zM186 244h114l-28 130c-10 48 -21 125 -28 172h-3c-6 -47 -17 -124 -27 -172z" />
    <glyph glyph-name="Adieresis" unicode="&#xc4;" horiz-adv-x="485" 
d="M165 778c-34 0 -56 22 -56 56s22 56 56 56c33 0 55 -22 55 -56s-22 -56 -55 -56zM319 778c-34 0 -56 22 -56 56s22 56 56 56s56 -22 56 -56s-22 -56 -56 -56zM353 0l-28 127h-164l-28 -127h-128l172 700h132l172 -700h-128zM186 244h114l-28 130c-10 48 -21 125 -28 172
h-3c-6 -47 -17 -124 -27 -172z" />
    <glyph glyph-name="Agrave" unicode="&#xc0;" horiz-adv-x="485" 
d="M321 767h-86l-111 132h103zM353 0l-28 127h-164l-28 -127h-128l172 700h132l172 -700h-128zM186 244h114l-28 130c-10 48 -21 125 -28 172h-3c-6 -47 -17 -124 -27 -172z" />
    <glyph glyph-name="Amacron" unicode="&#x100;" horiz-adv-x="485" 
d="M350 870v-79h-211v79h211zM353 0l-28 127h-164l-28 -127h-128l172 700h132l172 -700h-128zM186 244h114l-28 130c-10 48 -21 125 -28 172h-3c-6 -47 -17 -124 -27 -172z" />
    <glyph glyph-name="Aogonek" unicode="&#x104;" horiz-adv-x="486" 
d="M405 -76c0 -20 12 -27 32 -27c10 0 20 0 29 3v-82c-24 -11 -48 -12 -73 -12c-62 0 -96 35 -96 85c0 42 22 79 56 109l-28 127h-164l-28 -127h-128l172 700h132l172 -700h-27c-32 -23 -49 -56 -49 -76zM186 244h114l-28 130c-10 48 -21 125 -28 172h-3
c-6 -47 -17 -124 -27 -172z" />
    <glyph glyph-name="Aring" unicode="&#xc5;" horiz-adv-x="485" 
d="M245 763c-52 0 -86 34 -86 85c0 49 34 83 86 83s87 -34 87 -83c0 -51 -35 -85 -87 -85zM245 880c-19 0 -32 -13 -32 -33s13 -33 32 -33c20 0 33 13 33 33s-13 33 -33 33zM353 0l-28 127h-164l-28 -127h-128l172 700h132l172 -700h-128zM186 244h114l-28 130
c-10 48 -21 125 -28 172h-3c-6 -47 -17 -124 -27 -172z" />
    <glyph glyph-name="Atilde" unicode="&#xc3;" horiz-adv-x="485" 
d="M216 813c-12 0 -23 -9 -25 -26h-72c4 65 39 99 86 99c42 0 55 -29 78 -29c14 0 24 11 26 26h71c-4 -61 -37 -99 -86 -99c-41 0 -54 29 -78 29zM353 0l-28 127h-164l-28 -127h-128l172 700h132l172 -700h-128zM186 244h114l-28 130c-10 48 -21 125 -28 172h-3
c-6 -47 -17 -124 -27 -172z" />
    <glyph glyph-name="AE" unicode="&#xc6;" horiz-adv-x="705" 
d="M451 116h217v-116h-340v132h-149l-48 -132h-131l268 700h390v-116h-207v-173h188v-112h-188v-183zM221 248h107v316h-4c-14 -57 -34 -128 -54 -183z" />
    <glyph glyph-name="B" unicode="B" horiz-adv-x="513" 
d="M392 359c56 -28 89 -86 89 -154c0 -125 -83 -205 -204 -205h-211v700h205c110 0 185 -77 185 -195c0 -60 -24 -115 -64 -146zM252 584h-63v-172h67c50 0 75 31 75 88c0 56 -25 84 -79 84zM258 116c64 0 97 30 97 89c0 61 -36 92 -98 92h-68v-181h69z" />
    <glyph glyph-name="C" unicode="C" horiz-adv-x="498" 
d="M256 -12c-130 0 -210 78 -210 222v280c0 145 79 224 210 224c134 0 210 -79 216 -222h-123c-4 72 -34 103 -94 103c-51 0 -82 -33 -82 -105v-280c0 -70 31 -103 83 -103c61 0 91 31 96 101h123c-5 -142 -84 -220 -219 -220z" />
    <glyph glyph-name="Cacute" unicode="&#x106;" horiz-adv-x="498" 
d="M187 767l94 132h103l-111 -132h-86zM256 -12c-130 0 -210 78 -210 222v280c0 145 79 224 210 224c134 0 210 -79 216 -222h-123c-4 72 -34 103 -94 103c-51 0 -82 -33 -82 -105v-280c0 -70 31 -103 83 -103c61 0 91 31 96 101h123c-5 -142 -84 -220 -219 -220z" />
    <glyph glyph-name="Ccaron" unicode="&#x10c;" horiz-adv-x="498" 
d="M298 768h-94l-81 131h82l47 -68l46 68h81zM352 208h123c-5 -142 -84 -220 -219 -220c-130 0 -210 78 -210 222v280c0 145 79 224 210 224c134 0 210 -79 216 -222h-123c-4 72 -34 103 -94 103c-51 0 -82 -33 -82 -105v-280c0 -70 31 -103 83 -103c61 0 91 31 96 101z" />
    <glyph glyph-name="Ccedilla" unicode="&#xc7;" horiz-adv-x="498" 
d="M475 208c-4 -126 -67 -202 -175 -217l-11 -39c2 1 5 1 10 1c42 0 73 -30 73 -74c0 -55 -43 -91 -106 -91c-54 0 -100 35 -105 87h66c7 -17 20 -27 40 -27c24 0 36 15 36 34c0 18 -11 30 -35 30c-10 0 -24 -2 -34 -8l-19 19l19 66c-117 8 -188 85 -188 221v280
c0 145 79 224 210 224c134 0 210 -79 216 -222h-123c-4 72 -34 103 -94 103c-51 0 -82 -33 -82 -105v-280c0 -70 31 -103 83 -103c61 0 91 31 96 101h123z" />
    <glyph glyph-name="Cdotaccent" unicode="&#x10a;" horiz-adv-x="498" 
d="M251 770c-40 0 -68 29 -68 68c0 40 28 69 68 69c39 0 69 -29 69 -69c0 -37 -30 -68 -69 -68zM256 -12c-130 0 -210 78 -210 222v280c0 145 79 224 210 224c134 0 210 -79 216 -222h-123c-4 72 -34 103 -94 103c-51 0 -82 -33 -82 -105v-280c0 -70 31 -103 83 -103
c61 0 91 31 96 101h123c-5 -142 -84 -220 -219 -220z" />
    <glyph glyph-name="D" unicode="D" horiz-adv-x="515" 
d="M66 0v700h183c139 0 220 -83 220 -226v-245c0 -144 -81 -229 -218 -229h-185zM189 117h62c61 0 94 39 94 113v244c0 72 -33 109 -94 109h-62v-466z" />
    <glyph glyph-name="Eth" unicode="&#xd0;" horiz-adv-x="525" 
d="M251 700c140 0 228 -77 228 -210v-276c0 -137 -89 -214 -226 -214h-180v319h-66v77h66v304h178zM353 215v274c0 70 -35 94 -94 94h-63v-187h77v-77h-77v-202h63c59 0 94 24 94 98z" />
    <glyph glyph-name="Dcaron" unicode="&#x10e;" horiz-adv-x="515" 
d="M295 768h-94l-81 131h82l47 -68l46 68h81zM249 700c139 0 220 -83 220 -226v-245c0 -144 -81 -229 -218 -229h-185v700h183zM345 230v244c0 72 -33 109 -94 109h-62v-466h62c61 0 94 39 94 113z" />
    <glyph glyph-name="Dcroat" unicode="&#x110;" horiz-adv-x="525" 
d="M251 700c140 0 228 -77 228 -210v-276c0 -137 -89 -214 -226 -214h-180v319h-66v77h66v304h178zM353 215v274c0 70 -35 94 -94 94h-63v-187h77v-77h-77v-202h63c59 0 94 24 94 98z" />
    <glyph glyph-name="E" unicode="E" horiz-adv-x="465" 
d="M189 116h239v-116h-362v700h352v-116h-229v-173h210v-112h-210v-183z" />
    <glyph glyph-name="Eacute" unicode="&#xc9;" horiz-adv-x="465" 
d="M370 899l-111 -132h-86l94 132h103zM189 116h239v-116h-362v700h352v-116h-229v-173h210v-112h-210v-183z" />
    <glyph glyph-name="Ecaron" unicode="&#x11a;" horiz-adv-x="465" 
d="M284 768h-94l-81 131h82l47 -68l46 68h81zM189 116h239v-116h-362v700h352v-116h-229v-173h210v-112h-210v-183z" />
    <glyph glyph-name="Ecircumflex" unicode="&#xca;" horiz-adv-x="465" 
d="M237 835l-47 -68h-82l81 131h94l81 -131h-81zM189 116h239v-116h-362v700h352v-116h-229v-173h210v-112h-210v-183z" />
    <glyph glyph-name="Edieresis" unicode="&#xcb;" horiz-adv-x="465" 
d="M160 778c-34 0 -56 22 -56 56s22 56 56 56c33 0 55 -22 55 -56s-22 -56 -55 -56zM314 778c-34 0 -56 22 -56 56s22 56 56 56s56 -22 56 -56s-22 -56 -56 -56zM189 116h239v-116h-362v700h352v-116h-229v-173h210v-112h-210v-183z" />
    <glyph glyph-name="Edotaccent" unicode="&#x116;" horiz-adv-x="465" 
d="M237 770c-40 0 -68 29 -68 68c0 40 28 69 68 69c39 0 69 -29 69 -69c0 -37 -30 -68 -69 -68zM189 116h239v-116h-362v700h352v-116h-229v-173h210v-112h-210v-183z" />
    <glyph glyph-name="Egrave" unicode="&#xc8;" horiz-adv-x="465" 
d="M316 767h-86l-111 132h103zM189 116h239v-116h-362v700h352v-116h-229v-173h210v-112h-210v-183z" />
    <glyph glyph-name="Emacron" unicode="&#x112;" horiz-adv-x="465" 
d="M345 870v-79h-211v79h211zM189 116h239v-116h-362v700h352v-116h-229v-173h210v-112h-210v-183z" />
    <glyph glyph-name="Eogonek" unicode="&#x118;" horiz-adv-x="467" 
d="M430 -100l1 -82c-24 -11 -48 -12 -73 -12c-63 0 -97 35 -97 85c0 43 27 79 68 109h-263v700h352v-116h-229v-173h210v-112h-210v-183h239v-116c-37 -22 -58 -56 -58 -75c0 -21 12 -28 32 -28c9 0 20 0 28 3z" />
    <glyph glyph-name="F" unicode="F" horiz-adv-x="428" 
d="M404 584h-215v-175h196v-113h-196v-296h-123v700h338v-116z" />
    <glyph glyph-name="G" unicode="G" horiz-adv-x="512" 
d="M260 -12c-133 0 -214 79 -214 223v278c0 145 80 223 214 223c130 0 204 -78 209 -220h-123c-3 71 -30 101 -86 101s-87 -31 -87 -104v-278c0 -73 32 -104 89 -104c59 0 91 31 91 102v68h-97v109h217v-177c-3 -142 -81 -221 -213 -221z" />
    <glyph glyph-name="Gbreve" unicode="&#x11e;" horiz-adv-x="512" 
d="M259 769c-71 0 -123 45 -126 122h79c1 -30 20 -47 46 -47c25 0 45 17 46 47h78c-3 -79 -54 -122 -123 -122zM260 -12c-133 0 -214 79 -214 223v278c0 145 80 223 214 223c130 0 204 -78 209 -220h-123c-3 71 -30 101 -86 101s-87 -31 -87 -104v-278
c0 -73 32 -104 89 -104c59 0 91 31 91 102v68h-97v109h217v-177c-3 -142 -81 -221 -213 -221z" />
    <glyph glyph-name="Gcommaaccent" unicode="&#x122;" horiz-adv-x="512" 
d="M260 -12c-133 0 -214 79 -214 223v278c0 145 80 223 214 223c130 0 204 -78 209 -220h-123c-3 71 -30 101 -86 101s-87 -31 -87 -104v-278c0 -73 32 -104 89 -104c59 0 91 31 91 102v68h-97v109h217v-177c-3 -142 -81 -221 -213 -221zM194 -273l16 202h103l-48 -202h-71z
" />
    <glyph glyph-name="Gdotaccent" unicode="&#x120;" horiz-adv-x="512" 
d="M256 770c-40 0 -68 29 -68 68c0 40 28 69 68 69c39 0 69 -29 69 -69c0 -37 -30 -68 -69 -68zM260 -12c-133 0 -214 79 -214 223v278c0 145 80 223 214 223c130 0 204 -78 209 -220h-123c-3 71 -30 101 -86 101s-87 -31 -87 -104v-278c0 -73 32 -104 89 -104
c59 0 91 31 91 102v68h-97v109h217v-177c-3 -142 -81 -221 -213 -221z" />
    <glyph glyph-name="H" unicode="H" horiz-adv-x="548" 
d="M358 700h124v-700h-124v295h-169v-295h-123v700h123v-288h169v288z" />
    <glyph glyph-name="Hbar" unicode="&#x126;" horiz-adv-x="579" 
d="M564 583v-61h-66v-522h-124v295h-169v-295h-123v522h-67v61h67v117h123v-117h169v117h124v-117h66zM374 412v110h-169v-110h169z" />
    <glyph glyph-name="I" unicode="I" horiz-adv-x="254" 
d="M66 700h123v-700h-123v700z" />
    <glyph glyph-name="Iacute" unicode="&#xcd;" horiz-adv-x="254" 
d="M64 767l94 132h103l-111 -132h-86zM66 700h123v-700h-123v700z" />
    <glyph glyph-name="Icircumflex" unicode="&#xce;" horiz-adv-x="254" 
d="M128 835l-47 -68h-82l81 131h94l81 -131h-81zM66 0v700h123v-700h-123z" />
    <glyph glyph-name="Idieresis" unicode="&#xcf;" horiz-adv-x="259" 
d="M57 778c-34 0 -56 22 -56 56s22 56 56 56s56 -22 56 -56s-22 -56 -56 -56zM204 778c-34 0 -56 22 -56 56s22 56 56 56s56 -22 56 -56s-22 -56 -56 -56zM68 700h123v-700h-123v700z" />
    <glyph glyph-name="Idotaccent" unicode="&#x130;" horiz-adv-x="254" 
d="M128 770c-40 0 -68 29 -68 68c0 40 28 69 68 69c39 0 69 -29 69 -69c0 -37 -30 -68 -69 -68zM66 700h123v-700h-123v700z" />
    <glyph glyph-name="Igrave" unicode="&#xcc;" horiz-adv-x="254" 
d="M207 767h-86l-111 132h103zM66 700h123v-700h-123v700z" />
    <glyph glyph-name="Imacron" unicode="&#x12a;" horiz-adv-x="254" 
d="M25 870h211v-79h-211v79zM66 700h123v-700h-123v700z" />
    <glyph glyph-name="Iogonek" unicode="&#x12e;" horiz-adv-x="255" 
d="M175 -103c11 0 21 1 30 3v-81c-26 -10 -55 -13 -76 -13c-71 0 -102 36 -102 90c0 38 21 77 56 104h-17v700h123v-700h-18c-24 -22 -38 -55 -38 -73c0 -21 16 -30 42 -30z" />
    <glyph glyph-name="J" unicode="J" horiz-adv-x="304" 
d="M0 -136v122c76 0 118 28 118 123v591h123v-591c0 -154 -82 -245 -241 -245z" />
    <glyph glyph-name="K" unicode="K" horiz-adv-x="517" 
d="M377 0l-147 285l-43 -67v-218h-121v700h121v-287l41 82l117 205h142l-188 -305l218 -395h-140z" />
    <glyph glyph-name="Kcommaaccent" unicode="&#x136;" horiz-adv-x="517" 
d="M299 395l218 -395h-140l-147 285l-43 -67v-218h-121v700h121v-287l41 82l117 205h142zM188 -273l16 202h103l-48 -202h-71z" />
    <glyph glyph-name="L" unicode="L" horiz-adv-x="414" 
d="M189 117h219v-117h-342v700h123v-583z" />
    <glyph glyph-name="Lacute" unicode="&#x139;" horiz-adv-x="414" 
d="M294 899l-111 -132h-86l94 132h103zM189 117h219v-117h-342v700h123v-583z" />
    <glyph glyph-name="Lcaron" unicode="&#x13d;" horiz-adv-x="413" 
d="M189 700v-584h204v-116h-327v700h123zM393 700l-44 -217h-70l9 217h105z" />
    <glyph glyph-name="Lcommaaccent" unicode="&#x13b;" horiz-adv-x="414" 
d="M189 117h219v-117h-342v700h123v-583zM148 -273l16 202h103l-48 -202h-71z" />
    <glyph glyph-name="Lslash" unicode="&#x141;" horiz-adv-x="439" 
d="M217 116h216v-116h-339v289l-74 -28v104l74 28v307h123v-261l119 45v-103l-119 -45v-220z" />
    <glyph glyph-name="M" unicode="M" horiz-adv-x="708" 
d="M518 700h125v-700h-121v219c3 82 6 162 10 241l-5 2c-20 -58 -43 -121 -65 -184l-47 -124h-122l-47 124c-22 63 -44 126 -65 184l-5 -2c4 -79 7 -159 10 -241v-219h-120v700h124l114 -274c15 -37 39 -101 48 -130h4c9 29 34 93 49 130z" />
    <glyph glyph-name="N" unicode="N" horiz-adv-x="563" 
d="M376 700h121v-700h-122l-135 304c-21 55 -46 119 -65 171l-3 -3c9 -79 15 -198 15 -271v-201h-121v700h122l146 -329c18 -45 39 -100 56 -143l3 3c-10 79 -17 192 -17 256v213z" />
    <glyph glyph-name="Nacute" unicode="&#x143;" horiz-adv-x="563" 
d="M217 767l94 132h103l-111 -132h-86zM376 700h121v-700h-122l-135 304c-21 55 -46 119 -65 171l-3 -3c9 -79 15 -198 15 -271v-201h-121v700h122l146 -329c18 -45 39 -100 56 -143l3 3c-10 79 -17 192 -17 256v213z" />
    <glyph glyph-name="Ncaron" unicode="&#x147;" horiz-adv-x="563" 
d="M328 768h-94l-81 131h82l47 -68l46 68h81zM376 700h121v-700h-122l-135 304c-21 55 -46 119 -65 171l-3 -3c9 -79 15 -198 15 -271v-201h-121v700h122l146 -329c18 -45 39 -100 56 -143l3 3c-10 79 -17 192 -17 256v213z" />
    <glyph glyph-name="Ncommaaccent" unicode="&#x145;" horiz-adv-x="563" 
d="M376 700h121v-700h-122l-135 304c-21 55 -46 119 -65 171l-3 -3c9 -79 15 -198 15 -271v-201h-121v700h122l146 -329c18 -45 39 -100 56 -143l3 3c-10 79 -17 192 -17 256v213zM219 -273l16 202h103l-48 -202h-71z" />
    <glyph glyph-name="Eng" unicode="&#x14a;" horiz-adv-x="563" 
d="M376 700h121v-700c-3 -122 -72 -193 -194 -194v113c47 1 74 25 77 72l-141 315c-22 56 -45 117 -64 169l-3 -3c9 -79 15 -198 15 -271v-201h-121v700h122l147 -331c19 -46 39 -100 56 -145l3 3c-11 80 -18 194 -18 259v214z" />
    <glyph glyph-name="Ntilde" unicode="&#xd1;" horiz-adv-x="563" 
d="M255 813c-12 0 -23 -9 -25 -26h-72c4 65 39 99 86 99c42 0 55 -29 78 -29c14 0 24 11 26 26h71c-4 -61 -37 -99 -86 -99c-41 0 -54 29 -78 29zM376 700h121v-700h-122l-135 304c-21 55 -46 119 -65 171l-3 -3c9 -79 15 -198 15 -271v-201h-121v700h122l146 -329
c18 -45 39 -100 56 -143l3 3c-10 79 -17 192 -17 256v213z" />
    <glyph glyph-name="O" unicode="O" horiz-adv-x="533" 
d="M267 -12c-139 0 -221 89 -221 237v250c0 148 82 237 221 237c138 0 220 -89 220 -237v-250c0 -148 -82 -237 -220 -237zM267 107c62 0 93 42 93 118v250c0 76 -31 118 -93 118s-94 -42 -94 -118v-250c0 -76 32 -118 94 -118z" />
    <glyph glyph-name="Oacute" unicode="&#xd3;" horiz-adv-x="533" 
d="M202 767l94 132h103l-111 -132h-86zM267 -12c-139 0 -221 89 -221 237v250c0 148 82 237 221 237c138 0 220 -89 220 -237v-250c0 -148 -82 -237 -220 -237zM267 107c62 0 93 42 93 118v250c0 76 -31 118 -93 118s-94 -42 -94 -118v-250c0 -76 32 -118 94 -118z" />
    <glyph glyph-name="Ocircumflex" unicode="&#xd4;" horiz-adv-x="533" 
d="M266 835l-47 -68h-82l81 131h94l81 -131h-81zM267 712c138 0 220 -89 220 -237v-250c0 -148 -82 -237 -220 -237c-139 0 -221 89 -221 237v250c0 148 82 237 221 237zM360 225v250c0 76 -31 118 -93 118s-94 -42 -94 -118v-250c0 -76 32 -118 94 -118s93 42 93 118z" />
    <glyph glyph-name="Odieresis" unicode="&#xd6;" horiz-adv-x="533" 
d="M189 778c-34 0 -56 22 -56 56s22 56 56 56c33 0 55 -22 55 -56s-22 -56 -55 -56zM343 778c-34 0 -56 22 -56 56s22 56 56 56s56 -22 56 -56s-22 -56 -56 -56zM267 -12c-139 0 -221 89 -221 237v250c0 148 82 237 221 237c138 0 220 -89 220 -237v-250
c0 -148 -82 -237 -220 -237zM267 107c62 0 93 42 93 118v250c0 76 -31 118 -93 118s-94 -42 -94 -118v-250c0 -76 32 -118 94 -118z" />
    <glyph glyph-name="Ograve" unicode="&#xd2;" horiz-adv-x="533" 
d="M345 767h-86l-111 132h103zM267 -12c-139 0 -221 89 -221 237v250c0 148 82 237 221 237c138 0 220 -89 220 -237v-250c0 -148 -82 -237 -220 -237zM267 107c62 0 93 42 93 118v250c0 76 -31 118 -93 118s-94 -42 -94 -118v-250c0 -76 32 -118 94 -118z" />
    <glyph glyph-name="Ohungarumlaut" unicode="&#x150;" horiz-adv-x="533" 
d="M308 900l-91 -132h-78l75 132h94zM450 900l-96 -132h-78l80 132h94zM267 -12c-139 0 -221 89 -221 237v250c0 148 82 237 221 237c138 0 220 -89 220 -237v-250c0 -148 -82 -237 -220 -237zM267 107c62 0 93 42 93 118v250c0 76 -31 118 -93 118s-94 -42 -94 -118v-250
c0 -76 32 -118 94 -118z" />
    <glyph glyph-name="Omacron" unicode="&#x14c;" horiz-adv-x="533" 
d="M163 870h211v-79h-211v79zM267 -12c-139 0 -221 89 -221 237v250c0 148 82 237 221 237c138 0 220 -89 220 -237v-250c0 -148 -82 -237 -220 -237zM267 107c62 0 93 42 93 118v250c0 76 -31 118 -93 118s-94 -42 -94 -118v-250c0 -76 32 -118 94 -118z" />
    <glyph glyph-name="Oslash" unicode="&#xd8;" horiz-adv-x="541" 
d="M415 666c49 -41 76 -106 76 -191v-250c0 -148 -82 -237 -221 -237c-20 0 -39 2 -57 6l-18 -61h-95l30 98c-52 40 -80 107 -80 194v250c0 148 82 237 220 237c22 0 43 -2 62 -7l18 62h95zM364 225v250c0 76 -32 118 -94 118c-61 0 -93 -42 -93 -118v-250
c0 -76 32 -118 93 -118c62 0 94 42 94 118z" />
    <glyph glyph-name="Otilde" unicode="&#xd5;" horiz-adv-x="533" 
d="M240 813c-12 0 -23 -9 -25 -26h-72c4 65 39 99 86 99c42 0 55 -29 78 -29c14 0 24 11 26 26h71c-4 -61 -37 -99 -86 -99c-41 0 -54 29 -78 29zM267 -12c-139 0 -221 89 -221 237v250c0 148 82 237 221 237c138 0 220 -89 220 -237v-250c0 -148 -82 -237 -220 -237z
M267 107c62 0 93 42 93 118v250c0 76 -31 118 -93 118s-94 -42 -94 -118v-250c0 -76 32 -118 94 -118z" />
    <glyph glyph-name="OE" unicode="&#x152;" horiz-adv-x="760" 
d="M484 116h240v-116h-363v33c-30 -29 -66 -45 -110 -45c-127 0 -205 89 -205 237v250c0 148 78 237 205 237c44 0 80 -16 110 -45v33h352v-116h-229v-173h210v-112h-210v-183zM360 225v250c0 76 -34 118 -99 118c-59 0 -88 -42 -88 -118v-250c0 -76 29 -118 88 -118
c65 0 99 42 99 118z" />
    <glyph glyph-name="P" unicode="P" horiz-adv-x="514" 
d="M260 700c141 0 224 -86 224 -233s-83 -232 -224 -232h-71v-235h-123v700h194zM259 351c66 0 99 39 99 116s-33 116 -99 116h-70v-232h70z" />
    <glyph glyph-name="Thorn" unicode="&#xde;" horiz-adv-x="501" 
d="M260 595c141 0 224 -86 224 -233c0 -148 -83 -233 -224 -233h-71v-129h-123v700h123v-105h71zM259 246c66 0 99 39 99 116s-33 116 -99 116h-70v-232h70z" />
    <glyph glyph-name="Q" unicode="Q" horiz-adv-x="542" 
d="M493 475v-250c0 -73 -20 -131 -57 -172l55 -66l-72 -63l-63 77c-26 -9 -54 -13 -85 -13c-139 0 -221 89 -221 237v250c0 148 82 237 221 237s222 -89 222 -237zM177 225c0 -76 32 -118 94 -118s94 42 94 118v250c0 76 -32 118 -94 118s-94 -42 -94 -118v-250z" />
    <glyph glyph-name="R" unicode="R" horiz-adv-x="516" 
d="M370 0l-125 244h-56v-244h-123v700h192c137 0 216 -83 216 -226c0 -102 -39 -174 -110 -208l141 -266h-135zM189 583v-222h68c59 0 91 39 91 112c0 72 -32 110 -91 110h-68z" />
    <glyph glyph-name="Racute" unicode="&#x154;" horiz-adv-x="516" 
d="M397 899l-111 -132h-86l94 132h103zM370 0l-125 244h-56v-244h-123v700h192c137 0 216 -83 216 -226c0 -102 -39 -174 -110 -208l141 -266h-135zM189 583v-222h68c59 0 91 39 91 112c0 72 -32 110 -91 110h-68z" />
    <glyph glyph-name="Rcaron" unicode="&#x158;" horiz-adv-x="516" 
d="M311 768h-94l-81 131h82l47 -68l46 68h81zM370 0l-125 244h-56v-244h-123v700h192c137 0 216 -83 216 -226c0 -102 -39 -174 -110 -208l141 -266h-135zM189 583v-222h68c59 0 91 39 91 112c0 72 -32 110 -91 110h-68z" />
    <glyph glyph-name="Rcommaaccent" unicode="&#x156;" horiz-adv-x="516" 
d="M364 266l141 -266h-135l-125 244h-56v-244h-123v700h192c137 0 216 -83 216 -226c0 -102 -39 -174 -110 -208zM189 583v-222h68c59 0 91 39 91 112c0 72 -32 110 -91 110h-68zM202 -273l16 202h103l-48 -202h-71z" />
    <glyph glyph-name="S" unicode="S" horiz-adv-x="472" 
d="M234 -14c-129 0 -211 77 -212 212h126c1 -63 34 -92 87 -92c56 0 83 33 83 78c0 127 -282 137 -282 348c0 104 74 182 198 182c125 0 201 -77 202 -202h-126c-1 56 -29 83 -76 83c-46 0 -73 -26 -73 -66c0 -122 285 -126 285 -346c0 -110 -77 -197 -212 -197z" />
    <glyph glyph-name="Sacute" unicode="&#x15a;" horiz-adv-x="472" 
d="M171 767l94 132h103l-111 -132h-86zM234 -14c-129 0 -211 77 -212 212h126c1 -63 34 -92 87 -92c56 0 83 33 83 78c0 127 -282 137 -282 348c0 104 74 182 198 182c125 0 201 -77 202 -202h-126c-1 56 -29 83 -76 83c-46 0 -73 -26 -73 -66c0 -122 285 -126 285 -346
c0 -110 -77 -197 -212 -197z" />
    <glyph glyph-name="Scaron" unicode="&#x160;" horiz-adv-x="472" 
d="M282 768h-94l-81 131h82l47 -68l46 68h81zM161 529c0 -122 285 -126 285 -346c0 -110 -77 -197 -212 -197c-129 0 -211 77 -212 212h126c1 -63 34 -92 87 -92c56 0 83 33 83 78c0 127 -282 137 -282 348c0 104 74 182 198 182c125 0 201 -77 202 -202h-126
c-1 56 -29 83 -76 83c-46 0 -73 -26 -73 -66z" />
    <glyph glyph-name="Scedilla" unicode="&#x15e;" horiz-adv-x="472" 
d="M446 183c0 -98 -62 -178 -171 -194l-10 -37c2 1 5 1 10 1c42 0 73 -30 73 -74c0 -55 -43 -91 -106 -91c-54 0 -100 35 -105 87h66c7 -17 20 -27 40 -27c24 0 36 15 36 34c0 18 -11 30 -35 30c-10 0 -24 -2 -34 -8l-19 19l18 64c-114 9 -186 85 -187 211h126
c1 -63 34 -92 87 -92c56 0 83 33 83 78c0 127 -282 137 -282 348c0 104 74 182 198 182c125 0 201 -77 202 -202h-126c-1 56 -29 83 -76 83c-46 0 -73 -26 -73 -66c0 -122 285 -126 285 -346z" />
    <glyph glyph-name="Scommaaccent" unicode="&#x218;" horiz-adv-x="472" 
d="M234 -14c-129 0 -211 77 -212 212h126c1 -63 34 -92 87 -92c56 0 83 33 83 78c0 127 -282 137 -282 348c0 104 74 182 198 182c125 0 201 -77 202 -202h-126c-1 56 -29 83 -76 83c-46 0 -73 -26 -73 -66c0 -122 285 -126 285 -346c0 -110 -77 -197 -212 -197zM177 -273
l16 202h103l-48 -202h-71z" />
    <glyph glyph-name="T" unicode="T" horiz-adv-x="440" 
d="M424 700v-117h-141v-583h-126v583h-141v117h408z" />
    <glyph glyph-name="Tbar" unicode="&#x166;" horiz-adv-x="440" 
d="M424 583h-141v-196h78v-69h-78v-318h-126v318h-79v69h79v196h-141v117h408v-117z" />
    <glyph glyph-name="Tcaron" unicode="&#x164;" horiz-adv-x="440" 
d="M267 768h-94l-81 131h82l47 -68l46 68h81zM424 700v-117h-141v-583h-126v583h-141v117h408z" />
    <glyph glyph-name="uni0162" unicode="&#x162;" horiz-adv-x="440" 
d="M424 700v-117h-141v-583h-126v583h-141v117h408zM158 -273l16 202h103l-48 -202h-71z" />
    <glyph glyph-name="uni021A" unicode="&#x21a;" horiz-adv-x="440" 
d="M424 700v-117h-141v-583h-126v583h-141v117h408zM158 -273l16 202h103l-48 -202h-71z" />
    <glyph glyph-name="U" unicode="U" horiz-adv-x="538" 
d="M269 -11c-133 0 -215 85 -215 232v479h127v-479c0 -75 32 -113 88 -113s88 38 88 113v479h128v-479c0 -147 -82 -232 -216 -232z" />
    <glyph glyph-name="Uacute" unicode="&#xda;" horiz-adv-x="538" 
d="M205 767l94 132h103l-111 -132h-86zM269 -11c-133 0 -215 85 -215 232v479h127v-479c0 -75 32 -113 88 -113s88 38 88 113v479h128v-479c0 -147 -82 -232 -216 -232z" />
    <glyph glyph-name="Ucircumflex" unicode="&#xdb;" horiz-adv-x="538" 
d="M269 835l-47 -68h-82l81 131h94l81 -131h-81zM357 700h128v-479c0 -147 -82 -232 -216 -232c-133 0 -215 85 -215 232v479h127v-479c0 -75 32 -113 88 -113s88 38 88 113v479z" />
    <glyph glyph-name="Udieresis" unicode="&#xdc;" horiz-adv-x="538" 
d="M192 778c-34 0 -56 22 -56 56s22 56 56 56c33 0 55 -22 55 -56s-22 -56 -55 -56zM346 778c-34 0 -56 22 -56 56s22 56 56 56s56 -22 56 -56s-22 -56 -56 -56zM269 -11c-133 0 -215 85 -215 232v479h127v-479c0 -75 32 -113 88 -113s88 38 88 113v479h128v-479
c0 -147 -82 -232 -216 -232z" />
    <glyph glyph-name="Ugrave" unicode="&#xd9;" horiz-adv-x="538" 
d="M348 767h-86l-111 132h103zM269 -11c-133 0 -215 85 -215 232v479h127v-479c0 -75 32 -113 88 -113s88 38 88 113v479h128v-479c0 -147 -82 -232 -216 -232z" />
    <glyph glyph-name="Uhungarumlaut" unicode="&#x170;" horiz-adv-x="538" 
d="M311 900l-91 -132h-78l75 132h94zM453 900l-96 -132h-78l80 132h94zM269 -11c-133 0 -215 85 -215 232v479h127v-479c0 -75 32 -113 88 -113s88 38 88 113v479h128v-479c0 -147 -82 -232 -216 -232z" />
    <glyph glyph-name="Umacron" unicode="&#x16a;" horiz-adv-x="538" 
d="M166 870h211v-79h-211v79zM269 -11c-133 0 -215 85 -215 232v479h127v-479c0 -75 32 -113 88 -113s88 38 88 113v479h128v-479c0 -147 -82 -232 -216 -232z" />
    <glyph glyph-name="Uogonek" unicode="&#x172;" horiz-adv-x="537" 
d="M321 -194c-63 0 -97 35 -97 84c0 40 23 74 57 103l-1 2c-5 -4 -12 -6 -19 -6c-128 4 -207 88 -207 229v482h127v-482c0 -72 32 -110 87 -110c56 0 88 38 88 110v482h127v-482c0 -95 -32 -147 -78 -187c-33 -29 -73 -67 -73 -105c0 -22 13 -29 33 -29c9 0 20 0 29 3v-82
c-24 -10 -48 -12 -73 -12z" />
    <glyph glyph-name="Uring" unicode="&#x16e;" horiz-adv-x="538" 
d="M186 848c0 49 34 83 86 83s87 -34 87 -83c0 -51 -35 -85 -87 -85s-86 34 -86 85zM240 847c0 -20 13 -33 32 -33c20 0 33 13 33 33s-13 33 -33 33c-19 0 -32 -13 -32 -33zM269 -11c-133 0 -215 85 -215 232v479h127v-479c0 -75 32 -113 88 -113s88 38 88 113v479h128v-479
c0 -147 -82 -232 -216 -232z" />
    <glyph glyph-name="V" unicode="V" horiz-adv-x="479" 
d="M174 0l-169 700h128l73 -356c11 -56 23 -134 31 -191h4c9 57 21 135 32 191l73 356h128l-169 -700h-131z" />
    <glyph glyph-name="W" unicode="W" horiz-adv-x="773" 
d="M641 700h127l-157 -700h-131l-58 269c-16 71 -29 170 -33 227h-4c-5 -57 -18 -156 -34 -227l-58 -269h-131l-157 700h127l63 -355c9 -51 24 -140 30 -191h4c7 51 22 138 31 193l62 343h129l62 -343c9 -55 24 -142 31 -193h4c6 51 21 140 30 191z" />
    <glyph glyph-name="Wacute" unicode="&#x1e82;" horiz-adv-x="773" 
d="M330 767l94 132h103l-111 -132h-86zM641 700h127l-157 -700h-131l-58 269c-16 71 -29 170 -33 227h-4c-5 -57 -18 -156 -34 -227l-58 -269h-131l-157 700h127l63 -355c9 -51 24 -140 30 -191h4c7 51 22 138 31 193l62 343h129l62 -343c9 -55 24 -142 31 -193h4
c6 51 21 140 30 191z" />
    <glyph glyph-name="Wcircumflex" unicode="&#x174;" horiz-adv-x="773" 
d="M394 835l-47 -68h-82l81 131h94l81 -131h-81zM641 700h127l-157 -700h-131l-58 269c-16 71 -29 170 -33 227h-4c-5 -57 -18 -156 -34 -227l-58 -269h-131l-157 700h127l63 -355c9 -51 24 -140 30 -191h4c7 51 22 138 31 193l62 343h129l62 -343c9 -55 24 -142 31 -193h4
c6 51 21 140 30 191z" />
    <glyph glyph-name="Wdieresis" unicode="&#x1e84;" horiz-adv-x="773" 
d="M317 778c-34 0 -56 22 -56 56s22 56 56 56c33 0 55 -22 55 -56s-22 -56 -55 -56zM471 778c-34 0 -56 22 -56 56s22 56 56 56s56 -22 56 -56s-22 -56 -56 -56zM641 700h127l-157 -700h-131l-58 269c-16 71 -29 170 -33 227h-4c-5 -57 -18 -156 -34 -227l-58 -269h-131
l-157 700h127l63 -355c9 -51 24 -140 30 -191h4c7 51 22 138 31 193l62 343h129l62 -343c9 -55 24 -142 31 -193h4c6 51 21 140 30 191z" />
    <glyph glyph-name="Wgrave" unicode="&#x1e80;" horiz-adv-x="773" 
d="M473 767h-86l-111 132h103zM641 700h127l-157 -700h-131l-58 269c-16 71 -29 170 -33 227h-4c-5 -57 -18 -156 -34 -227l-58 -269h-131l-157 700h127l63 -355c9 -51 24 -140 30 -191h4c7 51 22 138 31 193l62 343h129l62 -343c9 -55 24 -142 31 -193h4
c6 51 21 140 30 191z" />
    <glyph glyph-name="X" unicode="X" horiz-adv-x="492" 
d="M478 0h-135l-97 233l-97 -233h-135l166 362l-156 338h134l88 -212l88 212h134l-156 -338z" />
    <glyph glyph-name="Y" unicode="Y" horiz-adv-x="460" 
d="M169 0v218l-168 482h128l67 -212c9 -26 24 -77 33 -111h3c9 34 24 85 33 113l66 210h128l-167 -482v-218h-123z" />
    <glyph glyph-name="Yacute" unicode="&#xdd;" horiz-adv-x="460" 
d="M166 767l94 132h103l-111 -132h-86zM169 0v218l-168 482h128l67 -212c9 -26 24 -77 33 -111h3c9 34 24 85 33 113l66 210h128l-167 -482v-218h-123z" />
    <glyph glyph-name="Ycircumflex" unicode="&#x176;" horiz-adv-x="460" 
d="M230 835l-47 -68h-82l81 131h94l81 -131h-81zM331 700h128l-167 -482v-218h-123v218l-168 482h128l67 -212c9 -26 24 -77 33 -111h3c9 34 24 85 33 113z" />
    <glyph glyph-name="Ydieresis" unicode="&#x178;" horiz-adv-x="460" 
d="M153 778c-34 0 -56 22 -56 56s22 56 56 56c33 0 55 -22 55 -56s-22 -56 -55 -56zM307 778c-34 0 -56 22 -56 56s22 56 56 56s56 -22 56 -56s-22 -56 -56 -56zM169 0v218l-168 482h128l67 -212c9 -26 24 -77 33 -111h3c9 34 24 85 33 113l66 210h128l-167 -482v-218h-123z
" />
    <glyph glyph-name="Ygrave" unicode="&#x1ef2;" horiz-adv-x="460" 
d="M309 767h-86l-111 132h103zM169 0v218l-168 482h128l67 -212c9 -26 24 -77 33 -111h3c9 34 24 85 33 113l66 210h128l-167 -482v-218h-123z" />
    <glyph glyph-name="Z" unicode="Z" horiz-adv-x="427" 
d="M166 117h239v-117h-390v84l235 499h-219v117h369v-85z" />
    <glyph glyph-name="Zacute" unicode="&#x179;" horiz-adv-x="427" 
d="M152 767l94 132h103l-111 -132h-86zM166 117h239v-117h-390v84l235 499h-219v117h369v-85z" />
    <glyph glyph-name="Zcaron" unicode="&#x17d;" horiz-adv-x="427" 
d="M263 768h-94l-81 131h82l47 -68l46 68h81zM166 117h239v-117h-390v84l235 499h-219v117h369v-85z" />
    <glyph glyph-name="Zdotaccent" unicode="&#x17b;" horiz-adv-x="427" 
d="M215 782c-40 0 -68 30 -68 69c0 40 28 69 68 69c39 0 69 -29 69 -69c0 -37 -30 -69 -69 -69zM166 117h239v-117h-390v84l235 499h-219v117h369v-85z" />
    <glyph glyph-name="uni0162.ss01" horiz-adv-x="440" 
d="M283 0h-32l-15 -44h11c39 -2 71 -28 71 -67c0 -52 -43 -83 -101 -83c-51 0 -92 30 -100 81h63c7 -15 21 -25 38 -25c20 0 36 10 36 29c0 13 -11 26 -32 26c-13 0 -25 -3 -36 -7l-19 20l20 70h-30v583h-141v117h408v-117h-141v-583z" />
    <glyph glyph-name="a" unicode="a" horiz-adv-x="458" 
d="M228 542c120 0 177 -70 177 -199v-343h-95l-7 50c-20 -36 -57 -64 -117 -64c-97 0 -159 68 -159 165c0 112 81 166 197 166h62v26c0 54 -16 85 -60 85c-33 0 -61 -17 -66 -58h-118c5 107 74 172 186 172zM286 162v55h-60c-50 0 -79 -23 -79 -66c0 -36 22 -62 67 -62
c44 0 72 28 72 73z" />
    <glyph glyph-name="aacute" unicode="&#xe1;" horiz-adv-x="458" 
d="M343 741l-92 -132h-85l74 132h103zM228 542c120 0 177 -70 177 -199v-343h-95l-7 50c-20 -36 -57 -64 -117 -64c-97 0 -159 68 -159 165c0 112 81 166 197 166h62v26c0 54 -16 85 -60 85c-33 0 -61 -17 -66 -58h-118c5 107 74 172 186 172zM286 162v55h-60
c-50 0 -79 -23 -79 -66c0 -36 22 -62 67 -62c44 0 72 28 72 73z" />
    <glyph glyph-name="abreve" unicode="&#x103;" horiz-adv-x="458" 
d="M230 611c-71 0 -123 45 -126 122h79c1 -30 20 -47 46 -47c25 0 45 17 46 47h78c-3 -79 -54 -122 -123 -122zM228 542c120 0 177 -70 177 -199v-343h-95l-7 50c-20 -36 -57 -64 -117 -64c-97 0 -159 68 -159 165c0 112 81 166 197 166h62v26c0 54 -16 85 -60 85
c-33 0 -61 -17 -66 -58h-118c5 107 74 172 186 172zM286 162v55h-60c-50 0 -79 -23 -79 -66c0 -36 22 -62 67 -62c44 0 72 28 72 73z" />
    <glyph glyph-name="acircumflex" unicode="&#xe2;" horiz-adv-x="458" 
d="M229 677l-47 -68h-82l81 131h94l81 -131h-81zM228 542c120 0 177 -70 177 -199v-343h-95l-7 50c-20 -36 -57 -64 -117 -64c-97 0 -159 68 -159 165c0 112 81 166 197 166h62v26c0 54 -16 85 -60 85c-33 0 -61 -17 -66 -58h-118c5 107 74 172 186 172zM286 162v55h-60
c-50 0 -79 -23 -79 -66c0 -36 22 -62 67 -62c44 0 72 28 72 73z" />
    <glyph glyph-name="adieresis" unicode="&#xe4;" horiz-adv-x="458" 
d="M153 618c-34 0 -56 22 -56 56s22 55 56 55s56 -21 56 -55s-22 -56 -56 -56zM305 618c-34 0 -57 22 -57 56s23 55 57 55c33 0 56 -21 56 -55s-23 -56 -56 -56zM228 542c120 0 177 -70 177 -199v-343h-95l-7 50c-20 -36 -57 -64 -117 -64c-97 0 -159 68 -159 165
c0 112 81 166 197 166h62v26c0 54 -16 85 -60 85c-33 0 -61 -17 -66 -58h-118c5 107 74 172 186 172zM286 162v55h-60c-50 0 -79 -23 -79 -66c0 -36 22 -62 67 -62c44 0 72 28 72 73z" />
    <glyph glyph-name="agrave" unicode="&#xe0;" horiz-adv-x="458" 
d="M304 609h-85l-92 132h103zM228 542c120 0 177 -70 177 -199v-343h-95l-7 50c-20 -36 -57 -64 -117 -64c-97 0 -159 68 -159 165c0 112 81 166 197 166h62v26c0 54 -16 85 -60 85c-33 0 -61 -17 -66 -58h-118c5 107 74 172 186 172zM286 162v55h-60c-50 0 -79 -23 -79 -66
c0 -36 22 -62 67 -62c44 0 72 28 72 73z" />
    <glyph glyph-name="amacron" unicode="&#x101;" horiz-adv-x="458" 
d="M334 712v-78h-211v78h211zM228 542c120 0 177 -70 177 -199v-343h-95l-7 50c-20 -36 -57 -64 -117 -64c-97 0 -159 68 -159 165c0 112 81 166 197 166h62v26c0 54 -16 85 -60 85c-33 0 -61 -17 -66 -58h-118c5 107 74 172 186 172zM286 162v55h-60c-50 0 -79 -23 -79 -66
c0 -36 22 -62 67 -62c44 0 72 28 72 73z" />
    <glyph glyph-name="aogonek" unicode="&#x105;" horiz-adv-x="461" 
d="M341 -194c-68 0 -95 38 -95 88c0 44 24 75 66 106l-7 50c-20 -36 -58 -64 -119 -64c-97 0 -159 68 -159 165c0 112 81 166 199 166h62v26c0 54 -16 85 -61 85c-33 0 -62 -17 -67 -58h-118c5 107 75 172 187 172c122 0 178 -70 178 -199v-343c-38 -24 -61 -54 -61 -80
c0 -18 12 -25 30 -25c10 0 22 2 32 5v-83c-22 -9 -52 -11 -67 -11zM215 89c45 0 73 28 73 73v55h-61c-50 0 -80 -23 -80 -66c0 -36 22 -62 68 -62z" />
    <glyph glyph-name="aring" unicode="&#xe5;" horiz-adv-x="458" 
d="M229 606c-52 0 -86 34 -86 85c0 49 34 83 86 83s87 -34 87 -83c0 -51 -35 -85 -87 -85zM229 723c-19 0 -32 -13 -32 -33s13 -33 32 -33c20 0 33 13 33 33s-13 33 -33 33zM228 542c120 0 177 -70 177 -199v-343h-95l-7 50c-20 -36 -57 -64 -117 -64
c-97 0 -159 68 -159 165c0 112 81 166 197 166h62v26c0 54 -16 85 -60 85c-33 0 -61 -17 -66 -58h-118c5 107 74 172 186 172zM286 162v55h-60c-50 0 -79 -23 -79 -66c0 -36 22 -62 67 -62c44 0 72 28 72 73z" />
    <glyph glyph-name="atilde" unicode="&#xe3;" horiz-adv-x="458" 
d="M195 644c-12 0 -23 -9 -25 -26h-72c4 65 39 99 86 99c42 0 55 -29 78 -29c14 0 24 11 26 26h71c-4 -61 -37 -99 -86 -99c-41 0 -54 29 -78 29zM228 542c120 0 177 -70 177 -199v-343h-95l-7 50c-20 -36 -57 -64 -117 -64c-97 0 -159 68 -159 165c0 112 81 166 197 166h62
v26c0 54 -16 85 -60 85c-33 0 -61 -17 -66 -58h-118c5 107 74 172 186 172zM286 162v55h-60c-50 0 -79 -23 -79 -66c0 -36 22 -62 67 -62c44 0 72 28 72 73z" />
    <glyph glyph-name="ae" unicode="&#xe6;" horiz-adv-x="694" 
d="M542 168h120c-9 -114 -80 -180 -194 -180c-54 0 -100 26 -129 60c-25 -34 -71 -61 -154 -61c-97 0 -158 68 -158 165c0 111 81 163 200 163h60v30c0 52 -16 83 -60 83c-34 0 -62 -17 -67 -58h-118c5 107 75 172 187 172c52 0 92 -18 119 -54c30 35 72 54 121 54
c116 0 187 -74 187 -201v-116h-254v-33c0 -63 24 -91 68 -91c47 0 65 21 72 67zM402 342v-34h137v34c0 62 -25 90 -69 90s-68 -28 -68 -90zM287 162v56h-59c-51 0 -81 -22 -81 -66c0 -37 22 -63 68 -63c45 0 72 28 72 73z" />
    <glyph glyph-name="b" unicode="b" horiz-adv-x="470" 
d="M259 542c102 0 170 -80 170 -206v-141c0 -127 -68 -207 -170 -207c-45 0 -90 27 -116 59l-7 -48h-82v726h115v-218c24 21 56 35 90 35zM309 195v141c0 64 -24 93 -68 93c-46 0 -72 -33 -72 -93v-141c0 -63 28 -95 72 -95c43 0 68 31 68 95z" />
    <glyph glyph-name="c" unicode="c" horiz-adv-x="440" 
d="M226 -12c-115 0 -184 73 -184 197v161c0 123 69 196 184 196c120 0 184 -73 188 -196h-119c-2 55 -25 83 -67 83c-43 0 -67 -28 -67 -83v-161c0 -56 24 -84 67 -84c45 0 67 28 70 84h119c-3 -124 -74 -197 -191 -197z" />
    <glyph glyph-name="cacute" unicode="&#x107;" horiz-adv-x="440" 
d="M344 741l-92 -132h-85l74 132h103zM226 -12c-115 0 -184 73 -184 197v161c0 123 69 196 184 196c120 0 184 -73 188 -196h-119c-2 55 -25 83 -67 83c-43 0 -67 -28 -67 -83v-161c0 -56 24 -84 67 -84c45 0 67 28 70 84h119c-3 -124 -74 -197 -191 -197z" />
    <glyph glyph-name="ccaron" unicode="&#x10d;" horiz-adv-x="440" 
d="M276 610h-94l-81 131h82l47 -68l46 68h81zM298 185h119c-3 -124 -74 -197 -191 -197c-115 0 -184 73 -184 197v161c0 123 69 196 184 196c120 0 184 -73 188 -196h-119c-2 55 -25 83 -67 83c-43 0 -67 -28 -67 -83v-161c0 -56 24 -84 67 -84c45 0 67 28 70 84z" />
    <glyph glyph-name="ccedilla" unicode="&#xe7;" horiz-adv-x="440" 
d="M417 185c-3 -111 -60 -181 -156 -195l-10 -38c2 1 5 1 10 1c42 0 73 -30 73 -74c0 -55 -43 -91 -106 -91c-54 0 -100 35 -105 87h66c7 -17 20 -27 40 -27c24 0 36 15 36 34c0 18 -11 30 -35 30c-10 0 -24 -2 -34 -8l-19 19l19 67c-97 12 -154 82 -154 195v161
c0 123 69 196 184 196c120 0 184 -73 188 -196h-119c-2 55 -25 83 -67 83c-43 0 -67 -28 -67 -83v-161c0 -56 24 -84 67 -84c45 0 67 28 70 84h119z" />
    <glyph glyph-name="cdotaccent" unicode="&#x10b;" horiz-adv-x="440" 
d="M229 611c-40 0 -68 30 -68 69c0 40 28 69 68 69c39 0 69 -29 69 -69c0 -37 -30 -69 -69 -69zM226 -12c-115 0 -184 73 -184 197v161c0 123 69 196 184 196c120 0 184 -73 188 -196h-119c-2 55 -25 83 -67 83c-43 0 -67 -28 -67 -83v-161c0 -56 24 -84 67 -84
c45 0 67 28 70 84h119c-3 -124 -74 -197 -191 -197z" />
    <glyph glyph-name="d" unicode="d" horiz-adv-x="470" 
d="M301 725h116v-726h-83l-6 49c-26 -33 -72 -60 -117 -60c-101 0 -169 80 -169 207v141c0 126 67 206 169 206c33 0 66 -14 90 -35v218zM301 195v141c0 60 -26 93 -71 93c-44 0 -68 -29 -68 -93v-141c0 -64 25 -95 68 -95c44 0 71 32 71 95z" />
    <glyph glyph-name="eth" unicode="&#xf0;" horiz-adv-x="466" 
d="M352 625c43 -58 70 -138 71 -247v-184c0 -132 -72 -206 -191 -206s-190 74 -190 206v107c0 132 68 205 179 205c26 0 50 -6 72 -19c-10 34 -25 62 -44 86l-72 -36l-18 40l57 28c-21 17 -46 30 -73 40l42 93c50 -15 98 -40 138 -79l62 31l18 -40zM303 194v107
c0 63 -26 90 -71 90s-70 -27 -70 -90v-107c0 -63 25 -91 70 -91s71 28 71 91z" />
    <glyph glyph-name="dcaron" unicode="&#x10f;" horiz-adv-x="561" 
d="M483 776h102l-47 -193h-71zM301 507v218h116v-726h-83l-6 49c-26 -33 -72 -60 -117 -60c-101 0 -169 80 -169 207v141c0 126 67 206 169 206c33 0 66 -14 90 -35zM301 195v141c0 60 -26 93 -71 93c-44 0 -68 -29 -68 -93v-141c0 -64 25 -95 68 -95c44 0 71 32 71 95z" />
    <glyph glyph-name="dcroat" unicode="&#x111;" horiz-adv-x="478" 
d="M484 654v-61h-67v-594h-83l-6 49c-26 -33 -72 -60 -117 -60c-101 0 -169 80 -169 207v141c0 126 67 206 169 206c33 0 66 -14 90 -35v86h-99v61h99v71h116v-71h67zM301 195v141c0 60 -26 93 -71 93c-44 0 -68 -29 -68 -93v-141c0 -64 25 -95 68 -95c44 0 71 32 71 95z
" />
    <glyph glyph-name="e" unicode="e" horiz-adv-x="456" 
d="M305 167h119c-10 -113 -81 -179 -197 -179c-115 0 -185 76 -185 204v149c0 127 70 201 186 201c118 0 189 -74 189 -201v-118h-257v-31c0 -63 25 -91 69 -91c49 0 67 20 76 66zM229 432c-44 0 -69 -28 -69 -90v-35h140v35c0 62 -25 90 -71 90z" />
    <glyph glyph-name="eacute" unicode="&#xe9;" horiz-adv-x="456" 
d="M342 740l-92 -132h-85l74 132h103zM305 167h119c-10 -113 -81 -179 -197 -179c-115 0 -185 76 -185 204v149c0 127 70 201 186 201c118 0 189 -74 189 -201v-118h-257v-31c0 -63 25 -91 69 -91c49 0 67 20 76 66zM229 432c-44 0 -69 -28 -69 -90v-35h140v35
c0 62 -25 90 -71 90z" />
    <glyph glyph-name="ecaron" unicode="&#x11b;" horiz-adv-x="456" 
d="M274 609h-94l-81 131h82l47 -68l46 68h81zM305 167h119c-10 -113 -81 -179 -197 -179c-115 0 -185 76 -185 204v149c0 127 70 201 186 201c118 0 189 -74 189 -201v-118h-257v-31c0 -63 25 -91 69 -91c49 0 67 20 76 66zM229 432c-44 0 -69 -28 -69 -90v-35h140v35
c0 62 -25 90 -71 90z" />
    <glyph glyph-name="ecircumflex" unicode="&#xea;" horiz-adv-x="456" 
d="M228 676l-47 -68h-82l81 131h94l81 -131h-81zM305 167h119c-10 -113 -81 -179 -197 -179c-115 0 -185 76 -185 204v149c0 127 70 201 186 201c118 0 189 -74 189 -201v-118h-257v-31c0 -63 25 -91 69 -91c49 0 67 20 76 66zM229 432c-44 0 -69 -28 -69 -90v-35h140v35
c0 62 -25 90 -71 90z" />
    <glyph glyph-name="edieresis" unicode="&#xeb;" horiz-adv-x="456" 
d="M152 617c-34 0 -56 22 -56 56s22 55 56 55s56 -21 56 -55s-22 -56 -56 -56zM304 617c-34 0 -57 22 -57 56s23 55 57 55c33 0 56 -21 56 -55s-23 -56 -56 -56zM305 167h119c-10 -113 -81 -179 -197 -179c-115 0 -185 76 -185 204v149c0 127 70 201 186 201
c118 0 189 -74 189 -201v-118h-257v-31c0 -63 25 -91 69 -91c49 0 67 20 76 66zM229 432c-44 0 -69 -28 -69 -90v-35h140v35c0 62 -25 90 -71 90z" />
    <glyph glyph-name="edotaccent" unicode="&#x117;" horiz-adv-x="456" 
d="M227 610c-40 0 -68 30 -68 69c0 40 28 69 68 69c39 0 69 -29 69 -69c0 -37 -30 -69 -69 -69zM305 167h119c-10 -113 -81 -179 -197 -179c-115 0 -185 76 -185 204v149c0 127 70 201 186 201c118 0 189 -74 189 -201v-118h-257v-31c0 -63 25 -91 69 -91c49 0 67 20 76 66z
M229 432c-44 0 -69 -28 -69 -90v-35h140v35c0 62 -25 90 -71 90z" />
    <glyph glyph-name="egrave" unicode="&#xe8;" horiz-adv-x="456" 
d="M303 608h-85l-92 132h103zM305 167h119c-10 -113 -81 -179 -197 -179c-115 0 -185 76 -185 204v149c0 127 70 201 186 201c118 0 189 -74 189 -201v-118h-257v-31c0 -63 25 -91 69 -91c49 0 67 20 76 66zM229 432c-44 0 -69 -28 -69 -90v-35h140v35c0 62 -25 90 -71 90z
" />
    <glyph glyph-name="emacron" unicode="&#x113;" horiz-adv-x="456" 
d="M333 711v-78h-211v78h211zM305 167h119c-10 -113 -81 -179 -197 -179c-115 0 -185 76 -185 204v149c0 127 70 201 186 201c118 0 189 -74 189 -201v-118h-257v-31c0 -63 25 -91 69 -91c49 0 67 20 76 66zM229 432c-44 0 -69 -28 -69 -90v-35h140v35c0 62 -25 90 -71 90z
" />
    <glyph glyph-name="eogonek" unicode="&#x119;" horiz-adv-x="456" 
d="M303 -194c-63 0 -97 34 -97 86c0 37 22 70 57 99v1c-9 -2 -22 -4 -36 -4c-116 0 -185 76 -185 204v149c0 126 70 201 186 201c117 0 189 -74 189 -201v-118h-257v-31c0 -63 24 -91 69 -91c49 0 67 22 76 67h119c-5 -56 -29 -103 -59 -133c-35 -36 -60 -75 -60 -101
s16 -37 38 -37c15 0 25 0 33 3v-82c-21 -8 -45 -12 -73 -12zM160 307h140v35c0 62 -25 90 -71 90c-44 0 -69 -27 -69 -90v-35z" />
    <glyph glyph-name="f" unicode="f" horiz-adv-x="311" 
d="M273 632c-51 0 -72 -24 -72 -83v-20h95v-108h-95v-421h-117v421h-75v108h75v20c0 109 55 190 189 190h33v-107h-33z" />
    <glyph glyph-name="g" unicode="g" horiz-adv-x="474" 
d="M337 529h83v-551c0 -103 -68 -172 -182 -172c-112 0 -178 68 -181 171h116c4 -38 25 -61 65 -61c39 0 62 24 62 62v73c-25 -17 -55 -27 -89 -27c-98 0 -169 80 -169 196v122c0 119 71 200 169 200c47 0 88 -17 118 -49zM230 136c45 0 70 28 70 84v124c0 56 -27 84 -70 84
c-45 0 -69 -28 -69 -86v-122c0 -56 24 -84 69 -84z" />
    <glyph glyph-name="gbreve" unicode="&#x11f;" horiz-adv-x="474" 
d="M233 611c-71 0 -123 45 -126 122h79c1 -30 20 -47 46 -47c25 0 45 17 46 47h78c-3 -79 -54 -122 -123 -122zM337 529h83v-551c0 -103 -68 -172 -182 -172c-112 0 -178 68 -181 171h116c4 -38 25 -61 65 -61c39 0 62 24 62 62v73c-25 -17 -55 -27 -89 -27
c-98 0 -169 80 -169 196v122c0 119 71 200 169 200c47 0 88 -17 118 -49zM230 136c45 0 70 28 70 84v124c0 56 -27 84 -70 84c-45 0 -69 -28 -69 -86v-122c0 -56 24 -84 69 -84z" />
    <glyph glyph-name="gcommaaccent" unicode="&#x123;" horiz-adv-x="474" 
d="M281 602h-112l-18 207h75zM337 529h83v-551c0 -103 -68 -172 -182 -172c-112 0 -178 68 -181 171h116c4 -38 25 -61 65 -61c39 0 62 24 62 62v73c-25 -17 -55 -27 -89 -27c-98 0 -169 80 -169 196v122c0 119 71 200 169 200c47 0 88 -17 118 -49zM230 136
c45 0 70 28 70 84v124c0 56 -27 84 -70 84c-45 0 -69 -28 -69 -86v-122c0 -56 24 -84 69 -84z" />
    <glyph glyph-name="gdotaccent" unicode="&#x121;" horiz-adv-x="474" 
d="M231 611c-40 0 -68 30 -68 69c0 40 28 69 68 69c39 0 69 -29 69 -69c0 -37 -30 -69 -69 -69zM337 529h83v-551c0 -103 -68 -172 -182 -172c-112 0 -178 68 -181 171h116c4 -38 25 -61 65 -61c39 0 62 24 62 62v73c-25 -17 -55 -27 -89 -27c-98 0 -169 80 -169 196v122
c0 119 71 200 169 200c47 0 88 -17 118 -49zM230 136c45 0 70 28 70 84v124c0 56 -27 84 -70 84c-45 0 -69 -28 -69 -86v-122c0 -56 24 -84 69 -84z" />
    <glyph glyph-name="h" unicode="h" horiz-adv-x="473" 
d="M276 542c93 0 148 -73 148 -219v-323h-118v322c0 78 -21 107 -62 107c-44 0 -72 -34 -72 -98v-331h-118v724h118v-239c25 35 60 57 104 57z" />
    <glyph glyph-name="hbar" unicode="&#x127;" horiz-adv-x="471" 
d="M275 542c93 0 148 -73 148 -219v-323h-119v322c0 78 -21 107 -62 107c-44 0 -72 -34 -72 -98v-331h-117v602h-64v61h64v62h117v-62h93v-61h-93v-118c25 36 61 58 105 58z" />
    <glyph glyph-name="i" unicode="i" horiz-adv-x="226" 
d="M113 611c-40 0 -68 30 -68 69c0 40 28 69 68 69c39 0 69 -29 69 -69c0 -37 -30 -69 -69 -69zM54 0v529h118v-529h-118z" />
    <glyph glyph-name="dotlessi" unicode="&#x131;" horiz-adv-x="226" 
d="M54 0v529h118v-529h-118z" />
    <glyph glyph-name="iacute" unicode="&#xed;" horiz-adv-x="226" 
d="M228 741l-92 -132h-85l74 132h103zM54 0v529h118v-529h-118z" />
    <glyph glyph-name="icircumflex" unicode="&#xee;" horiz-adv-x="238" 
d="M119 677l-45 -68h-79l79 131h90l79 -131h-80zM60 0v529h118v-529h-118z" />
    <glyph glyph-name="idieresis" unicode="&#xef;" horiz-adv-x="250" 
d="M55 620c-32 0 -54 21 -54 54s22 54 54 54c33 0 54 -21 54 -54s-21 -54 -54 -54zM196 620c-33 0 -55 21 -55 54s22 54 55 54c32 0 53 -21 53 -54s-21 -54 -53 -54zM65 0v529h119v-529h-119z" />
    <glyph glyph-name="i.loclTRK" horiz-adv-x="226" 
d="M113 611c-40 0 -68 30 -68 69c0 40 28 69 68 69c39 0 69 -29 69 -69c0 -37 -30 -69 -69 -69zM54 0v529h118v-529h-118z" />
    <glyph glyph-name="igrave" unicode="&#xec;" horiz-adv-x="226" 
d="M12 741h103l74 -132h-85zM54 0v529h118v-529h-118z" />
    <glyph glyph-name="imacron" unicode="&#x12b;" horiz-adv-x="223" 
d="M16 713h191v-81h-191v81zM52 0v529h119v-529h-119z" />
    <glyph glyph-name="iogonek" unicode="&#x12f;" horiz-adv-x="224" 
d="M108 612c-39 0 -66 29 -66 66c0 39 27 67 66 67c37 0 66 -28 66 -67c0 -35 -29 -66 -66 -66zM154 -103c10 0 20 0 29 3v-82c-24 -11 -53 -12 -80 -12c-62 0 -96 35 -96 85c0 41 16 78 41 108v529h119v-528h-22c-19 -21 -31 -53 -31 -72c0 -23 15 -31 40 -31z" />
    <glyph glyph-name="j" unicode="j" horiz-adv-x="254" 
d="M131 610c-40 0 -68 30 -68 69c0 40 28 69 68 69c39 0 69 -29 69 -69c0 -37 -30 -69 -69 -69zM-12 -194v113c59 1 85 29 85 86v524h118v-517c0 -130 -70 -205 -203 -206z" />
    <glyph glyph-name="k" unicode="k" horiz-adv-x="449" 
d="M321 0l-119 226l-31 -33v-193h-117v725h117v-381l122 185h137l-150 -211l174 -318h-133z" />
    <glyph glyph-name="kcommaaccent" unicode="&#x137;" horiz-adv-x="449" 
d="M280 318l174 -318h-133l-119 226l-31 -33v-193h-117v725h117v-381l122 185h137zM166 -273l16 202h103l-48 -202h-71z" />
    <glyph glyph-name="l" unicode="l" horiz-adv-x="216" 
d="M49 0v725h118v-725h-118z" />
    <glyph glyph-name="lacute" unicode="&#x13a;" horiz-adv-x="224" 
d="M45 767l94 132h103l-111 -132h-86zM49 0v725h118v-725h-118z" />
    <glyph glyph-name="lcaron" unicode="&#x13e;" horiz-adv-x="311" 
d="M218 581l15 195h102l-47 -195h-70zM49 0v725h118v-725h-118z" />
    <glyph glyph-name="lcommaaccent" unicode="&#x13c;" horiz-adv-x="216" 
d="M49 0v725h118v-725h-118zM51 -273l16 202h103l-48 -202h-71z" />
    <glyph glyph-name="lslash" unicode="&#x142;" horiz-adv-x="271" 
d="M260 493v-92l-66 -22v-379h-117v340l-66 -22v92l66 22v292h117v-253z" />
    <glyph glyph-name="m" unicode="m" horiz-adv-x="712" 
d="M515 542c92 0 148 -72 148 -215v-327h-117v326c0 76 -21 103 -59 103c-42 0 -70 -34 -70 -98v-331h-117v326c0 76 -21 103 -60 103c-41 0 -69 -34 -69 -98v-331h-117v529h79l10 -56c26 44 69 69 125 69c53 0 95 -24 120 -71c27 46 70 71 127 71z" />
    <glyph glyph-name="n" unicode="n" horiz-adv-x="473" 
d="M272 542c95 0 152 -70 152 -214v-328h-118v325c0 75 -21 104 -62 104c-44 0 -72 -34 -72 -98v-331h-118v529h80l10 -57c27 45 70 70 128 70z" />
    <glyph glyph-name="nacute" unicode="&#x144;" horiz-adv-x="473" 
d="M351 740l-92 -132h-85l74 132h103zM272 542c95 0 152 -70 152 -214v-328h-118v325c0 75 -21 104 -62 104c-44 0 -72 -34 -72 -98v-331h-118v529h80l10 -57c27 45 70 70 128 70z" />
    <glyph glyph-name="ncaron" unicode="&#x148;" horiz-adv-x="473" 
d="M283 609h-94l-81 131h82l47 -68l46 68h81zM272 542c95 0 152 -70 152 -214v-328h-118v325c0 75 -21 104 -62 104c-44 0 -72 -34 -72 -98v-331h-118v529h80l10 -57c27 45 70 70 128 70z" />
    <glyph glyph-name="ncommaaccent" unicode="&#x146;" horiz-adv-x="473" 
d="M272 542c95 0 152 -70 152 -214v-328h-118v325c0 75 -21 104 -62 104c-44 0 -72 -34 -72 -98v-331h-118v529h80l10 -57c27 45 70 70 128 70zM156 -273l16 202h103l-48 -202h-71z" />
    <glyph glyph-name="eng" unicode="&#x14b;" horiz-adv-x="473" 
d="M272 542c96 0 152 -70 152 -214v-324c0 -126 -70 -200 -195 -201v113c50 1 77 28 77 81v328c0 75 -21 104 -62 104c-44 0 -72 -34 -72 -98v-331h-118v529h80l10 -57c27 45 71 70 128 70z" />
    <glyph glyph-name="ntilde" unicode="&#xf1;" horiz-adv-x="473" 
d="M203 643c-12 0 -23 -9 -25 -26h-72c4 65 39 99 86 99c42 0 55 -29 78 -29c14 0 24 11 26 26h71c-4 -61 -37 -99 -86 -99c-41 0 -54 29 -78 29zM272 542c95 0 152 -70 152 -214v-328h-118v325c0 75 -21 104 -62 104c-44 0 -72 -34 -72 -98v-331h-118v529h80l10 -57
c27 45 70 70 128 70z" />
    <glyph glyph-name="o" unicode="o" horiz-adv-x="467" 
d="M233 -13c-119 0 -191 74 -191 206v143c0 132 72 206 191 206c120 0 192 -74 192 -206v-143c0 -132 -72 -206 -192 -206zM233 102c46 0 72 28 72 91v143c0 64 -26 91 -72 91c-45 0 -71 -27 -71 -91v-143c0 -63 26 -91 71 -91z" />
    <glyph glyph-name="oacute" unicode="&#xf3;" horiz-adv-x="467" 
d="M347 741l-92 -132h-85l74 132h103zM233 -13c-119 0 -191 74 -191 206v143c0 132 72 206 191 206c120 0 192 -74 192 -206v-143c0 -132 -72 -206 -192 -206zM233 102c46 0 72 28 72 91v143c0 64 -26 91 -72 91c-45 0 -71 -27 -71 -91v-143c0 -63 26 -91 71 -91z" />
    <glyph glyph-name="ocircumflex" unicode="&#xf4;" horiz-adv-x="467" 
d="M233 677l-47 -68h-82l81 131h94l81 -131h-81zM233 542c120 0 192 -74 192 -206v-143c0 -132 -72 -206 -192 -206c-119 0 -191 74 -191 206v143c0 132 72 206 191 206zM305 193v143c0 64 -26 91 -72 91c-45 0 -71 -27 -71 -91v-143c0 -63 26 -91 71 -91c46 0 72 28 72 91z
" />
    <glyph glyph-name="odieresis" unicode="&#xf6;" horiz-adv-x="467" 
d="M157 618c-34 0 -56 22 -56 56s22 55 56 55s56 -21 56 -55s-22 -56 -56 -56zM309 618c-34 0 -57 22 -57 56s23 55 57 55c33 0 56 -21 56 -55s-23 -56 -56 -56zM233 -13c-119 0 -191 74 -191 206v143c0 132 72 206 191 206c120 0 192 -74 192 -206v-143
c0 -132 -72 -206 -192 -206zM233 102c46 0 72 28 72 91v143c0 64 -26 91 -72 91c-45 0 -71 -27 -71 -91v-143c0 -63 26 -91 71 -91z" />
    <glyph glyph-name="ograve" unicode="&#xf2;" horiz-adv-x="467" 
d="M131 741h103l74 -132h-85zM233 -13c-119 0 -191 74 -191 206v143c0 132 72 206 191 206c120 0 192 -74 192 -206v-143c0 -132 -72 -206 -192 -206zM233 102c46 0 72 28 72 91v143c0 64 -26 91 -72 91c-45 0 -71 -27 -71 -91v-143c0 -63 26 -91 71 -91z" />
    <glyph glyph-name="ohungarumlaut" unicode="&#x151;" horiz-adv-x="467" 
d="M271 741l-91 -132h-78l75 132h94zM413 741l-96 -132h-78l80 132h94zM233 -13c-119 0 -191 74 -191 206v143c0 132 72 206 191 206c120 0 192 -74 192 -206v-143c0 -132 -72 -206 -192 -206zM233 102c46 0 72 28 72 91v143c0 64 -26 91 -72 91c-45 0 -71 -27 -71 -91v-143
c0 -63 26 -91 71 -91z" />
    <glyph glyph-name="omacron" unicode="&#x14d;" horiz-adv-x="467" 
d="M127 712h211v-78h-211v78zM233 -13c-119 0 -191 74 -191 206v143c0 132 72 206 191 206c120 0 192 -74 192 -206v-143c0 -132 -72 -206 -192 -206zM233 102c46 0 72 28 72 91v143c0 64 -26 91 -72 91c-45 0 -71 -27 -71 -91v-143c0 -63 26 -91 71 -91z" />
    <glyph glyph-name="oslash" unicode="&#xf8;" horiz-adv-x="454" 
d="M359 497c38 -35 60 -89 60 -161v-142c0 -132 -73 -206 -192 -206c-22 0 -43 3 -62 8l-26 -67h-80l39 101c-41 35 -63 90 -63 164v142c0 132 72 206 192 206c24 0 46 -3 66 -9l26 70h80zM298 194v142c0 64 -25 91 -71 91s-72 -27 -72 -91v-142c0 -63 26 -91 72 -91
s71 28 71 91z" />
    <glyph glyph-name="otilde" unicode="&#xf5;" horiz-adv-x="467" 
d="M199 644c-12 0 -23 -9 -25 -26h-72c4 65 39 99 86 99c42 0 55 -29 78 -29c14 0 24 11 26 26h71c-4 -61 -37 -99 -86 -99c-41 0 -54 29 -78 29zM233 -13c-119 0 -191 74 -191 206v143c0 132 72 206 191 206c120 0 192 -74 192 -206v-143c0 -132 -72 -206 -192 -206z
M233 102c46 0 72 28 72 91v143c0 64 -26 91 -72 91c-45 0 -71 -27 -71 -91v-143c0 -63 26 -91 71 -91z" />
    <glyph glyph-name="oe" unicode="&#x153;" horiz-adv-x="714" 
d="M563 169h119c-9 -114 -80 -181 -194 -181c-52 0 -96 20 -126 58c-32 -39 -76 -58 -130 -58c-119 0 -190 74 -190 206v141c0 134 71 205 190 205c54 0 98 -19 130 -56c30 37 74 56 126 56c118 0 188 -73 188 -200v-116h-255v-32c0 -63 24 -91 68 -91c48 0 67 21 74 68z
M421 341v-34h139v34c0 62 -25 90 -71 90c-44 0 -68 -28 -68 -90zM304 194v141c0 64 -26 91 -72 91s-71 -27 -71 -91v-141c0 -63 25 -91 71 -91s72 28 72 91z" />
    <glyph glyph-name="p" unicode="p" horiz-adv-x="470" 
d="M259 541c102 0 170 -80 170 -207v-141c0 -127 -68 -206 -170 -206c-34 0 -66 13 -90 35v-202h-115v710h82l7 -49c26 33 71 60 116 60zM309 193v141c0 64 -25 95 -68 95c-44 0 -72 -32 -72 -95v-141c0 -60 26 -94 72 -94c44 0 68 30 68 94z" />
    <glyph glyph-name="thorn" unicode="&#xfe;" horiz-adv-x="469" 
d="M259 552c102 0 169 -79 169 -206v-149c0 -126 -67 -205 -169 -205c-33 0 -65 13 -90 35v-207h-115v904h115v-207c25 22 57 35 90 35zM307 197v149c0 64 -23 94 -66 94c-46 0 -72 -34 -72 -94v-149c0 -59 26 -93 72 -93c43 0 66 30 66 93z" />
    <glyph glyph-name="q" unicode="q" horiz-adv-x="470" 
d="M334 530h83v-710h-116v201c-24 -21 -57 -34 -90 -34c-102 0 -169 79 -169 206v141c0 127 68 207 169 207c45 0 91 -27 117 -60zM230 99c45 0 71 34 71 94v141c0 63 -27 95 -71 95c-43 0 -68 -31 -68 -95v-141c0 -64 24 -94 68 -94z" />
    <glyph glyph-name="r" unicode="r" horiz-adv-x="345" 
d="M279 541c23 0 42 -3 57 -10v-114c-19 8 -40 13 -65 13c-61 0 -99 -34 -99 -101v-329h-118v529h80l10 -58c28 45 74 70 135 70z" />
    <glyph glyph-name="racute" unicode="&#x155;" horiz-adv-x="345" 
d="M301 741l-92 -132h-85l74 132h103zM279 541c23 0 42 -3 57 -10v-114c-19 8 -40 13 -65 13c-61 0 -99 -34 -99 -101v-329h-118v529h80l10 -58c28 45 74 70 135 70z" />
    <glyph glyph-name="rcaron" unicode="&#x159;" horiz-adv-x="345" 
d="M233 610h-94l-81 131h82l47 -68l46 68h81zM279 541c23 0 42 -3 57 -10v-114c-19 8 -40 13 -65 13c-61 0 -99 -34 -99 -101v-329h-118v529h80l10 -58c28 45 74 70 135 70z" />
    <glyph glyph-name="rcommaaccent" unicode="&#x157;" horiz-adv-x="345" 
d="M279 541c23 0 42 -3 57 -10v-114c-19 8 -40 13 -65 13c-61 0 -99 -34 -99 -101v-329h-118v529h80l10 -58c28 45 74 70 135 70zM64 -273l16 202h103l-48 -202h-71z" />
    <glyph glyph-name="s" unicode="s" horiz-adv-x="425" 
d="M219 -14c-129 0 -196 84 -198 180h118c1 -36 21 -72 77 -72c43 0 68 21 68 53c0 94 -254 64 -254 244c0 94 69 151 177 151c120 0 175 -74 181 -173h-114c-2 42 -22 68 -67 68c-37 0 -60 -19 -60 -47c0 -85 255 -52 255 -243c0 -96 -68 -161 -183 -161z" />
    <glyph glyph-name="sacute" unicode="&#x15b;" horiz-adv-x="425" 
d="M328 743l-92 -132h-85l74 132h103zM219 -14c-129 0 -196 84 -198 180h118c1 -36 21 -72 77 -72c43 0 68 21 68 53c0 94 -254 64 -254 244c0 94 69 151 177 151c120 0 175 -74 181 -173h-114c-2 42 -22 68 -67 68c-37 0 -60 -19 -60 -47c0 -85 255 -52 255 -243
c0 -96 -68 -161 -183 -161z" />
    <glyph glyph-name="scaron" unicode="&#x161;" horiz-adv-x="425" 
d="M260 612h-94l-81 131h82l47 -68l46 68h81zM147 390c0 -85 255 -52 255 -243c0 -96 -68 -161 -183 -161c-129 0 -196 84 -198 180h118c1 -36 21 -72 77 -72c43 0 68 21 68 53c0 94 -254 64 -254 244c0 94 69 151 177 151c120 0 175 -74 181 -173h-114c-2 42 -22 68 -67 68
c-37 0 -60 -19 -60 -47z" />
    <glyph glyph-name="scedilla" unicode="&#x15f;" horiz-adv-x="425" 
d="M402 147c0 -89 -58 -151 -157 -160l-10 -35c2 1 5 1 10 1c42 0 73 -30 73 -74c0 -55 -43 -91 -106 -91c-54 0 -100 35 -105 87h66c7 -17 20 -27 40 -27c24 0 36 15 36 34c0 18 -11 30 -35 30c-10 0 -24 -2 -34 -8l-19 19l19 66c-104 15 -157 91 -159 177h118
c1 -36 21 -72 77 -72c43 0 68 21 68 53c0 94 -254 64 -254 244c0 94 69 151 177 151c120 0 175 -74 181 -173h-114c-2 42 -22 68 -67 68c-37 0 -60 -19 -60 -47c0 -85 255 -52 255 -243z" />
    <glyph glyph-name="scommaaccent" unicode="&#x219;" horiz-adv-x="425" 
d="M219 -14c-129 0 -196 84 -198 180h118c1 -36 21 -72 77 -72c43 0 68 21 68 53c0 94 -254 64 -254 244c0 94 69 151 177 151c120 0 175 -74 181 -173h-114c-2 42 -22 68 -67 68c-37 0 -60 -19 -60 -47c0 -85 255 -52 255 -243c0 -96 -68 -161 -183 -161zM156 -273l16 202
h103l-48 -202h-71z" />
    <glyph glyph-name="germandbls" unicode="&#xdf;" horiz-adv-x="489" 
d="M376 364c54 -33 89 -92 89 -157c0 -126 -84 -207 -204 -207h-37v117h18c64 0 97 30 97 90c0 64 -33 96 -94 96h-21v113h16c54 0 81 31 81 89c0 60 -25 93 -72 93s-73 -33 -73 -95v-503h-122v503c0 127 76 211 196 211c119 0 195 -85 195 -210c0 -57 -26 -109 -69 -140z
" />
    <glyph glyph-name="t" unicode="t" horiz-adv-x="326" 
d="M265 104h33v-111h-40c-110 0 -177 71 -177 185v244h-71v107h71v126h117v-126h92v-107h-92v-245c0 -50 21 -73 67 -73z" />
    <glyph glyph-name="tbar" unicode="&#x167;" horiz-adv-x="326" 
d="M265 104h33v-111h-40c-110 0 -177 71 -177 185v64h-54v76h54v104h-71v107h71v126h117v-126h92v-107h-92v-104h66v-76h-66v-65c0 -50 21 -73 67 -73z" />
    <glyph glyph-name="tcaron" unicode="&#x165;" horiz-adv-x="400" 
d="M273 775h99l-46 -183h-72zM198 177c0 -50 21 -73 67 -73h33v-111h-40c-110 0 -177 71 -177 185v244h-71v107h71v126h117v-126h92v-107h-92v-245z" />
    <glyph glyph-name="uni0163" unicode="&#x163;" horiz-adv-x="311" 
d="M265 104h33v-111h-40c-110 0 -177 71 -177 185v244h-71v107h71v126h117v-126h92v-107h-92v-245c0 -50 21 -73 67 -73zM119 -273l16 202h103l-48 -202h-71z" />
    <glyph glyph-name="uni021B" unicode="&#x21b;" horiz-adv-x="311" 
d="M265 104h33v-111h-40c-110 0 -177 71 -177 185v244h-71v107h71v126h117v-126h92v-107h-92v-245c0 -50 21 -73 67 -73zM119 -273l16 202h103l-48 -202h-71z" />
    <glyph glyph-name="u" unicode="u" horiz-adv-x="473" 
d="M301 529h118v-529h-80l-10 57c-27 -45 -70 -70 -128 -70c-95 0 -152 70 -152 214v328h118v-325c0 -75 21 -104 62 -104c44 0 72 34 72 98v331z" />
    <glyph glyph-name="uacute" unicode="&#xfa;" horiz-adv-x="473" 
d="M347 740l-92 -132h-85l74 132h103zM301 529h118v-529h-80l-10 57c-27 -45 -70 -70 -128 -70c-95 0 -152 70 -152 214v328h118v-325c0 -75 21 -104 62 -104c44 0 72 34 72 98v331z" />
    <glyph glyph-name="ucircumflex" unicode="&#xfb;" horiz-adv-x="473" 
d="M233 676l-47 -68h-82l81 131h94l81 -131h-81zM301 529h118v-529h-80l-10 57c-27 -45 -70 -70 -128 -70c-95 0 -152 70 -152 214v328h118v-325c0 -75 21 -104 62 -104c44 0 72 34 72 98v331z" />
    <glyph glyph-name="udieresis" unicode="&#xfc;" horiz-adv-x="473" 
d="M157 617c-34 0 -56 22 -56 56s22 55 56 55s56 -21 56 -55s-22 -56 -56 -56zM309 617c-34 0 -57 22 -57 56s23 55 57 55c33 0 56 -21 56 -55s-23 -56 -56 -56zM301 529h118v-529h-80l-10 57c-27 -45 -70 -70 -128 -70c-95 0 -152 70 -152 214v328h118v-325
c0 -75 21 -104 62 -104c44 0 72 34 72 98v331z" />
    <glyph glyph-name="ugrave" unicode="&#xf9;" horiz-adv-x="473" 
d="M308 608h-85l-92 132h103zM301 529h118v-529h-80l-10 57c-27 -45 -70 -70 -128 -70c-95 0 -152 70 -152 214v328h118v-325c0 -75 21 -104 62 -104c44 0 72 34 72 98v331z" />
    <glyph glyph-name="uhungarumlaut" unicode="&#x171;" horiz-adv-x="473" 
d="M271 740l-91 -132h-78l75 132h94zM317 608h-78l80 132h94zM301 529h118v-529h-80l-10 57c-27 -45 -70 -70 -128 -70c-95 0 -152 70 -152 214v328h118v-325c0 -75 21 -104 62 -104c44 0 72 34 72 98v331z" />
    <glyph glyph-name="umacron" unicode="&#x16b;" horiz-adv-x="473" 
d="M338 711v-78h-211v78h211zM301 529h118v-529h-80l-10 57c-27 -45 -70 -70 -128 -70c-95 0 -152 70 -152 214v328h118v-325c0 -75 21 -104 62 -104c44 0 72 34 72 98v331z" />
    <glyph glyph-name="uogonek" unicode="&#x173;" horiz-adv-x="473" 
d="M419 0c-39 -23 -61 -55 -61 -78c0 -18 14 -25 33 -25c8 0 19 1 28 3v-82c-24 -11 -48 -12 -73 -12c-57 0 -88 37 -88 84c0 44 29 79 81 110l-10 57c-27 -45 -70 -70 -128 -70c-95 0 -152 70 -152 214v328h118v-326c0 -74 20 -103 62 -103c44 0 72 34 72 98v331h118v-529z
" />
    <glyph glyph-name="uring" unicode="&#x16f;" horiz-adv-x="473" 
d="M233 605c-52 0 -86 34 -86 85c0 49 34 83 86 83s87 -34 87 -83c0 -51 -35 -85 -87 -85zM233 722c-19 0 -32 -13 -32 -33s13 -33 32 -33c20 0 33 13 33 33s-13 33 -33 33zM301 529h118v-529h-80l-10 57c-27 -45 -70 -70 -128 -70c-95 0 -152 70 -152 214v328h118v-325
c0 -75 21 -104 62 -104c44 0 72 34 72 98v331z" />
    <glyph glyph-name="v" unicode="v" horiz-adv-x="422" 
d="M295 529h125l-143 -529h-132l-143 529h125l44 -199c14 -63 30 -149 37 -191h6c8 42 24 128 37 191z" />
    <glyph glyph-name="w" unicode="w" horiz-adv-x="652" 
d="M528 529h122l-123 -529h-127l-35 152c-18 78 -32 166 -36 224h-5c-5 -58 -19 -146 -36 -224l-35 -152h-128l-123 529h122l37 -209c10 -61 24 -150 28 -190h5c6 47 19 123 30 185l40 204h125l39 -204c11 -62 24 -138 30 -185h5c4 40 18 129 28 190z" />
    <glyph glyph-name="wacute" unicode="&#x1e83;" horiz-adv-x="652" 
d="M437 740l-92 -132h-85l74 132h103zM528 529h122l-123 -529h-127l-35 152c-18 78 -32 166 -36 224h-5c-5 -58 -19 -146 -36 -224l-35 -152h-128l-123 529h122l37 -209c10 -61 24 -150 28 -190h5c6 47 19 123 30 185l40 204h125l39 -204c11 -62 24 -138 30 -185h5
c4 40 18 129 28 190z" />
    <glyph glyph-name="wcircumflex" unicode="&#x175;" horiz-adv-x="652" 
d="M323 676l-47 -68h-82l81 131h94l81 -131h-81zM528 529h122l-123 -529h-127l-35 152c-18 78 -32 166 -36 224h-5c-5 -58 -19 -146 -36 -224l-35 -152h-128l-123 529h122l37 -209c10 -61 24 -150 28 -190h5c6 47 19 123 30 185l40 204h125l39 -204c11 -62 24 -138 30 -185
h5c4 40 18 129 28 190z" />
    <glyph glyph-name="wdieresis" unicode="&#x1e85;" horiz-adv-x="652" 
d="M247 617c-34 0 -56 22 -56 56s22 55 56 55s56 -21 56 -55s-22 -56 -56 -56zM399 617c-34 0 -57 22 -57 56s23 55 57 55c33 0 56 -21 56 -55s-23 -56 -56 -56zM528 529h122l-123 -529h-127l-35 152c-18 78 -32 166 -36 224h-5c-5 -58 -19 -146 -36 -224l-35 -152h-128
l-123 529h122l37 -209c10 -61 24 -150 28 -190h5c6 47 19 123 30 185l40 204h125l39 -204c11 -62 24 -138 30 -185h5c4 40 18 129 28 190z" />
    <glyph glyph-name="wgrave" unicode="&#x1e81;" horiz-adv-x="652" 
d="M398 608h-85l-92 132h103zM528 529h122l-123 -529h-127l-35 152c-18 78 -32 166 -36 224h-5c-5 -58 -19 -146 -36 -224l-35 -152h-128l-123 529h122l37 -209c10 -61 24 -150 28 -190h5c6 47 19 123 30 185l40 204h125l39 -204c11 -62 24 -138 30 -185h5
c4 40 18 129 28 190z" />
    <glyph glyph-name="x" unicode="x" horiz-adv-x="423" 
d="M427 0h-133l-83 169l-82 -169h-133l142 266l-129 263h129l73 -162l73 162h130l-127 -263z" />
    <glyph glyph-name="y" unicode="y" horiz-adv-x="434" 
d="M311 529h121l-164 -556c-26 -92 -67 -162 -151 -162h-61v114h37c37 0 50 25 63 69l17 60l-171 475h123l98 -305z" />
    <glyph glyph-name="yacute" unicode="&#xfd;" horiz-adv-x="434" 
d="M329 743l-92 -132h-85l74 132h103zM311 529h121l-164 -556c-26 -92 -67 -162 -151 -162h-61v114h37c37 0 50 25 63 69l17 60l-171 475h123l98 -305z" />
    <glyph glyph-name="ycircumflex" unicode="&#x177;" horiz-adv-x="434" 
d="M215 679l-47 -68h-82l81 131h94l81 -131h-81zM311 529h121l-164 -556c-26 -92 -67 -162 -151 -162h-61v114h37c37 0 50 25 63 69l17 60l-171 475h123l98 -305z" />
    <glyph glyph-name="ydieresis" unicode="&#xff;" horiz-adv-x="434" 
d="M139 620c-34 0 -56 22 -56 56s22 55 56 55s56 -21 56 -55s-22 -56 -56 -56zM291 620c-34 0 -57 22 -57 56s23 55 57 55c33 0 56 -21 56 -55s-23 -56 -56 -56zM311 529h121l-164 -556c-26 -92 -67 -162 -151 -162h-61v114h37c37 0 50 25 63 69l17 60l-171 475h123l98 -305
z" />
    <glyph glyph-name="ygrave" unicode="&#x1ef3;" horiz-adv-x="434" 
d="M290 611h-85l-92 132h103zM311 529h121l-164 -556c-26 -92 -67 -162 -151 -162h-61v114h37c37 0 50 25 63 69l17 60l-171 475h123l98 -305z" />
    <glyph glyph-name="z" unicode="z" horiz-adv-x="371" 
d="M158 108h199v-108h-351v75l192 345h-173v109h322v-75z" />
    <glyph glyph-name="zacute" unicode="&#x17a;" horiz-adv-x="371" 
d="M295 741l-92 -132h-85l74 132h103zM158 108h199v-108h-351v75l192 345h-173v109h322v-75z" />
    <glyph glyph-name="zcaron" unicode="&#x17e;" horiz-adv-x="371" 
d="M227 610h-94l-81 131h82l47 -68l46 68h81zM158 108h199v-108h-351v75l192 345h-173v109h322v-75z" />
    <glyph glyph-name="zdotaccent" unicode="&#x17c;" horiz-adv-x="371" 
d="M180 611c-40 0 -68 30 -68 69c0 40 28 69 68 69c39 0 69 -29 69 -69c0 -37 -30 -69 -69 -69zM158 108h199v-108h-351v75l192 345h-173v109h322v-75z" />
    <glyph glyph-name="uni0163.ss01" horiz-adv-x="326" 
d="M258 -7c-13 0 -26 1 -38 3l-16 -40h11c39 0 72 -28 72 -67c0 -52 -44 -83 -102 -83c-51 0 -92 30 -100 81h63c7 -15 21 -25 38 -25c20 0 36 10 36 29c0 13 -10 26 -32 26c-13 0 -25 -3 -36 -7l-19 20l28 85c-53 29 -83 87 -83 163v242h-70v109h70v126h118v-126h92v-109
h-92v-243c0 -51 21 -75 67 -75h33v-109h-40z" />
    <glyph glyph-name="uni0410" unicode="&#x410;" horiz-adv-x="485" 
d="M353 0l-28 127h-164l-28 -127h-128l172 700h132l172 -700h-128zM186 244h114l-28 130c-10 48 -21 125 -28 172h-3c-6 -47 -17 -124 -27 -172z" />
    <glyph glyph-name="uni0411" unicode="&#x411;" horiz-adv-x="510" 
d="M267 429c142 0 215 -87 215 -214c0 -145 -73 -215 -215 -215h-201v700h377v-115h-254v-156h78zM258 117c60 0 97 30 97 98c0 67 -37 99 -97 99h-69v-197h69z" />
    <glyph glyph-name="uni0412" unicode="&#x412;" horiz-adv-x="513" 
d="M392 359c56 -28 89 -86 89 -154c0 -125 -83 -205 -204 -205h-211v700h205c110 0 185 -77 185 -195c0 -60 -24 -115 -64 -146zM252 584h-63v-172h67c50 0 75 31 75 88c0 56 -25 84 -79 84zM258 116c64 0 97 30 97 89c0 61 -36 92 -98 92h-68v-181h69z" />
    <glyph glyph-name="uni0413" unicode="&#x413;" horiz-adv-x="426" 
d="M410 700v-117h-221v-583h-123v700h344z" />
    <glyph glyph-name="uni0403" unicode="&#x403;" horiz-adv-x="426" 
d="M364 899l-111 -132h-86l94 132h103zM410 700v-117h-221v-583h-123v700h344z" />
    <glyph glyph-name="uni0490" unicode="&#x490;" horiz-adv-x="426" 
d="M309 823h101v-240h-221v-583h-123v700h243v123z" />
    <glyph glyph-name="uni0414" unicode="&#x414;" horiz-adv-x="579" 
d="M501 115h63v-233h-121v118h-317v-118h-121v233h43c57 61 77 170 81 272l12 313h360v-585zM379 115v469h-123l-9 -232c-3 -92 -20 -174 -55 -237h187z" />
    <glyph glyph-name="uni0415" unicode="&#x415;" horiz-adv-x="465" 
d="M189 116h239v-116h-362v700h352v-116h-229v-173h210v-112h-210v-183z" />
    <glyph glyph-name="uni0401" unicode="&#x401;" horiz-adv-x="465" 
d="M175 778c-34 0 -56 22 -56 56s22 56 56 56c33 0 55 -22 55 -56s-22 -56 -55 -56zM329 778c-34 0 -56 22 -56 56s22 56 56 56s56 -22 56 -56s-22 -56 -56 -56zM189 116h239v-116h-362v700h352v-116h-229v-173h210v-112h-210v-183z" />
    <glyph glyph-name="uni0416" unicode="&#x416;" horiz-adv-x="742" 
d="M606 0l-141 279l-34 -53v-226h-120v227l-34 53l-140 -280h-137l212 384l-194 316h140l112 -202l41 -84v286h120v-287l43 87l111 200h139l-194 -317l212 -383h-136z" />
    <glyph glyph-name="uni0417" unicode="&#x417;" horiz-adv-x="489" 
d="M350 364c88 -25 117 -87 117 -166c0 -132 -99 -212 -226 -212c-142 0 -223 103 -228 221h124c2 -50 33 -102 103 -102c57 0 101 36 101 100c0 66 -41 101 -110 101h-50v107h41c68 0 100 32 100 97c0 53 -28 87 -81 87c-68 0 -91 -46 -94 -105h-122c8 130 79 223 216 223
c124 0 205 -79 205 -204c0 -71 -27 -118 -96 -147z" />
    <glyph glyph-name="uni0418" unicode="&#x418;" horiz-adv-x="563" 
d="M66 0v700h120v-229c0 -58 -6 -164 -15 -240l3 -2c15 39 32 87 51 129l149 342h123v-700h-120v218c0 66 5 180 13 254l-3 3c-18 -48 -37 -104 -58 -152l-141 -323h-122z" />
    <glyph glyph-name="uni0419" unicode="&#x419;" horiz-adv-x="563" 
d="M285 769c-71 0 -123 45 -126 122h79c1 -30 20 -47 46 -47c25 0 45 17 46 47h78c-3 -79 -54 -122 -123 -122zM66 0v700h120v-229c0 -58 -6 -164 -15 -240l3 -2c15 39 32 87 51 129l149 342h123v-700h-120v218c0 66 5 180 13 254l-3 3c-18 -48 -37 -104 -58 -152l-141 -323
h-122z" />
    <glyph glyph-name="uni040D" unicode="&#x40d;" horiz-adv-x="563" 
d="M360 767h-86l-111 132h103zM66 0v700h120v-229c0 -58 -6 -164 -15 -240l3 -2c15 39 32 87 51 129l149 342h123v-700h-120v218c0 66 5 180 13 254l-3 3c-18 -48 -37 -104 -58 -152l-141 -323h-122z" />
    <glyph glyph-name="uni041A" unicode="&#x41a;" horiz-adv-x="517" 
d="M377 0l-147 285l-43 -67v-218h-121v700h121v-287l41 82l117 205h142l-188 -305l218 -395h-140z" />
    <glyph glyph-name="uni040C" unicode="&#x40c;" horiz-adv-x="517" 
d="M358 899l-111 -132h-86l94 132h103zM377 0l-147 285l-43 -67v-218h-121v700h121v-287l41 82l117 205h142l-188 -305l218 -395h-140z" />
    <glyph glyph-name="uni041B" unicode="&#x41b;" horiz-adv-x="549" 
d="M112 700h371v-700h-123v584h-130c-10 -194 -20 -331 -33 -412c-23 -150 -90 -183 -197 -183v111c43 0 65 21 79 102c12 72 20 206 33 498z" />
    <glyph glyph-name="uni041C" unicode="&#x41c;" horiz-adv-x="708" 
d="M518 700h125v-700h-121v219c3 82 6 162 10 241l-5 2c-20 -58 -43 -121 -65 -184l-47 -124h-122l-47 124c-22 63 -44 126 -65 184l-5 -2c4 -79 7 -159 10 -241v-219h-120v700h124l114 -274c15 -37 39 -101 48 -130h4c9 29 34 93 49 130z" />
    <glyph glyph-name="uni041D" unicode="&#x41d;" horiz-adv-x="548" 
d="M358 700h124v-700h-124v295h-169v-295h-123v700h123v-288h169v288z" />
    <glyph glyph-name="uni041E" unicode="&#x41e;" horiz-adv-x="533" 
d="M267 -12c-139 0 -221 89 -221 237v250c0 148 82 237 221 237c138 0 220 -89 220 -237v-250c0 -148 -82 -237 -220 -237zM267 107c62 0 93 42 93 118v250c0 76 -31 118 -93 118s-94 -42 -94 -118v-250c0 -76 32 -118 94 -118z" />
    <glyph glyph-name="uni041F" unicode="&#x41f;" horiz-adv-x="546" 
d="M481 700v-700h-123v583h-169v-583h-123v700h415z" />
    <glyph glyph-name="uni0420" unicode="&#x420;" horiz-adv-x="514" 
d="M260 700c141 0 224 -86 224 -233s-83 -232 -224 -232h-71v-235h-123v700h194zM259 351c66 0 99 39 99 116s-33 116 -99 116h-70v-232h70z" />
    <glyph glyph-name="uni0421" unicode="&#x421;" horiz-adv-x="498" 
d="M256 -12c-130 0 -210 78 -210 222v280c0 145 79 224 210 224c134 0 210 -79 216 -222h-123c-4 72 -34 103 -94 103c-51 0 -82 -33 -82 -105v-280c0 -70 31 -103 83 -103c61 0 91 31 96 101h123c-5 -142 -84 -220 -219 -220z" />
    <glyph glyph-name="uni0422" unicode="&#x422;" horiz-adv-x="440" 
d="M424 700v-117h-141v-583h-126v583h-141v117h408z" />
    <glyph glyph-name="uni0423" unicode="&#x423;" horiz-adv-x="454" 
d="M324 700h129l-166 -540c-43 -138 -95 -171 -212 -171h-26v110h30c54 0 76 20 99 98l-175 503h130l100 -313z" />
    <glyph glyph-name="uni040E" unicode="&#x40e;" horiz-adv-x="454" 
d="M230 769c-71 0 -123 45 -126 122h79c1 -30 20 -47 46 -47c25 0 45 17 46 47h78c-3 -79 -54 -122 -123 -122zM324 700h129l-166 -540c-43 -138 -95 -171 -212 -171h-26v110h30c54 0 76 20 99 98l-175 503h130l100 -313z" />
    <glyph glyph-name="uni0424" unicode="&#x424;" horiz-adv-x="680" 
d="M279 -66v79h-14c-137 0 -242 93 -242 259v150c0 168 105 265 242 265h14v74h122v-74h14c137 0 242 -97 242 -265v-150c0 -166 -105 -259 -242 -259h-14v-79h-122zM259 131h20v438h-20c-65 0 -113 -42 -113 -147v-150c0 -101 48 -141 113 -141zM401 131h19
c66 0 114 40 114 141v150c0 105 -48 147 -114 147h-19v-438z" />
    <glyph glyph-name="uni0425" unicode="&#x425;" horiz-adv-x="492" 
d="M478 0h-135l-97 233l-97 -233h-135l166 362l-156 338h134l88 -212l88 212h134l-156 -338z" />
    <glyph glyph-name="uni0427" unicode="&#x427;" horiz-adv-x="519" 
d="M331 700h123v-704h-123v251c-30 -9 -64 -13 -92 -13c-127 0 -205 85 -205 231v235h123v-241c0 -75 34 -110 100 -110c24 0 50 4 74 12v339z" />
    <glyph glyph-name="uni0426" unicode="&#x426;" horiz-adv-x="557" 
d="M422 -118v118h-356v700h123v-583h166v583h124v-583h64v-235h-121z" />
    <glyph glyph-name="uni0428" unicode="&#x428;" horiz-adv-x="813" 
d="M66 0v700h121v-583h159v583h121v-583h159v583h121v-700h-681z" />
    <glyph glyph-name="uni0429" unicode="&#x429;" horiz-adv-x="822" 
d="M744 117h64v-235h-121v118h-621v700h121v-583h157v583h122v-583h157v583h121v-583z" />
    <glyph glyph-name="uni040F" unicode="&#x40f;" horiz-adv-x="546" 
d="M213 -118v118h-147v700h123v-583h169v583h123v-700h-147v-118h-121z" />
    <glyph glyph-name="uni042C" unicode="&#x42c;" horiz-adv-x="494" 
d="M66 0v700h123v-272h69c147 0 217 -88 217 -216c0 -143 -70 -212 -217 -212h-192zM189 113h60c64 0 98 31 98 99s-34 99 -98 99h-60v-198z" />
    <glyph glyph-name="uni042A" unicode="&#x42a;" horiz-adv-x="572" 
d="M147 0v588h-134v112h258v-271h65c148 0 217 -89 217 -216c0 -143 -69 -213 -217 -213h-189zM271 113h56c66 0 100 32 100 100c0 67 -34 99 -100 99h-56v-199z" />
    <glyph glyph-name="uni042B" unicode="&#x42b;" horiz-adv-x="724" 
d="M66 0v700h126v-272h55c146 0 215 -88 215 -216c0 -143 -69 -212 -215 -212h-181zM536 0v700h123v-700h-123zM192 113h46c64 0 96 31 96 99c0 67 -32 99 -96 99h-46v-198z" />
    <glyph glyph-name="uni0409" unicode="&#x409;" horiz-adv-x="770" 
d="M0 -11v113c46 0 71 24 82 104c11 67 19 224 30 494h369v-272h56c146 0 214 -86 214 -220c0 -139 -71 -208 -214 -208h-183v584h-126c-8 -167 -18 -329 -31 -412c-26 -149 -87 -183 -197 -183zM481 113h47c63 0 96 31 96 99c0 67 -33 99 -96 99h-47v-198z" />
    <glyph glyph-name="uni040A" unicode="&#x40a;" horiz-adv-x="786" 
d="M550 421c147 0 217 -86 217 -211c0 -141 -70 -210 -217 -210h-194v303h-167v-303h-123v700h123v-280h167v280h123v-279h71zM541 113c65 0 98 31 98 97c0 64 -33 94 -98 94h-62v-191h62z" />
    <glyph glyph-name="uni0405" unicode="&#x405;" horiz-adv-x="472" 
d="M234 -14c-129 0 -211 77 -212 212h126c1 -63 34 -92 87 -92c56 0 83 33 83 78c0 127 -282 137 -282 348c0 104 74 182 198 182c125 0 201 -77 202 -202h-126c-1 56 -29 83 -76 83c-46 0 -73 -26 -73 -66c0 -122 285 -126 285 -346c0 -110 -77 -197 -212 -197z" />
    <glyph glyph-name="uni0404" unicode="&#x404;" horiz-adv-x="498" 
d="M352 208h123c-5 -142 -84 -220 -219 -220c-130 0 -210 78 -210 222v280c0 145 79 224 210 224c134 0 210 -79 216 -222h-123c-4 72 -34 103 -94 103c-51 0 -82 -33 -82 -105v-84h160v-102h-160v-94c0 -70 31 -103 83 -103c61 0 91 31 96 101z" />
    <glyph glyph-name="uni042D" unicode="&#x42d;" horiz-adv-x="498" 
d="M242 714c131 0 210 -79 210 -224v-280c0 -144 -80 -222 -210 -222c-135 0 -214 78 -219 220h123c5 -70 35 -101 96 -101c52 0 83 33 83 103v94h-160v102h160v84c0 72 -31 105 -82 105c-60 0 -90 -31 -94 -103h-123c6 143 82 222 216 222z" />
    <glyph glyph-name="uni0406" unicode="&#x406;" horiz-adv-x="254" 
d="M66 700h123v-700h-123v700z" />
    <glyph glyph-name="uni0407" unicode="&#x407;" horiz-adv-x="254" 
d="M51 778c-34 0 -56 22 -56 56s22 56 56 56c33 0 55 -22 55 -56s-22 -56 -55 -56zM205 778c-34 0 -56 22 -56 56s22 56 56 56s56 -22 56 -56s-22 -56 -56 -56zM66 700h123v-700h-123v700z" />
    <glyph glyph-name="uni0408" unicode="&#x408;" horiz-adv-x="304" 
d="M0 -136v122c76 0 118 28 118 123v591h123v-591c0 -154 -82 -245 -241 -245z" />
    <glyph glyph-name="uni040B" unicode="&#x40b;" horiz-adv-x="580" 
d="M384 511c94 0 148 -72 148 -218v-293h-119v292c0 78 -21 107 -61 107c-41 0 -68 -30 -72 -84v-315h-126v583h-138v117h403v-117h-139v-127c24 34 60 55 104 55z" />
    <glyph glyph-name="uni042E" unicode="&#x42e;" horiz-adv-x="774" 
d="M511 711c136 0 217 -89 217 -239v-244c0 -150 -81 -239 -217 -239c-137 0 -218 89 -218 239v67h-105v-295h-122v700h122v-288h105v60c0 150 81 239 218 239zM602 228v244c0 78 -31 120 -91 120c-61 0 -91 -42 -91 -120v-244c0 -78 30 -120 91 -120c60 0 91 42 91 120z
" />
    <glyph glyph-name="uni042F" unicode="&#x42f;" horiz-adv-x="515" 
d="M10 0l141 263c-70 33 -110 105 -110 206c0 146 81 231 216 231h192v-700h-123v239h-55l-125 -239h-136zM258 356h68v227h-68c-59 0 -91 -39 -91 -114c0 -73 32 -113 91 -113z" />
    <glyph glyph-name="uni0402" unicode="&#x402;" horiz-adv-x="573" 
d="M384 511c94 0 148 -72 148 -218v-96c-1 -129 -72 -202 -196 -202v113c51 0 77 29 77 90v94c0 78 -21 107 -61 107c-43 0 -72 -31 -72 -87v-312h-126v583h-138v117h403v-117h-139v-127c24 34 60 55 104 55z" />
    <glyph glyph-name="uni0414.loclBGR" horiz-adv-x="538" 
d="M0 -118v233h58l146 585h130l146 -585h58v-233h-122v118h-295v-118h-121zM182 115h175l-53 236c-12 55 -24 137 -33 198h-4c-7 -55 -21 -144 -32 -198z" />
    <glyph glyph-name="uni041B.loclBGR" horiz-adv-x="479" 
d="M174 700h131l169 -700h-128l-73 356c-11 56 -23 134 -32 191h-4c-8 -57 -20 -135 -31 -191l-73 -356h-128z" />
    <glyph glyph-name="uni0430" unicode="&#x430;" horiz-adv-x="458" 
d="M228 542c120 0 177 -70 177 -199v-343h-95l-7 50c-20 -36 -57 -64 -117 -64c-97 0 -159 68 -159 165c0 112 81 166 197 166h62v26c0 54 -16 85 -60 85c-33 0 -61 -17 -66 -58h-118c5 107 74 172 186 172zM286 162v55h-60c-50 0 -79 -23 -79 -66c0 -36 22 -62 67 -62
c44 0 72 28 72 73z" />
    <glyph glyph-name="uni0431" unicode="&#x431;" horiz-adv-x="476" 
d="M266 485c100 0 169 -74 169 -205v-87c0 -131 -72 -205 -191 -205c-118 0 -190 74 -190 205v270c0 125 69 182 170 220c57 21 73 28 99 66l83 -69c-32 -55 -70 -78 -122 -95c-51 -16 -113 -36 -113 -111v-21c25 21 58 32 95 32zM315 193v85c0 65 -25 92 -70 92
c-42 0 -72 -25 -72 -90v-87c0 -63 26 -91 71 -91s71 28 71 91z" />
    <glyph glyph-name="uni0432" unicode="&#x432;" horiz-adv-x="434" 
d="M336 280c59 -23 81 -73 81 -126c0 -95 -61 -154 -190 -154h-173v529h169c109 0 167 -55 167 -150c0 -38 -19 -75 -54 -99zM167 434v-117h48c38 0 60 20 60 59c0 35 -22 58 -61 58h-47zM233 97c47 0 68 21 68 62c0 42 -21 62 -68 62h-66v-124h66z" />
    <glyph glyph-name="uni0433" unicode="&#x433;" horiz-adv-x="349" 
d="M335 530v-113h-162v-417h-119v530h281z" />
    <glyph glyph-name="uni0453" unicode="&#x453;" horiz-adv-x="349" 
d="M305 741l-92 -132h-85l74 132h103zM335 530v-113h-162v-417h-119v530h281z" />
    <glyph glyph-name="uni0491" unicode="&#x491;" horiz-adv-x="350" 
d="M241 628h95v-212h-163v-416h-119v529h187v99z" />
    <glyph glyph-name="uni0434" unicode="&#x434;" horiz-adv-x="494" 
d="M0 -118v225h41c30 37 40 97 44 156c5 88 10 177 12 266h326v-422h61v-225h-113v118h-258v-118h-113zM176 107h130v313h-98c-1 -62 -3 -124 -8 -186c-3 -47 -10 -89 -24 -127z" />
    <glyph glyph-name="uni0435" unicode="&#x435;" horiz-adv-x="456" 
d="M305 167h119c-10 -113 -81 -179 -197 -179c-115 0 -185 76 -185 204v149c0 127 70 201 186 201c118 0 189 -74 189 -201v-118h-257v-31c0 -63 25 -91 69 -91c49 0 67 20 76 66zM229 432c-44 0 -69 -28 -69 -90v-35h140v35c0 62 -25 90 -71 90z" />
    <glyph glyph-name="uni0451" unicode="&#x451;" horiz-adv-x="456" 
d="M146 617c-34 0 -56 22 -56 56s22 55 56 55s56 -21 56 -55s-22 -56 -56 -56zM298 617c-34 0 -57 22 -57 56s23 55 57 55c33 0 56 -21 56 -55s-23 -56 -56 -56zM305 167h119c-10 -113 -81 -179 -197 -179c-115 0 -185 76 -185 204v149c0 127 70 201 186 201
c118 0 189 -74 189 -201v-118h-257v-31c0 -63 25 -91 69 -91c49 0 67 20 76 66zM229 432c-44 0 -69 -28 -69 -90v-35h140v35c0 62 -25 90 -71 90z" />
    <glyph glyph-name="uni0436" unicode="&#x436;" horiz-adv-x="655" 
d="M529 0l-117 213l-28 -30v-183h-113v183l-28 30l-117 -213h-131l174 304l-152 225h135l66 -115c17 -30 35 -63 53 -96v211h113v-210c18 33 36 66 53 95l66 115h135l-152 -225l173 -304h-130z" />
    <glyph glyph-name="uni0437" unicode="&#x437;" horiz-adv-x="427" 
d="M330 279c37 -19 72 -63 72 -120c0 -107 -74 -172 -192 -172c-117 0 -189 65 -195 171h113c4 -40 32 -63 82 -63c49 0 77 25 77 70c0 40 -26 62 -74 62h-62v86h61c39 0 62 23 62 62c0 37 -23 59 -64 59c-44 0 -69 -23 -72 -69h-113c6 111 72 175 182 175
c111 0 180 -61 180 -157c0 -54 -30 -86 -57 -104z" />
    <glyph glyph-name="uni0438" unicode="&#x438;" horiz-adv-x="474" 
d="M54 0v529h113v-178c0 -45 -1 -96 -1 -163l2 -1c9 29 46 133 67 189l66 153h119v-529h-113v156c0 49 1 128 5 187l-3 1c-5 -22 -45 -149 -69 -200l-66 -144h-120z" />
    <glyph glyph-name="uni0439" unicode="&#x439;" horiz-adv-x="474" 
d="M239 611c-71 0 -123 45 -126 122h79c1 -30 20 -47 46 -47c25 0 45 17 46 47h78c-3 -79 -54 -122 -123 -122zM54 0v529h113v-178c0 -45 -1 -96 -1 -163l2 -1c9 29 46 133 67 189l66 153h119v-529h-113v156c0 49 1 128 5 187l-3 1c-5 -22 -45 -149 -69 -200l-66 -144h-120z
" />
    <glyph glyph-name="uni045D" unicode="&#x45d;" horiz-adv-x="474" 
d="M134 741h103l74 -132h-85zM54 0v529h113v-178c0 -45 -1 -96 -1 -163l2 -1c9 29 46 133 67 189l66 153h119v-529h-113v156c0 49 1 128 5 187l-3 1c-5 -22 -45 -149 -69 -200l-66 -144h-120z" />
    <glyph glyph-name="uni043A" unicode="&#x43a;" horiz-adv-x="451" 
d="M322 0l-122 212l-29 -31v-181h-117v529h117v-212c18 33 36 65 52 93l70 119h138l-153 -224l178 -305h-134z" />
    <glyph glyph-name="uni045C" unicode="&#x45c;" horiz-adv-x="451" 
d="M343 741l-92 -132h-85l74 132h103zM322 0l-122 212l-29 -31v-181h-117v529h117v-212c18 33 36 65 52 93l70 119h138l-153 -224l178 -305h-134z" />
    <glyph glyph-name="uni043B" unicode="&#x43b;" horiz-adv-x="464" 
d="M-3 -9v114c49 0 60 41 67 114c7 63 16 204 19 310h327v-529h-117v420h-97c-2 -53 -7 -158 -16 -223c-15 -140 -73 -206 -183 -206z" />
    <glyph glyph-name="uni043C" unicode="&#x43c;" horiz-adv-x="565" 
d="M394 529h118v-529h-109v164c0 57 4 120 6 169l-6 2c-14 -51 -29 -100 -41 -139l-26 -69h-106l-26 69c-13 39 -27 88 -42 139l-6 -2c3 -49 7 -112 7 -169v-164h-109v529h117l67 -163c16 -42 31 -82 43 -125h3c12 43 27 83 44 125z" />
    <glyph glyph-name="uni043D" unicode="&#x43d;" horiz-adv-x="461" 
d="M289 529h118v-529h-118v214h-117v-214h-118v529h118v-206h117v206z" />
    <glyph glyph-name="uni043E" unicode="&#x43e;" horiz-adv-x="467" 
d="M233 -13c-119 0 -191 74 -191 206v143c0 132 72 206 191 206c120 0 192 -74 192 -206v-143c0 -132 -72 -206 -192 -206zM233 102c46 0 72 28 72 91v143c0 64 -26 91 -72 91c-45 0 -71 -27 -71 -91v-143c0 -63 26 -91 71 -91z" />
    <glyph glyph-name="uni043F" unicode="&#x43f;" horiz-adv-x="461" 
d="M407 529v-529h-118v420h-117v-420h-118v529h353z" />
    <glyph glyph-name="uni0440" unicode="&#x440;" horiz-adv-x="470" 
d="M259 541c102 0 170 -80 170 -207v-141c0 -127 -68 -206 -170 -206c-34 0 -66 13 -90 35v-202h-115v710h82l7 -49c26 33 71 60 116 60zM309 193v141c0 64 -25 95 -68 95c-44 0 -72 -32 -72 -95v-141c0 -60 26 -94 72 -94c44 0 68 30 68 94z" />
    <glyph glyph-name="uni0441" unicode="&#x441;" horiz-adv-x="440" 
d="M226 -12c-115 0 -184 73 -184 197v161c0 123 69 196 184 196c120 0 184 -73 188 -196h-119c-2 55 -25 83 -67 83c-43 0 -67 -28 -67 -83v-161c0 -56 24 -84 67 -84c45 0 67 28 70 84h119c-3 -124 -74 -197 -191 -197z" />
    <glyph glyph-name="uni0442" unicode="&#x442;" horiz-adv-x="364" 
d="M355 529v-112h-114v-417h-118v417h-115v112h347z" />
    <glyph glyph-name="uni0443" unicode="&#x443;" horiz-adv-x="434" 
d="M311 529h121l-164 -556c-26 -92 -67 -162 -151 -162h-61v114h37c37 0 50 25 63 69l17 60l-171 475h123l98 -305z" />
    <glyph glyph-name="uni045E" unicode="&#x45e;" horiz-adv-x="434" 
d="M218 613c-71 0 -123 45 -126 122h79c1 -30 20 -47 46 -47c25 0 45 17 46 47h78c-3 -79 -54 -122 -123 -122zM311 529h121l-164 -556c-26 -92 -67 -162 -151 -162h-61v114h37c37 0 50 25 63 69l17 60l-171 475h123l98 -305z" />
    <glyph glyph-name="uni0444" unicode="&#x444;" horiz-adv-x="628" 
d="M389 537c120 0 197 -74 197 -206v-125c0 -135 -77 -212 -197 -212h-18v-174h-114v174h-18c-120 0 -197 77 -197 212v125c0 132 76 206 197 206h18v187h114v-187h18zM239 109h18v313h-18c-47 0 -77 -28 -77 -91v-125c0 -67 30 -97 77 -97zM466 206v125c0 63 -30 91 -77 91
h-18v-313h18c47 0 77 30 77 97z" />
    <glyph glyph-name="uni0445" unicode="&#x445;" horiz-adv-x="423" 
d="M427 0h-133l-83 169l-82 -169h-133l142 266l-129 263h129l73 -162l73 162h130l-127 -263z" />
    <glyph glyph-name="hacy.001" horiz-adv-x="423" 
d="M427 0h-133l-83 169l-82 -169h-133l142 266l-129 263h129l73 -162l73 162h130l-127 -263z" />
    <glyph glyph-name="uni0447" unicode="&#x447;" horiz-adv-x="436" 
d="M272 529h111v-529h-111v177c-26 -14 -55 -18 -80 -18c-97 0 -165 62 -165 216v154h111v-154c0 -84 25 -106 66 -106c16 0 46 2 68 16v244z" />
    <glyph glyph-name="uni0446" unicode="&#x446;" horiz-adv-x="482" 
d="M354 -118v118h-300v529h118v-422h116v422h118v-422h61v-225h-113z" />
    <glyph glyph-name="uni0448" unicode="&#x448;" horiz-adv-x="679" 
d="M509 529h116v-529h-576v529h116v-420h114v420h116v-420h114v420z" />
    <glyph glyph-name="uni0449" unicode="&#x449;" horiz-adv-x="706" 
d="M631 107h60v-225h-112v118h-525v529h116v-420h114v420h116v-420h114v420h117v-422z" />
    <glyph glyph-name="uni045F" unicode="&#x45f;" horiz-adv-x="461" 
d="M407 529v-529h-121v-118h-109v118h-123v529h118v-420h117v420h118z" />
    <glyph glyph-name="uni044C" unicode="&#x44c;" horiz-adv-x="433" 
d="M247 354c103 0 175 -70 175 -175c0 -107 -72 -179 -175 -179h-193v529h118v-175h75zM232 106c44 0 71 27 71 73c0 45 -27 70 -71 70h-60v-143h60z" />
    <glyph glyph-name="uni044A" unicode="&#x44a;" horiz-adv-x="493" 
d="M307 354c103 0 175 -70 175 -175c0 -107 -72 -179 -175 -179h-194v420h-105v109h223v-175h76zM292 106c44 0 71 27 71 73c0 45 -27 70 -71 70h-61v-143h61z" />
    <glyph glyph-name="uni044B" unicode="&#x44b;" horiz-adv-x="651" 
d="M247 351c103 0 175 -70 175 -174c0 -106 -72 -177 -175 -177h-193v528h118v-177h75zM478 528h119v-528h-119v528zM232 106c44 0 71 26 71 72c0 43 -27 67 -71 67h-60v-139h60z" />
    <glyph glyph-name="uni0459" unicode="&#x459;" horiz-adv-x="671" 
d="M-3 -9v114c49 0 60 41 67 114c7 63 16 204 19 310h326v-178h76c103 0 175 -70 175 -174c0 -106 -72 -177 -175 -177h-192v420h-97c-2 -53 -8 -158 -16 -223c-15 -140 -73 -206 -183 -206zM409 106h61c44 0 71 26 71 72c0 43 -27 67 -71 67h-61v-139z" />
    <glyph glyph-name="uni045A" unicode="&#x45a;" horiz-adv-x="668" 
d="M482 337c103 0 175 -67 175 -166c0 -102 -72 -171 -175 -171h-193v228h-117v-228h-118v529h118v-192h117v192h117v-192h76zM467 106c44 0 71 24 71 66c0 37 -27 59 -71 59h-61v-125h61z" />
    <glyph glyph-name="uni0455" unicode="&#x455;" horiz-adv-x="425" 
d="M219 -14c-129 0 -196 84 -198 180h118c1 -36 21 -72 77 -72c43 0 68 21 68 53c0 94 -254 64 -254 244c0 94 69 151 177 151c120 0 175 -74 181 -173h-114c-2 42 -22 68 -67 68c-37 0 -60 -19 -60 -47c0 -85 255 -52 255 -243c0 -96 -68 -161 -183 -161z" />
    <glyph glyph-name="uni0454" unicode="&#x454;" horiz-adv-x="440" 
d="M298 177h119c-3 -119 -74 -189 -191 -189c-115 0 -184 73 -184 197v161c0 123 69 196 184 196c120 0 184 -70 188 -188h-119c-2 50 -25 75 -67 75c-43 0 -67 -28 -67 -83v-40h146v-78h-146v-43c0 -56 24 -84 67 -84c45 0 67 26 70 76z" />
    <glyph glyph-name="uni044D" unicode="&#x44d;" horiz-adv-x="440" 
d="M214 542c115 0 184 -73 184 -196v-161c0 -124 -69 -197 -184 -197c-117 0 -188 70 -191 189h119c3 -50 25 -76 70 -76c43 0 67 28 67 84v43h-146v78h146v40c0 55 -24 83 -67 83c-42 0 -65 -25 -67 -75h-119c4 118 68 188 188 188z" />
    <glyph glyph-name="uni0456" unicode="&#x456;" horiz-adv-x="226" 
d="M113 611c-40 0 -68 30 -68 69c0 40 28 69 68 69c39 0 69 -29 69 -69c0 -37 -30 -69 -69 -69zM54 0v529h118v-529h-118z" />
    <glyph glyph-name="uni0457" unicode="&#x457;" horiz-adv-x="250" 
d="M55 620c-32 0 -54 21 -54 54s22 54 54 54c33 0 54 -21 54 -54s-21 -54 -54 -54zM196 620c-33 0 -55 21 -55 54s22 54 55 54c32 0 53 -21 53 -54s-21 -54 -53 -54zM65 0v529h119v-529h-119z" />
    <glyph glyph-name="uni0458" unicode="&#x458;" horiz-adv-x="254" 
d="M131 610c-40 0 -68 30 -68 69c0 40 28 69 68 69c39 0 69 -29 69 -69c0 -37 -30 -69 -69 -69zM-12 -194v113c59 1 85 29 85 86v524h118v-517c0 -130 -70 -205 -203 -206z" />
    <glyph glyph-name="uni045B" unicode="&#x45b;" horiz-adv-x="471" 
d="M275 542c93 0 148 -73 148 -219v-323h-119v322c0 78 -21 107 -62 107c-44 0 -72 -34 -72 -98v-331h-117v602h-64v61h64v62h117v-62h93v-61h-93v-118c25 36 61 58 105 58z" />
    <glyph glyph-name="uni044E" unicode="&#x44e;" horiz-adv-x="648" 
d="M420 542c115 0 186 -74 186 -205v-143c0 -132 -71 -206 -186 -206c-116 0 -186 74 -186 206v20h-67v-214h-113v529h113v-207h67v15c0 131 70 205 186 205zM488 194v143c0 63 -24 90 -68 90c-45 0 -69 -27 -69 -90v-143c0 -63 24 -91 69 -91c44 0 68 28 68 91z" />
    <glyph glyph-name="uni044F" unicode="&#x44f;" horiz-adv-x="427" 
d="M207 529h171v-529h-113v171h-44l-82 -171h-132l105 190c-49 26 -88 76 -88 163c0 112 75 176 183 176zM265 269v154h-51c-50 0 -75 -27 -75 -74c0 -53 25 -80 74 -80h52z" />
    <glyph glyph-name="uni0452" unicode="&#x452;" horiz-adv-x="471" 
d="M275 542c93 0 148 -73 148 -219v-319c0 -126 -71 -200 -203 -201v113c58 1 84 28 84 81v325c0 78 -21 107 -62 107c-44 0 -72 -34 -72 -98v-331h-118v605h-63v61h63v59h118v-59h93v-61h-93v-120c25 35 60 57 105 57z" />
    <glyph glyph-name="uni0432.loclBGR" horiz-adv-x="456" 
d="M322 396c63 -29 104 -89 104 -187c0 -138 -79 -221 -202 -221c-114 0 -179 74 -179 212v336c0 126 70 201 179 201c112 0 175 -71 175 -185c0 -71 -27 -124 -77 -156zM223 623c-38 0 -62 -30 -62 -87v-114l35 4c57 6 87 45 87 113c0 54 -19 84 -60 84zM225 101
c52 0 83 32 83 108s-30 113 -95 109l-52 -4v-127c0 -58 21 -86 64 -86z" />
    <glyph glyph-name="uni0433.loclBGR" horiz-adv-x="424" 
d="M206 -14c-114 0 -183 64 -183 161c0 184 251 152 251 244c0 28 -20 44 -57 44c-41 0 -64 -22 -67 -65h-114c6 98 61 172 181 172c106 0 175 -56 175 -152c0 -182 -250 -152 -250 -243c0 -33 25 -50 67 -50c48 0 74 24 76 69h118c-3 -96 -69 -180 -197 -180z" />
    <glyph glyph-name="uni0434.loclBGR" horiz-adv-x="474" 
d="M337 529h83v-551c0 -103 -68 -172 -182 -172c-112 0 -178 68 -181 171h116c4 -38 25 -61 65 -61c39 0 62 24 62 62v73c-25 -17 -55 -27 -89 -27c-98 0 -169 80 -169 196v122c0 119 71 200 169 200c47 0 88 -17 118 -49zM230 136c45 0 70 28 70 84v124c0 56 -27 84 -70 84
c-45 0 -69 -28 -69 -86v-122c0 -56 24 -84 69 -84z" />
    <glyph glyph-name="uni0436.loclBGR" horiz-adv-x="650" 
d="M524 0l-115 218l-28 -29v-189h-112v189l-28 29l-115 -218h-131l171 309l-149 220h133l86 -143l33 -62v400h112v-400l33 61l86 144h134l-150 -221l171 -308h-131z" />
    <glyph glyph-name="uni0437.loclBGR" horiz-adv-x="455" 
d="M319 191c72 -29 102 -87 102 -174c0 -131 -76 -210 -206 -210c-120 0 -193 71 -197 200h113c3 -61 34 -88 87 -88c55 0 84 37 84 104c0 70 -34 109 -94 109h-59v105h48c57 0 89 37 89 106c0 57 -27 90 -72 90c-43 0 -69 -30 -75 -84h-113c6 123 77 193 192 193
s183 -71 183 -192c0 -71 -16 -122 -82 -159z" />
    <glyph glyph-name="uni0438.loclBGR" horiz-adv-x="473" 
d="M301 529h118v-529h-80l-10 57c-27 -45 -70 -70 -128 -70c-95 0 -152 70 -152 214v328h118v-325c0 -75 21 -104 62 -104c44 0 72 34 72 98v331z" />
    <glyph glyph-name="uni0439.loclBGR" horiz-adv-x="473" 
d="M231 611c-71 0 -123 45 -126 122h79c1 -30 20 -47 46 -47c25 0 45 17 46 47h78c-3 -79 -54 -122 -123 -122zM301 529h118v-529h-80l-10 57c-27 -45 -70 -70 -128 -70c-95 0 -152 70 -152 214v328h118v-325c0 -75 21 -104 62 -104c44 0 72 34 72 98v331z" />
    <glyph glyph-name="uni045D.loclBGR" horiz-adv-x="478" 
d="M274 609h-85l-92 132h103zM306 529h118v-529h-80l-10 57c-27 -45 -70 -70 -128 -70c-95 0 -152 70 -152 214v328h118v-325c0 -75 21 -104 62 -104c44 0 72 34 72 98v331z" />
    <glyph glyph-name="uni043A.loclBGR" horiz-adv-x="449" 
d="M321 0l-119 226l-31 -33v-193h-117v725h117v-381l122 185h137l-150 -211l174 -318h-133z" />
    <glyph glyph-name="uni043B.loclBGR" horiz-adv-x="422" 
d="M295 0l-44 199c-13 63 -29 149 -37 191h-6c-7 -42 -23 -128 -37 -191l-44 -199h-125l143 529h132l143 -529h-125z" />
    <glyph glyph-name="uni043F.loclBGR" horiz-adv-x="473" 
d="M272 542c95 0 152 -70 152 -214v-328h-118v325c0 75 -21 104 -62 104c-44 0 -72 -34 -72 -98v-331h-118v529h80l10 -57c27 45 70 70 128 70z" />
    <glyph glyph-name="uni0442.loclBGR" horiz-adv-x="712" 
d="M515 542c92 0 148 -72 148 -215v-327h-117v326c0 76 -21 103 -59 103c-42 0 -70 -34 -70 -98v-331h-117v326c0 76 -21 103 -60 103c-41 0 -69 -34 -69 -98v-331h-117v529h79l10 -56c26 44 69 69 125 69c53 0 95 -24 120 -71c27 46 70 71 127 71z" />
    <glyph glyph-name="uni0446.loclBGR" horiz-adv-x="494" 
d="M367 -118v118c-19 7 -37 32 -41 58c-25 -46 -67 -71 -125 -71c-96 0 -152 70 -152 214v328h118v-326c0 -74 20 -103 61 -103c45 0 73 34 73 98v331h117v-364c0 -41 11 -67 61 -67v-216h-112z" />
    <glyph glyph-name="uni0448.loclBGR" horiz-adv-x="712" 
d="M541 529h117v-529h-79l-10 56c-26 -44 -69 -69 -125 -69c-53 0 -95 24 -120 71c-27 -46 -70 -71 -127 -71c-92 0 -148 72 -148 215v327h117v-326c0 -76 21 -103 59 -103c42 0 70 34 70 98v331h117v-326c0 -76 21 -103 60 -103c41 0 69 34 69 98v331z" />
    <glyph glyph-name="uni0449.loclBGR" horiz-adv-x="736" 
d="M660 165c0 -41 10 -67 62 -67v-216h-113v118c-19 7 -37 32 -41 59c-24 -47 -64 -72 -122 -72c-54 0 -96 24 -121 73c-26 -46 -68 -73 -128 -73c-92 0 -148 72 -148 215v327h117v-326c0 -76 20 -103 58 -103c44 0 72 34 72 98v331h117v-326c0 -76 21 -103 60 -103
c43 0 70 34 70 98v331h117v-364z" />
    <glyph glyph-name="uni044C.loclBGR" horiz-adv-x="432" 
d="M252 371c101 0 169 -74 169 -187c0 -120 -76 -198 -188 -198c-115 0 -184 69 -184 182v361h117v-190c23 20 53 32 86 32zM233 97c44 0 68 30 68 87c0 51 -24 78 -67 78c-44 0 -68 -29 -68 -79c0 -58 24 -86 67 -86z" />
    <glyph glyph-name="uni044A.loclBGR" horiz-adv-x="492" 
d="M311 371c102 0 170 -74 170 -187c0 -120 -76 -198 -188 -198c-115 0 -185 69 -185 182v252h-105v109h222v-191c23 21 53 33 86 33zM293 97c44 0 68 30 68 87c0 51 -24 78 -68 78c-43 0 -68 -29 -68 -79c0 -58 24 -86 68 -86z" />
    <glyph glyph-name="uni044E.loclBGR" horiz-adv-x="643" 
d="M415 540c116 0 186 -73 186 -205v-141c0 -132 -70 -206 -186 -206s-186 74 -186 206v20h-67v-214h-113v724h113v-402h67v13c0 132 70 205 186 205zM483 194v141c0 64 -24 91 -68 91s-69 -27 -69 -91v-141c0 -63 25 -91 69 -91s68 28 68 91z" />
    <glyph glyph-name="zero" unicode="0" horiz-adv-x="480" 
d="M239 -10c-120 0 -193 77 -193 204v310c0 128 73 206 193 206c122 0 195 -78 195 -206v-310c0 -127 -73 -204 -195 -204zM239 100c53 0 82 33 82 94v310c0 62 -29 96 -82 96c-52 0 -80 -34 -80 -96v-310c0 -61 28 -94 80 -94z" />
    <glyph glyph-name="one" unicode="1" horiz-adv-x="307" 
d="M162 700h79v-699h-117v540l-100 -63v130z" />
    <glyph glyph-name="two" unicode="2" horiz-adv-x="430" 
d="M25 0v76c0 226 255 324 255 454c0 37 -21 71 -67 71c-42 0 -68 -30 -70 -84h-112c6 126 72 195 181 195c125 0 185 -89 185 -177c0 -184 -249 -297 -249 -426h253v-109h-376z" />
    <glyph glyph-name="three" unicode="3" horiz-adv-x="429" 
d="M255 429c87 -9 136 -89 136 -180v-45c0 -141 -58 -216 -189 -216c-117 0 -185 73 -189 203h116c4 -62 27 -88 71 -88c54 0 73 32 73 104v38c0 72 -30 93 -83 93h-65v79l107 176h-195v107h338v-78z" />
    <glyph glyph-name="four" unicode="4" horiz-adv-x="447" 
d="M445 273v-107h-75v-166h-115v166h-248v63l136 471h117l-125 -427h122l16 239h97v-239h75z" />
    <glyph glyph-name="five" unicode="5" horiz-adv-x="446" 
d="M251 480c96 0 163 -74 163 -205v-72c0 -140 -72 -215 -183 -215s-181 74 -184 196h119c3 -59 25 -81 65 -81c41 0 64 23 64 98v75c0 69 -21 92 -59 92c-36 0 -58 -18 -67 -61h-115v393h337v-105h-220v-139c22 14 50 24 80 24z" />
    <glyph glyph-name="six" unicode="6" horiz-adv-x="454" 
d="M251 458c98 0 168 -73 168 -176v-105c0 -114 -77 -189 -187 -189c-109 0 -186 75 -186 189v347c0 114 75 188 185 188c107 0 180 -73 184 -186h-118c-4 45 -27 71 -66 71c-40 0 -66 -23 -66 -71v-97c22 18 54 29 86 29zM300 178v96c0 48 -27 76 -68 76s-67 -28 -67 -76
v-96c0 -48 27 -75 67 -75c41 0 68 27 68 75z" />
    <glyph glyph-name="seven" unicode="7" horiz-adv-x="379" 
d="M-7 700h366v-85l-188 -615h-123l178 592h-233v108z" />
    <glyph glyph-name="eight" unicode="8" horiz-adv-x="465" 
d="M355 367c45 -31 72 -86 72 -148v-28c0 -127 -77 -203 -194 -203c-118 0 -194 76 -194 203v28c0 62 27 117 71 147c-37 34 -59 85 -59 138v18c0 115 71 190 182 190c110 0 182 -75 182 -190v-18c0 -54 -23 -103 -60 -137zM166 518v-18c0 -56 24 -84 67 -84
c42 0 66 28 66 84v18c0 55 -24 80 -66 80c-43 0 -67 -25 -67 -80zM309 191v27c0 59 -27 88 -76 88c-50 0 -77 -29 -77 -88v-27c0 -59 27 -87 77 -87c49 0 76 28 76 87z" />
    <glyph glyph-name="nine" unicode="9" horiz-adv-x="454" 
d="M222 712c109 0 186 -75 186 -189v-347c0 -114 -75 -188 -185 -188c-107 0 -180 73 -184 186h118c4 -45 27 -71 66 -71c40 0 66 23 66 71v97c-22 -18 -54 -29 -86 -29c-98 0 -168 73 -168 176v105c0 114 77 189 187 189zM222 350c41 0 67 28 67 76v96c0 48 -27 75 -67 75
c-41 0 -68 -27 -68 -75v-96c0 -48 27 -76 68 -76z" />
    <glyph glyph-name="fraction" unicode="&#x2044;" horiz-adv-x="568" 
d="M9 0l458 700h92l-458 -700h-92z" />
    <glyph glyph-name="asterisk" unicode="*" horiz-adv-x="313" 
d="M111 480l-62 45l46 62l-74 24l24 73l73 -24v77h77v-77l73 24l24 -73l-74 -23l46 -63l-62 -45l-46 62z" />
    <glyph glyph-name="backslash" unicode="\" horiz-adv-x="505" 
d="M143 815l321 -936h-103l-320 936h102z" />
    <glyph glyph-name="periodcentered" unicode="&#xb7;" horiz-adv-x="200" 
d="M100 189c-41 0 -68 28 -68 69s27 68 68 68s69 -27 69 -68s-28 -69 -69 -69z" />
    <glyph glyph-name="bullet" unicode="&#x2022;" horiz-adv-x="225" 
d="M112 159c-55 0 -92 37 -92 92c0 54 37 91 92 91c54 0 90 -37 90 -91c0 -55 -36 -92 -90 -92z" />
    <glyph glyph-name="colon" unicode=":" horiz-adv-x="186" 
d="M99 328c-41 0 -68 28 -68 69s27 68 68 68s69 -27 69 -68s-28 -69 -69 -69zM99 -12c-41 0 -68 28 -68 69s27 68 68 68s69 -27 69 -68s-28 -69 -69 -69z" />
    <glyph glyph-name="comma" unicode="," horiz-adv-x="181" 
d="M44 110h113l-63 -250h-70z" />
    <glyph glyph-name="ellipsis" unicode="&#x2026;" horiz-adv-x="566" 
d="M100 -10c-41 0 -68 27 -68 68s27 69 68 69s69 -28 69 -69s-28 -68 -69 -68zM283 -10c-41 0 -68 27 -68 68s27 69 68 69s68 -28 68 -69s-27 -68 -68 -68zM466 -10c-41 0 -68 27 -68 68s27 69 68 69s68 -28 68 -69s-27 -68 -68 -68z" />
    <glyph glyph-name="exclam" unicode="!" horiz-adv-x="266" 
d="M73 181v519h119v-519h-119zM133 -12c-41 0 -68 28 -68 69s27 68 68 68s68 -27 68 -68s-27 -69 -68 -69z" />
    <glyph glyph-name="exclamdown" unicode="&#xa1;" horiz-adv-x="266" 
d="M133 540c41 0 68 -27 68 -68s-27 -68 -68 -68s-68 27 -68 68s27 68 68 68zM73 348h119v-528h-119v528z" />
    <glyph glyph-name="numbersign" unicode="#" horiz-adv-x="646" 
d="M84 0l40 174h-116l20 87h115l38 167h-115l20 87h115l43 185h107l-42 -185h105l43 185h108l-42 -185h115l-20 -87h-115l-39 -167h116l-20 -87h-115l-40 -174h-108l40 174h-106l-40 -174h-107zM250 261h106l38 167h-105z" />
    <glyph glyph-name="period" unicode="." horiz-adv-x="200" 
d="M100 -12c-41 0 -68 28 -68 69s27 68 68 68s69 -27 69 -68s-28 -69 -69 -69z" />
    <glyph glyph-name="question" unicode="?" horiz-adv-x="403" 
d="M127 181v34c0 188 135 199 135 314c0 39 -19 75 -70 75c-48 0 -72 -34 -74 -91h-114c7 123 75 200 187 200c109 0 188 -72 188 -183c0 -154 -136 -174 -136 -314v-35h-116zM186 -12c-41 0 -68 28 -68 69s27 68 68 68s69 -27 69 -68s-28 -69 -69 -69z" />
    <glyph glyph-name="questiondown" unicode="&#xbf;" horiz-adv-x="403" 
d="M209 538c41 0 68 -27 68 -68s-27 -68 -68 -68s-68 27 -68 68s27 68 68 68zM269 346v-35c0 -187 -136 -198 -136 -313c0 -39 20 -76 70 -76c48 0 72 35 75 92h114c-8 -123 -75 -200 -188 -200c-109 0 -187 71 -187 183c0 153 135 174 135 314v35h117z" />
    <glyph glyph-name="quotedbl" unicode="&#x22;" horiz-adv-x="313" 
d="M42 700h112l-62 -250h-71zM187 700h113l-63 -250h-70z" />
    <glyph glyph-name="quotesingle" unicode="'" horiz-adv-x="168" 
d="M42 700h112l-62 -250h-71z" />
    <glyph glyph-name="semicolon" unicode=";" horiz-adv-x="190" 
d="M98 330c-41 0 -69 28 -69 68c0 41 28 69 69 69s68 -28 68 -69c0 -40 -27 -68 -68 -68zM44 110h113l-63 -250h-70z" />
    <glyph glyph-name="slash" unicode="/" horiz-adv-x="433" 
d="M326 815h102l-320 -936h-103z" />
    <glyph glyph-name="underscore" unicode="_" horiz-adv-x="379" 
d="M17 -10h345v-113h-345v113z" />
    <glyph glyph-name="braceleft" unicode="{" horiz-adv-x="339" 
d="M222 495c0 -62 -22 -110 -62 -144c40 -34 62 -82 62 -144v-141c0 -45 27 -74 76 -74v-112c-120 0 -192 75 -192 200v142c0 44 -23 70 -64 72v114c41 2 64 27 64 72v140c0 125 72 200 192 200v-112c-49 0 -76 -29 -76 -74v-139z" />
    <glyph glyph-name="braceright" unicode="}" horiz-adv-x="339" 
d="M233 478c0 -44 23 -70 64 -72v-114c-41 -2 -64 -27 -64 -72v-140c0 -125 -72 -200 -192 -200v112c49 0 76 29 76 74v139c0 62 22 110 62 144c-40 34 -62 82 -62 144v141c0 45 -27 74 -76 74v112c120 0 192 -75 192 -200v-142z" />
    <glyph glyph-name="bracketleft" unicode="[" horiz-adv-x="311" 
d="M269 711h-86v-722h86v-109h-203v940h203v-109z" />
    <glyph glyph-name="bracketright" unicode="]" horiz-adv-x="311" 
d="M42 -11h86v722h-86v109h203v-940h-203v109z" />
    <glyph glyph-name="parenleft" unicode="(" horiz-adv-x="302" 
d="M260 -123c-124 1 -194 76 -194 201v541c0 125 70 200 194 201v-110c-50 -1 -76 -30 -76 -84v-555c0 -54 26 -82 76 -84v-110z" />
    <glyph glyph-name="parenright" unicode=")" horiz-adv-x="302" 
d="M42 -123v110c50 2 76 30 76 84v555c0 54 -26 83 -76 84v110c124 -1 194 -76 194 -201v-541c0 -125 -70 -200 -194 -201z" />
    <glyph glyph-name="emdash" unicode="&#x2014;" horiz-adv-x="550" 
d="M34 308h483v-102h-483v102z" />
    <glyph glyph-name="endash" unicode="&#x2013;" horiz-adv-x="415" 
d="M34 206v102h347v-102h-347z" />
    <glyph glyph-name="hyphen" unicode="-" horiz-adv-x="315" 
d="M34 206v102h247v-102h-247z" />
    <glyph glyph-name="emdash.case" horiz-adv-x="550" 
d="M34 408h483v-102h-483v102z" />
    <glyph glyph-name="endash.case" horiz-adv-x="415" 
d="M34 306v102h347v-102h-347z" />
    <glyph glyph-name="hyphen.case" horiz-adv-x="315" 
d="M34 306v102h247v-102h-247z" />
    <glyph glyph-name="guillemotleft" unicode="&#xab;" horiz-adv-x="488" 
d="M147 86l-113 151v40l113 151h116l-127 -171l127 -171h-116zM338 86l-113 151v40l113 151h116l-127 -171l127 -171h-116z" />
    <glyph glyph-name="guillemotright" unicode="&#xbb;" horiz-adv-x="488" 
d="M150 86h-116l127 171l-127 171h116l113 -151v-40zM341 86h-116l127 171l-127 171h116l113 -151v-40z" />
    <glyph glyph-name="guilsinglleft" unicode="&#x2039;" horiz-adv-x="297" 
d="M147 86l-113 151v40l113 151h116l-127 -171l127 -171h-116z" />
    <glyph glyph-name="guilsinglright" unicode="&#x203a;" horiz-adv-x="297" 
d="M150 86h-116l127 171l-127 171h116l113 -151v-40z" />
    <glyph glyph-name="quotedblbase" unicode="&#x201e;" horiz-adv-x="181" 
d="M44 110h113l-63 -250h-70z" />
    <glyph glyph-name="quotedblleft" unicode="&#x201c;" horiz-adv-x="313" 
d="M126 450h-113l63 250h70zM272 450h-113l63 250h70z" />
    <glyph glyph-name="quotedblright" unicode="&#x201d;" horiz-adv-x="313" 
d="M42 700h112l-62 -250h-71zM187 700h113l-63 -250h-70z" />
    <glyph glyph-name="quoteleft" unicode="&#x2018;" horiz-adv-x="168" 
d="M126 450h-113l63 250h70z" />
    <glyph glyph-name="quoteright" unicode="&#x2019;" horiz-adv-x="168" 
d="M42 702h112l-62 -250h-71z" />
    <glyph glyph-name="quotesinglbase" unicode="&#x201a;" horiz-adv-x="181" 
d="M44 110h113l-63 -250h-70z" />
    <glyph glyph-name="guillemotleft.case" horiz-adv-x="488" 
d="M147 146l-113 151v40l113 151h116l-127 -171l127 -171h-116zM338 146l-113 151v40l113 151h116l-127 -171l127 -171h-116z" />
    <glyph glyph-name="guillemotright.case" horiz-adv-x="488" 
d="M150 146h-116l127 171l-127 171h116l113 -151v-40zM341 146h-116l127 171l-127 171h116l113 -151v-40z" />
    <glyph glyph-name="guilsinglleft.case" horiz-adv-x="297" 
d="M147 146l-113 151v40l113 151h116l-127 -171l127 -171h-116z" />
    <glyph glyph-name="guilsinglright.case" horiz-adv-x="297" 
d="M150 146h-116l127 171l-127 171h116l113 -151v-40z" />
    <glyph glyph-name="space" unicode=" " horiz-adv-x="207" 
 />
    <glyph glyph-name="cent" unicode="&#xa2;" horiz-adv-x="438" 
d="M416 185c-3 -107 -56 -176 -146 -193v-67h-92v68c-86 17 -136 86 -136 192v160c0 105 50 173 136 190v66h92v-65c91 -16 140 -84 143 -191h-119c-2 55 -25 82 -67 82s-66 -27 -66 -82v-160c0 -56 24 -84 66 -84c45 0 68 28 70 84h119z" />
    <glyph glyph-name="currency" unicode="&#xa4;" horiz-adv-x="465" 
d="M100 71l-68 49l52 71c-14 25 -21 58 -21 92v77c0 34 7 66 20 92l-51 70l68 50l43 -59c24 14 56 23 89 23c34 0 66 -9 91 -23l42 59l68 -50l-51 -70c13 -26 20 -57 20 -92v-77c0 -34 -7 -67 -21 -92l52 -71l-68 -49l-44 59c-24 -14 -56 -22 -89 -22c-32 0 -64 8 -88 22z
M232 212c38 0 60 23 60 72v75c0 50 -22 72 -60 72c-37 0 -59 -22 -59 -72v-75c0 -49 22 -72 59 -72z" />
    <glyph glyph-name="dollar" unicode="$" horiz-adv-x="472" 
d="M446 183c0 -96 -58 -174 -162 -193v-75h-102v76c-99 18 -159 91 -160 207h126c1 -63 34 -92 87 -92c56 0 83 33 83 78c0 127 -282 137 -282 348c0 89 54 158 146 177v76h102v-76c95 -18 151 -90 152 -197h-126c-1 56 -29 83 -76 83c-46 0 -73 -26 -73 -66
c0 -122 285 -126 285 -346z" />
    <glyph glyph-name="Euro" unicode="&#x20ac;" horiz-adv-x="562" 
d="M416 208h123c-5 -142 -84 -220 -219 -220c-131 0 -210 78 -210 222v50h-80v68h80v50h-80v69h80v43c0 145 79 224 209 224c134 0 211 -79 217 -222h-123c-5 72 -34 103 -94 103c-51 0 -82 -33 -82 -105v-43h127v-69h-127v-50h127v-68h-127v-50c0 -70 31 -103 83 -103
c61 0 91 31 96 101z" />
    <glyph glyph-name="sterling" unicode="&#xa3;" horiz-adv-x="482" 
d="M189 113h262v-113h-424v102c43 5 59 33 59 85v104h-60v104h60v124c0 116 71 193 177 193c105 0 177 -74 184 -202h-119c-6 55 -28 83 -66 83c-34 0 -57 -24 -57 -73v-125h157v-104h-157v-103c0 -31 -6 -56 -16 -75z" />
    <glyph glyph-name="yen" unicode="&#xa5;" horiz-adv-x="460" 
d="M459 700l-142 -409h132v-72h-157v-61h157v-72h-157v-86h-123v86h-158v72h158v61h-158v72h133l-143 409h128l67 -212c9 -26 24 -77 33 -111h3c9 34 24 85 33 113l66 210h128z" />
    <glyph glyph-name="plus" unicode="+" horiz-adv-x="471" 
d="M430 364v-108h-140v-144h-109v144h-140v108h140v144h109v-144h140z" />
    <glyph glyph-name="minus" unicode="&#x2212;" horiz-adv-x="471" 
d="M41 256v108h389v-108h-389z" />
    <glyph glyph-name="multiply" unicode="&#xd7;" horiz-adv-x="471" 
d="M114 100l-77 77l122 122l-121 120l76 78l122 -122l121 122l77 -78l-121 -120l121 -122l-77 -77l-121 122z" />
    <glyph glyph-name="divide" unicode="&#xf7;" horiz-adv-x="471" 
d="M237 396c-39 0 -65 26 -65 65s26 65 65 65s65 -26 65 -65s-26 -65 -65 -65zM41 253v101h389v-101h-389zM237 75c-39 0 -65 26 -65 65s26 65 65 65s65 -26 65 -65s-26 -65 -65 -65z" />
    <glyph glyph-name="equal" unicode="=" horiz-adv-x="471" 
d="M41 350v107h389v-107h-389zM41 153v106h389v-106h-389z" />
    <glyph glyph-name="notequal" unicode="&#x2260;" horiz-adv-x="475" 
d="M432 347h-129l-31 -71h160v-109h-207l-29 -66h-101l29 66h-80v109h127l31 71h-158v109h206l29 67h101l-29 -67h81v-109z" />
    <glyph glyph-name="greater" unicode="&#x3e;" horiz-adv-x="441" 
d="M41 492l359 -136v-114l-359 -137v110l238 84l-238 83v110z" />
    <glyph glyph-name="less" unicode="&#x3c;" horiz-adv-x="441" 
d="M400 492v-110l-238 -83l238 -84v-110l-359 137v114z" />
    <glyph glyph-name="greaterequal" unicode="&#x2265;" horiz-adv-x="441" 
d="M41 576l359 -137v-114l-359 -137v110l238 84l-238 84v110zM41 58v103h359v-103h-359z" />
    <glyph glyph-name="lessequal" unicode="&#x2264;" horiz-adv-x="441" 
d="M400 576v-110l-238 -84l238 -84v-110l-359 137v114zM41 58v103h359v-103h-359z" />
    <glyph glyph-name="plusminus" unicode="&#xb1;" horiz-adv-x="475" 
d="M292 428h140v-106h-140v-130h-109v130h-139v106h139v130h109v-130zM44 45v101h388v-101h-388z" />
    <glyph glyph-name="approxequal" unicode="&#x2248;" horiz-adv-x="475" 
d="M383 449l57 -80c-31 -38 -66 -52 -105 -52c-70 0 -128 38 -184 38c-24 0 -45 -12 -58 -28l-57 81c31 37 66 51 104 51c70 0 129 -39 185 -39c23 0 44 13 58 29zM383 273l57 -80c-31 -38 -66 -52 -105 -52c-70 0 -128 38 -184 38c-24 0 -45 -13 -58 -29l-57 81
c31 38 66 51 104 51c70 0 129 -38 185 -38c23 0 44 13 58 29z" />
    <glyph glyph-name="asciitilde" unicode="~" horiz-adv-x="475" 
d="M382 374l63 -74c-32 -48 -69 -66 -110 -66c-69 0 -132 47 -182 47c-26 0 -44 -12 -61 -37l-60 73c32 49 68 66 109 66c67 0 131 -47 181 -47c25 0 44 12 60 38z" />
    <glyph glyph-name="logicalnot" unicode="&#xac;" horiz-adv-x="475" 
d="M441 364v-177h-107v69h-290v108h397z" />
    <glyph glyph-name="emptyset" unicode="&#x2205;" horiz-adv-x="791" 
d="M748 733l-93 -124c59 -63 93 -152 93 -259c0 -218 -141 -361 -353 -361c-66 0 -125 14 -175 39l-46 -61h-130l92 123c-60 63 -94 153 -94 260c0 218 141 361 353 361c67 0 126 -14 177 -40l46 62h130zM144 350c0 -70 20 -130 56 -175l310 414c-34 15 -72 24 -115 24
c-151 0 -251 -105 -251 -263zM645 350c0 70 -19 129 -54 174l-309 -413c33 -16 71 -24 113 -24c150 0 250 106 250 263z" />
    <glyph glyph-name="infinity" unicode="&#x221e;" horiz-adv-x="624" 
d="M437 414c81 0 146 -64 146 -162c0 -97 -62 -160 -144 -160c-55 0 -98 28 -127 70c-29 -42 -72 -70 -127 -70c-81 0 -143 63 -143 160c0 98 64 162 145 162c53 0 95 -26 125 -63c30 37 72 63 125 63zM195 195c28 0 44 23 58 59c-14 35 -30 57 -58 57
c-27 0 -48 -19 -48 -58c0 -38 21 -58 48 -58zM430 195c27 0 48 20 48 58c0 39 -21 58 -48 58c-28 0 -44 -22 -59 -57c15 -36 30 -59 59 -59z" />
    <glyph glyph-name="integral" unicode="&#x222b;" horiz-adv-x="337" 
d="M28 -191v113c57 1 81 28 81 73v515c0 127 69 201 200 201v-113c-56 0 -81 -27 -81 -73v-515c0 -126 -69 -200 -200 -201z" />
    <glyph glyph-name="product" unicode="&#x220f;" horiz-adv-x="517" 
d="M66 -100v800h386v-800h-121v683h-144v-683h-121z" />
    <glyph glyph-name="summation" unicode="&#x2211;" horiz-adv-x="381" 
d="M32 -4v98l148 256l-148 256v98h317v-110h-184l115 -208v-72l-115 -208h184v-110h-317z" />
    <glyph glyph-name="radical" unicode="&#x221a;" horiz-adv-x="505" 
d="M493 790l-152 -790h-161l-85 395h-85v105h180l70 -395l118 685h115z" />
    <glyph glyph-name="partialdiff" unicode="&#x2202;" horiz-adv-x="464" 
d="M185 738c126 -37 236 -140 238 -360v-184c0 -132 -72 -206 -191 -206s-190 74 -190 206v107c0 132 68 205 179 205c26 0 50 -6 72 -19c-24 80 -76 132 -150 158zM303 194v107c0 63 -26 90 -71 90s-70 -27 -70 -90v-107c0 -63 25 -91 70 -91s71 28 71 91z" />
    <glyph glyph-name="percent" unicode="%" horiz-adv-x="593" 
d="M111 388c-63 0 -105 38 -105 109v104c0 71 42 110 105 110s105 -39 105 -110v-104c0 -71 -42 -109 -105 -109zM17 0l476 700h82l-476 -700h-82zM111 453c21 0 32 11 32 43v106c0 33 -11 44 -32 44s-33 -11 -33 -44v-106c0 -32 12 -43 33 -43zM468 -9
c-63 0 -105 38 -105 110v103c0 72 42 111 105 111s105 -39 105 -111v-103c0 -72 -42 -110 -105 -110zM468 56c21 0 32 11 32 43v107c0 32 -11 43 -32 43s-33 -11 -33 -43v-107c0 -32 12 -43 33 -43z" />
    <glyph glyph-name="perthousand" unicode="&#x2030;" horiz-adv-x="834" 
d="M126 388c-63 0 -105 38 -105 109v104c0 71 42 110 105 110s105 -39 105 -110v-104c0 -71 -42 -109 -105 -109zM13 0l483 700h82l-483 -700h-82zM126 453c21 0 32 11 32 43v106c0 33 -11 44 -32 44s-32 -11 -32 -44v-106c0 -32 11 -43 32 -43zM453 -9
c-63 0 -105 38 -105 110v103c0 72 42 111 105 111c62 0 104 -39 104 -111v-103c0 -72 -42 -110 -104 -110zM711 -9c-64 0 -106 38 -106 110v103c0 72 42 111 106 111c62 0 104 -39 104 -111v-103c0 -72 -42 -110 -104 -110zM453 56c21 0 32 11 32 43v107c0 32 -11 43 -32 43
s-33 -11 -33 -43v-107c0 -32 12 -43 33 -43zM711 56c20 0 31 11 31 43v107c0 32 -11 43 -31 43c-22 0 -33 -11 -33 -43v-107c0 -32 11 -43 33 -43z" />
    <glyph glyph-name="lozenge" unicode="&#x25ca;" horiz-adv-x="474" 
d="M174 0l-132 334v34l132 332h127l131 -332v-34l-131 -334h-127zM237 121l84 230l-84 228l-84 -228z" />
    <glyph glyph-name="at" unicode="@" horiz-adv-x="818" 
d="M416 728c229 0 360 -119 360 -329v-108c0 -146 -91 -199 -169 -199c-61 0 -89 30 -106 64c-17 -34 -50 -66 -111 -66c-81 0 -133 53 -133 153v118c0 108 56 157 127 157c45 0 72 -20 91 -52l7 38h71v-248c0 -45 9 -74 54 -74c49 0 75 38 75 109v108
c0 157 -92 238 -265 238c-182 0 -281 -90 -281 -258v-115c0 -191 101 -294 290 -294c84 0 154 19 207 46l47 -71c-58 -40 -138 -65 -248 -65c-249 0 -390 139 -390 384v115c0 223 141 349 374 349zM403 181c33 0 55 25 55 71v106c0 40 -19 69 -54 69c-31 0 -50 -21 -50 -63
v-118c0 -43 18 -65 49 -65z" />
    <glyph glyph-name="ampersand" unicode="&#x26;" horiz-adv-x="597" 
d="M560 0h-122c-12 18 -24 36 -36 53c-43 -41 -96 -67 -157 -67c-91 0 -179 61 -179 178c0 91 53 156 109 211c-43 69 -70 127 -70 179c0 76 48 160 157 160c112 0 157 -80 157 -160c0 -83 -52 -142 -107 -196c25 -34 54 -75 89 -125c10 22 17 42 21 58h110
c-13 -52 -35 -107 -64 -155c28 -41 59 -86 92 -136zM211 550c0 -27 13 -57 41 -102c35 34 60 67 60 104c0 28 -14 60 -50 60c-27 0 -51 -19 -51 -62zM251 96c33 0 63 19 89 46c-37 52 -72 99 -103 143c-33 -35 -56 -70 -56 -112c0 -48 30 -77 70 -77z" />
    <glyph glyph-name="paragraph" unicode="&#xb6;" horiz-adv-x="615" 
d="M549 704v-795h-119v683h-104v-683h-119v470c-98 0 -165 62 -165 162c0 101 67 163 165 163h342z" />
    <glyph glyph-name="section" unicode="&#xa7;" horiz-adv-x="428" 
d="M346 216c30 -26 51 -62 51 -110c0 -98 -67 -162 -180 -162c-127 0 -190 84 -192 179h117c2 -36 20 -71 72 -71c42 0 65 21 65 55c0 91 -257 69 -257 250c0 53 23 95 67 122c-32 27 -52 62 -52 112c0 91 68 148 171 148c116 0 170 -72 176 -172h-114c-2 42 -20 66 -62 66
c-36 0 -55 -19 -55 -44c0 -87 249 -61 249 -256c0 -49 -19 -89 -56 -117zM245 282c25 6 39 25 39 48c0 39 -39 61 -87 81c-33 -1 -58 -21 -58 -51c0 -37 40 -56 106 -78z" />
    <glyph glyph-name="copyright" unicode="&#xa9;" horiz-adv-x="684" 
d="M342 -7c-186 0 -296 120 -296 324v76c0 202 110 321 296 321s296 -119 296 -321v-76c0 -204 -110 -324 -296 -324zM342 67c141 0 216 87 216 250v76c0 161 -75 246 -216 246s-216 -85 -216 -246v-76c0 -163 75 -250 216 -250zM340 150c-80 0 -129 52 -129 141v123
c0 88 49 140 129 140c84 0 130 -52 132 -140h-83c-1 40 -18 59 -47 59c-30 0 -48 -19 -48 -59v-123c0 -39 18 -59 48 -59c31 0 48 20 50 59h83c-2 -89 -52 -141 -135 -141z" />
    <glyph glyph-name="registered" unicode="&#xae;" horiz-adv-x="456" 
d="M231 714c114 0 181 -68 181 -191v-59c0 -128 -67 -199 -181 -199c-115 0 -182 71 -182 199v59c0 123 67 191 182 191zM369 463v59c0 101 -49 151 -138 151c-90 0 -139 -50 -139 -151v-59c0 -106 49 -159 139 -159c89 0 138 53 138 159zM310 533c0 -34 -14 -59 -38 -72
l49 -92h-50l-42 84h-20v-84h-46v244h70c49 0 77 -29 77 -80zM209 569v-73h23c21 0 32 13 32 37s-11 36 -32 36h-23z" />
    <glyph glyph-name="trademark" unicode="&#x2122;" horiz-adv-x="474" 
d="M20 646v54h166v-54h-54v-218h-57v218h-55zM385 700h63v-272h-56v46c0 42 3 104 5 130l-4 1c-5 -16 -14 -43 -21 -68l-14 -43h-53l-14 43c-7 25 -16 52 -22 68l-3 -1c2 -26 5 -88 5 -130v-46h-56v272h62l21 -49c8 -21 29 -84 33 -104c5 20 26 82 34 104z" />
    <glyph glyph-name="degree" unicode="&#xb0;" horiz-adv-x="311" 
d="M22 576c0 81 53 136 134 136s134 -55 134 -136c0 -82 -53 -137 -134 -137s-134 55 -134 137zM101 576c0 -36 21 -60 55 -60c33 0 55 24 55 60s-22 60 -55 60c-34 0 -55 -24 -55 -60z" />
    <glyph glyph-name="bar" unicode="|" horiz-adv-x="219" 
d="M49 803h120v-899h-120v899z" />
    <glyph glyph-name="brokenbar" unicode="&#xa6;" horiz-adv-x="199" 
d="M39 488v315h120v-315h-120zM39 -92v316h120v-316h-120z" />
    <glyph glyph-name="dagger" unicode="&#x2020;" horiz-adv-x="370" 
d="M351 520v-105h-111v-513h-110v513h-111v105h111v185h110v-185h111z" />
    <glyph glyph-name="daggerdbl" unicode="&#x2021;" horiz-adv-x="375" 
d="M353 415h-111v-189h111v-105h-111v-219h-111v219h-111v105h111v189h-111v105h111v185h111v-185h111v-105z" />
    <glyph glyph-name="asciicircum" unicode="^" horiz-adv-x="349" 
d="M341 473h-104l-62 133l-63 -133h-105l116 227h102z" />
    <glyph glyph-name="uni0308" unicode="&#x308;" 
d="M-208 617c-34 0 -56 22 -56 56s22 55 56 55s56 -21 56 -55s-22 -56 -56 -56zM-56 617c-34 0 -57 22 -57 56s23 55 57 55c33 0 56 -21 56 -55s-23 -56 -56 -56z" />
    <glyph glyph-name="uni0307" unicode="&#x307;" 
d="M-101 611c-40 0 -68 30 -68 69c0 40 28 69 68 69c39 0 69 -29 69 -69c0 -37 -30 -69 -69 -69z" />
    <glyph glyph-name="gravecomb" unicode="&#x300;" 
d="M-177 741h103l74 -132h-85z" />
    <glyph glyph-name="acutecomb" unicode="&#x301;" 
d="M0 741l-92 -132h-85l74 132h103z" />
    <glyph glyph-name="uni030B" unicode="&#x30b;" 
d="M-142 741l-91 -132h-78l75 132h94zM0 741l-96 -132h-78l80 132h94z" />
    <glyph glyph-name="uni0302" unicode="&#x302;" 
d="M1 609h-81l-46 68l-47 -68h-82l81 131h94z" />
    <glyph glyph-name="uni030C" unicode="&#x30c;" 
d="M-74 741h81l-81 -131h-94l-81 131h82l47 -68z" />
    <glyph glyph-name="uni0306" unicode="&#x306;" 
d="M-124 611c-71 0 -123 45 -126 122h79c1 -30 20 -47 46 -47c25 0 45 17 46 47h78c-3 -79 -54 -122 -123 -122z" />
    <glyph glyph-name="uni030A" unicode="&#x30a;" 
d="M-177 691c0 49 34 83 86 83s87 -34 87 -83c0 -51 -35 -85 -87 -85s-86 34 -86 85zM-123 690c0 -20 13 -33 32 -33c20 0 33 13 33 33s-13 33 -33 33c-19 0 -32 -13 -32 -33z" />
    <glyph glyph-name="tildecomb" unicode="&#x303;" 
d="M-164 651c-12 0 -23 -9 -25 -26h-72c4 65 39 99 86 99c42 0 55 -29 78 -29c14 0 24 11 26 26h71c-4 -61 -37 -99 -86 -99c-41 0 -54 29 -78 29z" />
    <glyph glyph-name="uni0304" unicode="&#x304;" 
d="M-211 712h211v-78h-211v78z" />
    <glyph glyph-name="uni0312" unicode="&#x312;" 
d="M-55 809l55 -207h-112l-18 207h75z" />
    <glyph glyph-name="uni0326" unicode="&#x326;" 
d="M-119 -273l16 202h103l-48 -202h-71z" />
    <glyph glyph-name="uni0327" unicode="&#x327;" 
d="M-110 -212c-54 0 -100 35 -105 87h66c7 -17 20 -27 40 -27c24 0 36 15 36 34c0 18 -11 30 -35 30c-10 0 -24 -2 -34 -8l-19 19l22 77h65l-13 -48c2 1 5 1 10 1c42 0 73 -30 73 -74c0 -55 -43 -91 -106 -91z" />
    <glyph glyph-name="uni0328" unicode="&#x328;" 
d="M-8 -182c-24 -11 -48 -12 -73 -12c-63 0 -97 35 -97 85c0 42 24 79 60 109h101c-33 -23 -53 -56 -53 -76s13 -27 33 -27c9 0 20 0 29 3v-82z" />
    <glyph glyph-name="uni0335" unicode="&#x335;" 
d="M-210 372v61h200v-61h-200z" />
    <glyph glyph-name="uni0336" unicode="&#x336;" 
d="M-330 433h320v-61h-320v61z" />
    <glyph glyph-name="uni0337" unicode="&#x337;" 
d="M-284 -43l156 596h128l-157 -596h-127z" />
    <glyph glyph-name="uni0338" unicode="&#x338;" 
d="M-360 -39l211 778h125l-211 -778h-125z" />
    <glyph glyph-name="uni0308.case" 
d="M-209 778c-34 0 -56 22 -56 56s22 56 56 56c33 0 55 -22 55 -56s-22 -56 -55 -56zM-55 778c-34 0 -56 22 -56 56s22 56 56 56s56 -22 56 -56s-22 -56 -56 -56z" />
    <glyph glyph-name="uni0307.case" 
d="M-68 770c-40 0 -68 29 -68 68c0 40 28 69 68 69c39 0 69 -29 69 -69c0 -37 -30 -68 -69 -68z" />
    <glyph glyph-name="gravecomb.case" 
d="M-2 767h-86l-111 132h103z" />
    <glyph glyph-name="acutecomb.case" 
d="M-197 767l94 132h103l-111 -132h-86z" />
    <glyph glyph-name="uni030B.case" 
d="M-137 900l-91 -132h-78l75 132h94zM5 900l-96 -132h-78l80 132h94z" />
    <glyph glyph-name="uni0302.case" 
d="M2 767h-81l-46 68l-47 -68h-82l81 131h94z" />
    <glyph glyph-name="uni030C.case" 
d="M-80 899h81l-81 -131h-94l-81 131h82l47 -68z" />
    <glyph glyph-name="uni0306.case" 
d="M-118 769c-71 0 -123 45 -126 122h79c1 -30 20 -47 46 -47c25 0 45 17 46 47h78c-3 -79 -54 -122 -123 -122z" />
    <glyph glyph-name="uni030A.case" 
d="M-167 848c0 49 34 83 86 83s87 -34 87 -83c0 -51 -35 -85 -87 -85s-86 34 -86 85zM-113 847c0 -20 13 -33 32 -33c20 0 33 13 33 33s-13 33 -33 33c-19 0 -32 -13 -32 -33z" />
    <glyph glyph-name="tildecomb.case" 
d="M-150 813c-12 0 -23 -9 -25 -26h-72c4 65 39 99 86 99c42 0 55 -29 78 -29c14 0 24 11 26 26h71c-4 -61 -37 -99 -86 -99c-41 0 -54 29 -78 29z" />
    <glyph glyph-name="uni0304.case" 
d="M-205 870h211v-79h-211v79z" />
    <glyph glyph-name="uni0312.case" 
d="M-51 986l56 -206h-113l-17 206h74z" />
    <glyph glyph-name="uni0326.case" 
d="M-122 -273l16 202h103l-48 -202h-71z" />
    <glyph glyph-name="uni0327.case" 
d="M-94 -212c-54 0 -100 35 -105 87h66c7 -17 20 -27 40 -27c24 0 36 15 36 34c0 18 -11 30 -35 30c-10 0 -24 -2 -34 -8l-19 19l22 77h65l-13 -48c2 1 5 1 10 1c42 0 73 -30 73 -74c0 -55 -43 -91 -106 -91z" />
    <glyph glyph-name="uni0328.case" 
d="M-6 -182c-24 -11 -48 -12 -73 -12c-63 0 -97 35 -97 85c0 42 24 79 60 109h101c-33 -23 -53 -56 -53 -76s13 -27 33 -27c9 0 20 0 29 3v-82z" />
    <glyph glyph-name="uni0337.case" 
d="M-291 -43l156 596h128l-157 -596h-127z" />
    <glyph glyph-name="uni0338.case" 
d="M-532 -39l211 778h125l-211 -778h-125z" />
    <glyph glyph-name="brevecombcy" 
d="M-119 611c-71 0 -123 45 -126 122h79c1 -30 20 -47 46 -47c25 0 45 17 46 47h78c-3 -79 -54 -122 -123 -122z" />
    <glyph glyph-name="brevecombcy.case" 
d="M-118 769c-71 0 -123 45 -126 122h79c1 -30 20 -47 46 -47c25 0 45 17 46 47h78c-3 -79 -54 -122 -123 -122z" />
    </font>
</defs>
</svg>
