<?xml version="1.0" encoding="utf-8"?>
<!-- Generator: Adobe Illustrator 19.0.0, SVG Export Plug-In . SVG Version: 6.00 Build 0)  -->
<svg version="1.1" id="Layer_1" xmlns="http://www.w3.org/2000/svg" xmlns:xlink="http://www.w3.org/1999/xlink" x="0px" y="0px"
	 viewBox="0 0 688.4 922.6" style="enable-background:new 0 0 688.4 922.6;" xml:space="preserve">
<style type="text/css">
	.st0{fill:#FFFFFF;}
	.st1{fill:#FFD402;}
</style>
<path id="XMLID_513_" class="st0" d="M633.6,645c-8.3,9.3-42.8,46.9-87.6,81.3c-1.5,0.5-6.7,2.2-15.2,2.2c-9.9,0-20.5-2.2-31.7-6.6
	l-8.6-3.4l1.9,9c1.6,7.9,3.6,30.3-6.9,38.3l-0.2,0.2l-0.2,0.2c-0.4,0.4-42.9,41-145.2,92.1c-102.3-51.1-144.8-91.7-145.2-92.1
	l-0.2-0.2l-0.2-0.2c-10.5-8-8.5-30.4-6.9-38.3l1.9-9l-8.6,3.4c-11.2,4.4-21.8,6.6-31.7,6.6c-8.4,0-13.7-1.7-15.2-2.2
	c-44.8-34.3-79.3-72-87.6-81.2c47.4-136.8,61.7-244.3,42.5-319.4c-11.8-45.9-33-65.4-41.8-71.8c19.6-44.3,33.1-58.5,36.4-61.4
	c3.1-0.5,6.3-1,9.5-1.5c1-0.2,2-0.3,3-0.4c4.2-0.6,8.6-1.2,12.9-1.7c0.9-0.1,1.8-0.2,2.7-0.3c1.3-0.2,2.6-0.3,3.9-0.4
	c0.9-0.1,3.7-0.4,3.7-0.4l3.6-0.3c1.2-0.1,2.3-0.2,3.3-0.3c1.1-0.1,4.1-0.3,4.1-0.3c1-0.1,1.9-0.2,2.8-0.2c1.8-0.1,3.4-0.2,4.8-0.3
	c4.4-0.3,7-0.4,7-0.4l2.1-0.1l53-57.1l-28.9-22.7c25.8-26.4,36.5-36.1,40.8-39.7c8.7,8.2,16.7,9.2,20,9.2c0.7,0,1.2,0,1.5-0.1
	c4.6-0.2,9-0.2,13.3-0.2c63.5,0,78.4,18,87.3,28.7c0.8,1,1.6,1.9,2.4,2.8l3.8,4.3l3.8-4.3c0.8-0.9,1.5-1.8,2.4-2.8
	c8.9-10.7,23.9-28.7,87.3-28.7c4.3,0,8.7,0.1,13.3,0.2c0.3,0,0.9,0.1,1.5,0.1c3.3,0,11.3-1,20-9.2c4.3,3.6,15.1,13.4,40.8,39.7
	L480,128.5l53,57.1l2.1,0.1c0.3,0,28.7,1.2,61.5,6.8c3.1,2.9,16.7,17,36.4,61.4c-8.8,6.4-30.1,25.9-41.8,71.8
	C571.9,400.8,586.1,508.2,633.6,645z"/>
<g id="XMLID_477_">
	<g id="XMLID_484_">
		<g id="XMLID_509_">
			<path id="XMLID_511_" d="M547.6,202.8c-14.7-1.5-24.4-1.8-24.4-1.8l-58.7-63.2v233.5c26.8,1.8,54.6,4.2,83.3,7.4
				c-0.1-1.6-0.1-3.3-0.2-4.8V202.8z"/>
			<path id="XMLID_510_" d="M554.3,512.8c-30.6-3.9-60.6-6.8-89.8-8.8v184.1l11.7,6.7v0v0c39.6,19.9,64.9,5.2,64.9,5.2
				c11.9-9.1,22.6-18.4,31.9-27C564.3,632.6,558.3,572.2,554.3,512.8z"/>
		</g>
		<g id="XMLID_499_">
			<path id="XMLID_508_" d="M132.1,202.9L132.1,202.9c2.2-0.2,4.2-0.4,6.1-0.6C136.3,202.5,134.3,202.7,132.1,202.9z"/>
			<polygon id="XMLID_507_" points="215.2,139.7 158.4,200.9 215.2,139.7 			"/>
			<path id="XMLID_506_" d="M104.5,669.2L104.5,669.2c10.1,9.7,22.2,20.3,36,30.9c0,0,3.2,1.9,9.2,3.4c-6-1.5-9.2-3.4-9.2-3.4
				C126.7,689.5,114.6,678.8,104.5,669.2z"/>
			<path id="XMLID_505_" d="M151.9,703.9c-0.8-0.2-1.5-0.3-2.2-0.5C150.4,703.6,151.1,703.7,151.9,703.9z"/>
			<path id="XMLID_504_" d="M171.4,705c-0.9,0.1-1.8,0.1-2.7,0.2C169.6,705.1,170.5,705,171.4,705z"/>
			<path id="XMLID_503_" d="M203.2,695.8L203.2,695.8c-2,1-4,1.9-6,2.6C199.2,697.7,201.2,696.8,203.2,695.8z"/>
			<path id="XMLID_502_" d="M104.5,669.2c10.1,9.7,22.2,20.3,36,30.9c0,0,3.2,1.9,9.2,3.4c0.7,0.2,1.4,0.3,2.2,0.5
				c0.8,0.2,1.6,0.3,2.4,0.5c2,0.3,4.2,0.6,6.7,0.8c2.4,0.1,5,0.2,7.8,0c0.9,0,1.8-0.1,2.7-0.2c0.5,0,0.9-0.1,1.4-0.1
				c0.9-0.1,1.9-0.2,2.8-0.3c3.8-0.5,7.8-1.4,12.1-2.6c1.2-0.4,2.5-0.8,3.7-1.2c1.3-0.4,2.5-0.9,3.8-1.4c0.6-0.2,1.3-0.5,1.9-0.8
				c2-0.8,3.9-1.7,6-2.6l0.3-1.1l11.7-6.9V503.7c-46.3,3-78.6,6.9-90.8,8.5C120.1,572.2,113.7,631.6,104.5,669.2z"/>
			<path id="XMLID_501_" d="M215.2,139.7l-56.8,61.2c0,0-1.5,0.1-4.2,0.2c-0.7,0-1.4,0.1-2.2,0.1c-0.3,0-0.6,0-0.8,0.1
				c-0.6,0-1.2,0.1-1.8,0.1c-0.6,0-1.3,0.1-2,0.1c-1.7,0.1-3.6,0.3-5.7,0.5c-1.1,0.1-2.2,0.2-3.4,0.3c-1.9,0.2-4,0.4-6.1,0.6v152.4
				c-0.2,6.7-0.4,14.1-0.7,21.8c18.6-2.2,47.2-5,83.8-7.2V139.7z"/>
			<path id="XMLID_500_" d="M205.4,694.8L205.4,694.8c-0.7,0.4-1.5,0.7-2.2,1.1v0C203.9,695.5,204.7,695.1,205.4,694.8z"/>
		</g>
		<g id="XMLID_496_">
			<path id="XMLID_498_" d="M339.9,135.1c-1.4-1.6-2.8-3.2-4.2-4.9C337,131.9,338.4,133.5,339.9,135.1L339.9,135.1z"/>
			<path id="XMLID_497_" d="M381.7,500.2c-29.6-0.7-57.7-0.6-83.7,0c-1.1,49.6-5.6,201.6-19.8,299.1c16.9,10.3,37.1,21.6,60.8,33.4
				h1.8c23.7-11.8,43.9-23.1,60.8-33.4C387.3,701.7,382.8,549.8,381.7,500.2z"/>
		</g>
		<g id="XMLID_490_">
			<path id="XMLID_494_" d="M237.8,734.5v11h-24.7l12.2-23l0.4-0.8c0.3-0.6,0.5-1.2,0.5-1.8c0-1.5-0.9-2.3-2.7-2.3
				c-0.7,0-1.3,0.3-1.8,0.8c-0.5,0.5-0.8,1.1-0.8,1.8c0,0.8,0.3,1.5,1,2.1l-4.9,8.7c-2.1-1.3-3.6-2.9-4.7-4.8
				c-1.1-2-1.6-4.1-1.6-6.5c0-3.7,1.3-6.8,3.9-9.4c2.6-2.6,5.7-3.9,9.4-3.9c3.7,0,6.8,1.3,9.4,3.9c2.6,2.6,3.9,5.7,3.9,9.4
				c0,2.1-0.5,4.1-1.4,5.9l-4.5,8.8H237.8z"/>
			<path id="XMLID_491_" d="M246.1,730.7v-8.4c0-4.9,1.2-8.7,3.6-11.6c2.4-2.8,5.7-4.2,9.9-4.2c4.2,0,7.5,1.4,10,4.2
				c2.4,2.8,3.7,6.7,3.7,11.6v8.4c0,4.9-1.2,8.7-3.7,11.6c-2.4,2.8-5.8,4.3-10,4.3c-4.2,0-7.5-1.4-9.9-4.3
				C247.3,739.4,246.1,735.6,246.1,730.7z M256.9,720.1v12.9c0,2.3,0.9,3.5,2.7,3.5c1.8,0,2.7-1.2,2.7-3.5v-12.9
				c0-2.3-0.9-3.5-2.7-3.5C257.9,716.6,256.9,717.7,256.9,720.1z"/>
		</g>
		<g id="XMLID_485_">
			<path id="XMLID_488_" d="M424.2,708.4v38.2h-10.8v-38.2H424.2z"/>
			<path id="XMLID_486_" d="M464.2,708.4l-11.1,38.2h-11.6l8.6-27.2h-11.7v-11H464.2z"/>
		</g>
	</g>
	<g id="XMLID_479_">
		<path id="XMLID_480_" d="M380.6,103.3c-0.3,0.1-0.6,0.2-0.9,0.3c-0.6,0.2-1.2,0.4-1.7,0.6c-0.8,0.3-1.7,0.6-2.5,0.9
			c-0.5,0.2-1.1,0.4-1.6,0.6c-0.4,0.2-0.8,0.3-1.2,0.5c-1.6,0.7-3.1,1.4-4.5,2.2c-0.2,0.1-0.4,0.2-0.7,0.4c-3.3,1.8-6.1,3.7-8.6,5.7
			c-0.3,0.3-0.7,0.5-1,0.8c-0.3,0.3-0.6,0.5-1,0.8c-0.2,0.1-0.3,0.3-0.5,0.4c-6.8,6-11.2,12.7-16.7,18.7h0v0
			c-1.4-1.6-2.8-3.2-4.2-4.9c-1.4-1.7-2.7-3.3-4.1-5c-0.2-0.2-0.4-0.5-0.6-0.7c-0.4-0.5-0.8-1-1.2-1.4c-0.2-0.2-0.4-0.5-0.6-0.7
			c-0.6-0.7-1.3-1.4-2-2.1c-0.4-0.5-0.9-0.9-1.4-1.4c-0.5-0.5-0.9-0.9-1.4-1.4c-1.7-1.6-3.6-3.2-5.7-4.7c-0.2-0.1-0.4-0.3-0.5-0.4
			c-0.5-0.4-1.1-0.8-1.7-1.1c-0.5-0.3-1-0.7-1.5-1c-0.2-0.1-0.3-0.2-0.5-0.3c-0.4-0.3-0.9-0.5-1.3-0.8c-0.2-0.1-0.4-0.2-0.6-0.3
			c-0.5-0.3-1-0.5-1.5-0.8c-0.8-0.4-1.6-0.8-2.4-1.2c-0.8-0.4-1.7-0.8-2.6-1.1c-0.6-0.2-1.2-0.5-1.8-0.7c-1.2-0.5-2.5-0.9-3.8-1.4
			c-0.7-0.2-1.3-0.4-2-0.6v264.3h83.1V103C381.1,103.1,380.9,103.2,380.6,103.3z M337.1,286.8h-24.6v13.6l19.6-5.3v10.2l-19.6,5.3
			v15.5h-9.9v-49.3h34.5V286.8z M377.1,278.7c0,4.1-0.8,8.1-2.4,11.8c-1.4,3.3-3.4,6.4-5.8,9c2.1,2,3.9,4.4,5.2,7.1
			c1.6,3.3,2.4,6.9,2.4,10.7v8.7h-9.9v-8.7c0-2.5-0.6-4.9-1.8-7c-1-1.8-2.3-3.4-3.9-4.6c-0.8,0.4-1.7,0.8-2.7,1.3
			c-2,0.9-4.1,1.5-6.3,1.9v17.1h-9.9v-49.3h9.9v22c1.2-0.3,2.4-0.8,3.5-1.4c1.8-0.9,3.5-2.1,4.9-3.4c2.1-1.9,3.8-4.3,4.9-6.9
			c1.2-2.7,1.8-5.5,1.8-8.4v-1.9h9.9V278.7z"/>
	</g>
	<path id="XMLID_478_" d="M131.4,382.7"/>
</g>
<g id="XMLID_473_">
	<path id="XMLID_474_" d="M663.6,262.2c-32.9-76.1-54.1-90.8-54.1-90.8c-34.1-5.9-63.5-7.1-63.5-7.1l-30.6-32.9l30.6-23.5
		c-75.1-77.5-79.9-76.4-79.9-76.4c-4.7,14.1-19.7,15.4-19.7,15.4c-96.4,0-106.6,30.4-106.6,30.4s-10.1-30.4-106.6-30.4
		c0,0-15-1.3-19.7-15.4c0,0-4.5-1.1-79.9,76.4l30.6,23.5l-30.6,32.9c0,0-29.4,1.2-63.5,7.1c0,0-21.2,14.8-54.1,90.8
		c0,0,129.3,45.5,0,387.6c0,0,40,51.7,104.6,101.1c0,0,17.6,12.9,42.3,0c0,0-9.4,18.8,5.9,30.6c0,0,72.8,64.6,171,107
		c98.2-42.3,171-107,171-107c15.3-11.8,5.9-30.6,5.9-30.6c24.7,12.9,42.3,0,42.3,0c64.6-49.4,104.6-101.1,104.6-101.1
		C534.3,307.7,663.6,262.2,663.6,262.2z M633.6,645c-8.3,9.3-42.8,46.9-87.6,81.3c-1.5,0.5-6.7,2.2-15.2,2.2
		c-9.9,0-20.5-2.2-31.7-6.6l-8.6-3.4l1.9,9c1.6,7.9,3.6,30.3-6.9,38.3l-0.2,0.2l-0.2,0.2c-0.4,0.4-42.9,41-145.2,92.1
		c-102.3-51.1-144.8-91.7-145.2-92.1l-0.2-0.2l-0.2-0.2c-10.5-8-8.5-30.4-6.9-38.3l1.9-9l-8.6,3.4c-11.2,4.4-21.8,6.6-31.7,6.6
		c-8.4,0-13.7-1.7-15.2-2.2c-44.8-34.3-79.3-72-87.6-81.2c47.4-136.8,61.7-244.3,42.5-319.4c-11.8-45.9-33-65.4-41.8-71.8
		c19.6-44.3,33.1-58.5,36.4-61.4c3.1-0.5,6.3-1,9.5-1.5c1-0.2,2-0.3,3-0.4c4.2-0.6,8.6-1.2,12.9-1.7c0.9-0.1,1.8-0.2,2.7-0.3
		c1.3-0.2,2.6-0.3,3.9-0.4c0.9-0.1,3.7-0.4,3.7-0.4l3.6-0.3c1.2-0.1,2.3-0.2,3.3-0.3c1.1-0.1,4.1-0.3,4.1-0.3c1-0.1,1.9-0.2,2.8-0.2
		c1.8-0.1,3.4-0.2,4.8-0.3c4.4-0.3,7-0.4,7-0.4l2.1-0.1l53-57.1l-28.9-22.7c25.8-26.4,36.5-36.1,40.8-39.7c8.7,8.2,16.7,9.2,20,9.2
		c0.7,0,1.2,0,1.5-0.1c4.6-0.2,9-0.2,13.3-0.2c63.5,0,78.4,18,87.3,28.7c0.8,1,1.6,1.9,2.4,2.8l3.8,4.3l3.8-4.3
		c0.8-0.9,1.5-1.8,2.4-2.8c8.9-10.7,23.9-28.7,87.3-28.7c4.3,0,8.7,0.1,13.3,0.2c0.3,0,0.9,0.1,1.5,0.1c3.3,0,11.3-1,20-9.2
		c4.3,3.6,15.1,13.4,40.8,39.7L480,128.5l53,57.1l2.1,0.1c0.3,0,28.7,1.2,61.5,6.8c3.1,2.9,16.7,17,36.4,61.4
		c-8.8,6.4-30.1,25.9-41.8,71.8C571.9,400.8,586.1,508.2,633.6,645z"/>
</g>
<path id="XMLID_472_" d="M131.4,399.9l0.9-0.1c4.1-0.6,8.2-1.1,12.3-1.7l1.1-0.1v78.5c1.7-0.2,2.9-0.4,4.9-0.6
	c5.3-0.7,10.4-2.7,14.9-5.8c4.5-3.2,8.3-7.4,10.9-12.1c2.6-4.7,3.9-10,3.9-15.3v-48.8l0.9-0.1c4.1-0.4,8.2-0.9,12.3-1.3l1.1-0.1v49
	c0,5.9-1.1,11.7-3.4,17.3c-2.2,5.6-5.4,10.7-9.4,15.1c-4.2,4.6-8.9,8.3-14,10.9c-5.3,2.9-11,4.8-17,5.6c-6,0.8-12.2,1.6-18.3,2.5
	l-1.1,0.2V399.9z"/>
<path id="XMLID_469_" d="M219,434c0-5.9,1.1-11.7,3.3-17.2c2.2-5.5,5.4-10.5,9.5-14.9c4.1-4.4,8.9-7.9,14.2-10.4
	c5.3-2.5,11.1-4,17-4.3c6.1-0.3,12.3-0.6,18.4-0.8l1,0v92.9l-1,0c-4.1,0.2-8.2,0.3-12.4,0.5l-1,0v-33.1
	c-11.5,3.7-23.2,7.5-34.7,11.4v23.8l-0.9,0.1c-4.1,0.3-8.2,0.6-12.4,0.9L219,483V434z M268.1,401.3c-1.8,0.1-2.9,0.1-5,0.2
	c-5.3,0.3-10.4,1.9-14.9,4.8c-4.4,2.8-8.1,6.8-10.8,11.5c-2.6,4.7-4,10-4,15.2v10.1c11.5-3.9,23.2-7.7,34.7-11.4V401.3z"/>
<path id="XMLID_468_" d="M309.1,385.6l1,0c4.1-0.1,8.3-0.1,12.4-0.2l1,0v78.5c5.8-0.1,11.7-0.1,17.4-0.1c2.3,0,4.5-0.4,6.6-1.3
	c2.1-0.9,4-2.1,5.7-3.7c1.6-1.6,2.9-3.5,3.7-5.5c0.8-2.1,1.3-4.3,1.3-6.7v-1l1,0c4.1,0.1,8.3,0.1,12.4,0.2l1,0l0,1
	c0,5.6-1.5,11.1-4.3,15.9c-2.7,4.6-6.7,8.5-11.6,11.3c-4.8,2.7-10.2,4.2-15.8,4.2l-0.2,0c-10.2,0-20.6,0.1-30.8,0.3l-1,0V385.6z"/>
<path id="XMLID_465_" d="M427.8,481.6c-0.6,0-1.2,0-1.8-0.1c-5.5-0.3-10.8-2-15.4-5c-4.6-2.9-8.4-6.9-11.2-11.7
	c-2.8-4.8-4.2-10.2-4.2-15.6v-32.9c0-5.4,1.4-10.7,4.1-15.3c2.8-4.6,6.7-8.4,11.3-10.8c4.1-2.2,8.8-3.3,13.7-3.3
	c0.6,0,1.2,0,1.8,0.1c5.4,0.3,10.7,2.1,15.4,5.1c4.7,3.1,8.6,7.2,11.3,12c2.7,4.8,4.1,10.3,4.1,15.7v32.9c0,5.4-1.4,10.7-4.1,15.2
	c-2.7,4.4-6.6,8-11.3,10.4C437.3,480.4,432.6,481.6,427.8,481.6z M425,400.9c-4,0-8,1.6-10.9,4.4c-3.2,3.1-5,7.3-5,11.6v32.9
	c0,4.3,1.8,8.8,5,12.1c3.2,3.3,7.5,5.4,11.9,5.7c0.3,0,0.6,0,0.9,0c4,0,8-1.6,10.9-4.3c3.2-3,5-7.2,5-11.5v-32.9
	c0-4.3-1.8-8.8-5-12.2c-3.2-3.4-7.5-5.5-11.9-5.8C425.7,400.9,425.3,400.9,425,400.9z"/>
<path id="XMLID_464_" d="M545.6,492.6c-4.1-0.6-8.1-1.1-12.2-1.7l-0.9-0.1v-9.6c0-4.3-0.8-8.5-2.4-12.6c-1.6-4.2-4-7.7-7-11.6
	c-0.9-1-2.4-2.5-4.4-4.3c-5.3-4.3-11.6-7-18-7.7l-0.9-0.1v-14.4l1.2,0.2c6.4,1,12,2.9,18.1,5.9c1.1-0.7,2.2-1.6,3.4-2.7
	c2.8-2.7,5-6.1,6.4-9.8c1.5-4,1.9-8.1,2.2-11.9c-11.4-1.5-23-2.9-34.5-4.1v78.5l-1.1-0.1c-4.1-0.4-8.2-0.9-12.3-1.3l-0.9-0.1v-92.9
	l1.1,0.1c20.4,2,41,4.5,61.2,7.3l0.9,0.1v13.2c-0.4,7.6-1.5,13.6-3.8,19.3c-2.1,5.2-5.6,10.1-10,13.9c4.9,5,8.7,10.7,11,16.5
	c2.5,6.2,3.8,12.6,4.2,20.2l0,9.9L545.6,492.6z"/>
<g id="XMLID_429_">
	<g id="XMLID_436_">
		<g id="XMLID_461_">
			<path id="XMLID_463_" d="M547.6,202.8c-14.7-1.5-24.4-1.8-24.4-1.8l-58.7-63.2v233.5c26.8,1.8,54.6,4.2,83.3,7.4
				c-0.1-1.6-0.1-3.3-0.2-4.8V202.8z"/>
			<path id="XMLID_462_" d="M554.3,512.8c-30.6-3.9-60.6-6.8-89.8-8.8v184.1l11.7,6.7v0v0c39.6,19.9,64.9,5.2,64.9,5.2
				c11.9-9.1,22.6-18.4,31.9-27C564.3,632.6,558.3,572.2,554.3,512.8z"/>
		</g>
		<g id="XMLID_451_">
			<path id="XMLID_460_" d="M132.1,202.9L132.1,202.9c2.2-0.2,4.2-0.4,6.1-0.6C136.3,202.5,134.3,202.7,132.1,202.9z"/>
			<polygon id="XMLID_459_" points="215.2,139.7 158.4,200.9 215.2,139.7 			"/>
			<path id="XMLID_458_" d="M104.5,669.2L104.5,669.2c10.1,9.7,22.2,20.3,36,30.9c0,0,3.2,1.9,9.2,3.4c-6-1.5-9.2-3.4-9.2-3.4
				C126.7,689.5,114.6,678.8,104.5,669.2z"/>
			<path id="XMLID_457_" d="M151.9,703.9c-0.8-0.2-1.5-0.3-2.2-0.5C150.4,703.6,151.1,703.7,151.9,703.9z"/>
			<path id="XMLID_456_" d="M171.4,705c-0.9,0.1-1.8,0.1-2.7,0.2C169.6,705.1,170.5,705,171.4,705z"/>
			<path id="XMLID_455_" d="M203.2,695.8L203.2,695.8c-2,1-4,1.9-6,2.6C199.2,697.7,201.2,696.8,203.2,695.8z"/>
			<path id="XMLID_454_" d="M104.5,669.2c10.1,9.7,22.2,20.3,36,30.9c0,0,3.2,1.9,9.2,3.4c0.7,0.2,1.4,0.3,2.2,0.5
				c0.8,0.2,1.6,0.3,2.4,0.5c2,0.3,4.2,0.6,6.7,0.8c2.4,0.1,5,0.2,7.8,0c0.9,0,1.8-0.1,2.7-0.2c0.5,0,0.9-0.1,1.4-0.1
				c0.9-0.1,1.9-0.2,2.8-0.3c3.8-0.5,7.8-1.4,12.1-2.6c1.2-0.4,2.5-0.8,3.7-1.2c1.3-0.4,2.5-0.9,3.8-1.4c0.6-0.2,1.3-0.5,1.9-0.8
				c2-0.8,3.9-1.7,6-2.6l0.3-1.1l11.7-6.9V503.7c-46.3,3-78.6,6.9-90.8,8.5C120.1,572.2,113.7,631.6,104.5,669.2z"/>
			<path id="XMLID_453_" d="M215.2,139.7l-56.8,61.2c0,0-1.5,0.1-4.2,0.2c-0.7,0-1.4,0.1-2.2,0.1c-0.3,0-0.6,0-0.8,0.1
				c-0.6,0-1.2,0.1-1.8,0.1c-0.6,0-1.3,0.1-2,0.1c-1.7,0.1-3.6,0.3-5.7,0.5c-1.1,0.1-2.2,0.2-3.4,0.3c-1.9,0.2-4,0.4-6.1,0.6v152.4
				c-0.2,6.7-0.4,14.1-0.7,21.8c18.6-2.2,47.2-5,83.8-7.2V139.7z"/>
			<path id="XMLID_452_" d="M205.4,694.8L205.4,694.8c-0.7,0.4-1.5,0.7-2.2,1.1v0C203.9,695.5,204.7,695.1,205.4,694.8z"/>
		</g>
		<g id="XMLID_448_">
			<path id="XMLID_450_" d="M339.9,135.1c-1.4-1.6-2.8-3.2-4.2-4.9C337,131.9,338.4,133.5,339.9,135.1L339.9,135.1z"/>
			<path id="XMLID_449_" d="M381.7,500.2c-29.6-0.7-57.7-0.6-83.7,0c-1.1,49.6-5.6,201.6-19.8,299.1c16.9,10.3,37.1,21.6,60.8,33.4
				h1.8c23.7-11.8,43.9-23.1,60.8-33.4C387.3,701.7,382.8,549.8,381.7,500.2z"/>
		</g>
		<g id="XMLID_442_">
			<path id="XMLID_446_" d="M237.8,734.5v11h-24.7l12.2-23l0.4-0.8c0.3-0.6,0.5-1.2,0.5-1.8c0-1.5-0.9-2.3-2.7-2.3
				c-0.7,0-1.3,0.3-1.8,0.8c-0.5,0.5-0.8,1.1-0.8,1.8c0,0.8,0.3,1.5,1,2.1l-4.9,8.7c-2.1-1.3-3.6-2.9-4.7-4.8
				c-1.1-2-1.6-4.1-1.6-6.5c0-3.7,1.3-6.8,3.9-9.4c2.6-2.6,5.7-3.9,9.4-3.9c3.7,0,6.8,1.3,9.4,3.9c2.6,2.6,3.9,5.7,3.9,9.4
				c0,2.1-0.5,4.1-1.4,5.9l-4.5,8.8H237.8z"/>
			<path id="XMLID_443_" d="M246.1,730.7v-8.4c0-4.9,1.2-8.7,3.6-11.6c2.4-2.8,5.7-4.2,9.9-4.2c4.2,0,7.5,1.4,10,4.2
				c2.4,2.8,3.7,6.7,3.7,11.6v8.4c0,4.9-1.2,8.7-3.7,11.6c-2.4,2.8-5.8,4.3-10,4.3c-4.2,0-7.5-1.4-9.9-4.3
				C247.3,739.4,246.1,735.6,246.1,730.7z M256.9,720.1v12.9c0,2.3,0.9,3.5,2.7,3.5c1.8,0,2.7-1.2,2.7-3.5v-12.9
				c0-2.3-0.9-3.5-2.7-3.5C257.9,716.6,256.9,717.7,256.9,720.1z"/>
		</g>
		<g id="XMLID_437_">
			<path id="XMLID_440_" d="M424.2,708.4v38.2h-10.8v-38.2H424.2z"/>
			<path id="XMLID_438_" d="M464.2,708.4l-11.1,38.2h-11.6l8.6-27.2h-11.7v-11H464.2z"/>
		</g>
	</g>
	<g id="XMLID_431_">
		<path id="XMLID_432_" d="M380.6,103.3c-0.3,0.1-0.6,0.2-0.9,0.3c-0.6,0.2-1.2,0.4-1.7,0.6c-0.8,0.3-1.7,0.6-2.5,0.9
			c-0.5,0.2-1.1,0.4-1.6,0.6c-0.4,0.2-0.8,0.3-1.2,0.5c-1.6,0.7-3.1,1.4-4.5,2.2c-0.2,0.1-0.4,0.2-0.7,0.4c-3.3,1.8-6.1,3.7-8.6,5.7
			c-0.3,0.3-0.7,0.5-1,0.8c-0.3,0.3-0.6,0.5-1,0.8c-0.2,0.1-0.3,0.3-0.5,0.4c-6.8,6-11.2,12.7-16.7,18.7h0v0
			c-1.4-1.6-2.8-3.2-4.2-4.9c-1.4-1.7-2.7-3.3-4.1-5c-0.2-0.2-0.4-0.5-0.6-0.7c-0.4-0.5-0.8-1-1.2-1.4c-0.2-0.2-0.4-0.5-0.6-0.7
			c-0.6-0.7-1.3-1.4-2-2.1c-0.4-0.5-0.9-0.9-1.4-1.4c-0.5-0.5-0.9-0.9-1.4-1.4c-1.7-1.6-3.6-3.2-5.7-4.7c-0.2-0.1-0.4-0.3-0.5-0.4
			c-0.5-0.4-1.1-0.8-1.7-1.1c-0.5-0.3-1-0.7-1.5-1c-0.2-0.1-0.3-0.2-0.5-0.3c-0.4-0.3-0.9-0.5-1.3-0.8c-0.2-0.1-0.4-0.2-0.6-0.3
			c-0.5-0.3-1-0.5-1.5-0.8c-0.8-0.4-1.6-0.8-2.4-1.2c-0.8-0.4-1.7-0.8-2.6-1.1c-0.6-0.2-1.2-0.5-1.8-0.7c-1.2-0.5-2.5-0.9-3.8-1.4
			c-0.7-0.2-1.3-0.4-2-0.6v264.3h83.1V103C381.1,103.1,380.9,103.2,380.6,103.3z M337.1,286.8h-24.6v13.6l19.6-5.3v10.2l-19.6,5.3
			v15.5h-9.9v-49.3h34.5V286.8z M377.1,278.7c0,4.1-0.8,8.1-2.4,11.8c-1.4,3.3-3.4,6.4-5.8,9c2.1,2,3.9,4.4,5.2,7.1
			c1.6,3.3,2.4,6.9,2.4,10.7v8.7h-9.9v-8.7c0-2.5-0.6-4.9-1.8-7c-1-1.8-2.3-3.4-3.9-4.6c-0.8,0.4-1.7,0.8-2.7,1.3
			c-2,0.9-4.1,1.5-6.3,1.9v17.1h-9.9v-49.3h9.9v22c1.2-0.3,2.4-0.8,3.5-1.4c1.8-0.9,3.5-2.1,4.9-3.4c2.1-1.9,3.8-4.3,4.9-6.9
			c1.2-2.7,1.8-5.5,1.8-8.4v-1.9h9.9V278.7z"/>
	</g>
	<path id="XMLID_430_" d="M131.4,382.7"/>
</g>
<g id="XMLID_425_">
	<g id="XMLID_32_">
		<path id="XMLID_33_" class="st1" d="M663.6,262.2c-32.9-76.1-54.1-90.8-54.1-90.8c-34.1-5.9-63.5-7.1-63.5-7.1l-30.6-32.9
			l30.6-23.5c-75.1-77.5-79.9-76.4-79.9-76.4c-4.7,14.1-19.7,15.4-19.7,15.4c-96.4,0-106.6,30.4-106.6,30.4s-10.1-30.4-106.6-30.4
			c0,0-15-1.3-19.7-15.4c0,0-4.5-1.1-79.9,76.4l30.6,23.5l-30.6,32.9c0,0-29.4,1.2-63.5,7.1c0,0-21.2,14.8-54.1,90.8
			c0,0,129.3,45.5,0,387.6c0,0,40,51.7,104.6,101.1c0,0,17.6,12.9,42.3,0c0,0-9.4,18.8,5.9,30.6c0,0,72.8,64.6,171,107
			c98.2-42.3,171-107,171-107c15.3-11.8,5.9-30.6,5.9-30.6c24.7,12.9,42.3,0,42.3,0c64.6-49.4,104.6-101.1,104.6-101.1
			C534.3,307.7,663.6,262.2,663.6,262.2z M633.6,645c-8.3,9.3-42.8,46.9-87.6,81.3c-1.5,0.5-6.7,2.2-15.2,2.2
			c-9.9,0-20.5-2.2-31.7-6.6l-8.6-3.4l1.9,9c1.6,7.9,3.6,30.3-6.9,38.3l-0.2,0.2l-0.2,0.2c-0.4,0.4-42.9,41-145.2,92.1
			c-102.3-51.1-144.8-91.7-145.2-92.1l-0.2-0.2l-0.2-0.2c-10.5-8-8.5-30.4-6.9-38.3l1.9-9l-8.6,3.4c-11.2,4.4-21.8,6.6-31.7,6.6
			c-8.4,0-13.7-1.7-15.2-2.2c-44.8-34.3-79.3-72-87.6-81.2c47.4-136.8,61.7-244.3,42.5-319.4c-11.8-45.9-33-65.4-41.8-71.8
			c19.6-44.3,33.1-58.5,36.4-61.4c3.1-0.5,6.3-1,9.5-1.5c1-0.2,2-0.3,3-0.4c4.2-0.6,8.6-1.2,12.9-1.7c0.9-0.1,1.8-0.2,2.7-0.3
			c1.3-0.2,2.6-0.3,3.9-0.4c0.9-0.1,3.7-0.4,3.7-0.4l3.6-0.3c1.2-0.1,2.3-0.2,3.3-0.3c1.1-0.1,4.1-0.3,4.1-0.3
			c1-0.1,1.9-0.2,2.8-0.2c1.8-0.1,3.4-0.2,4.8-0.3c4.4-0.3,7-0.4,7-0.4l2.1-0.1l53-57.1l-28.9-22.7c25.8-26.4,36.5-36.1,40.8-39.7
			c8.7,8.2,16.7,9.2,20,9.2c0.7,0,1.2,0,1.5-0.1c4.6-0.2,9-0.2,13.3-0.2c63.5,0,78.4,18,87.3,28.7c0.8,1,1.6,1.9,2.4,2.8l3.8,4.3
			l3.8-4.3c0.8-0.9,1.5-1.8,2.4-2.8c8.9-10.7,23.9-28.7,87.3-28.7c4.3,0,8.7,0.1,13.3,0.2c0.3,0,0.9,0.1,1.5,0.1
			c3.3,0,11.3-1,20-9.2c4.3,3.6,15.1,13.4,40.8,39.7L480,128.5l53,57.1l2.1,0.1c0.3,0,28.7,1.2,61.5,6.8c3.1,2.9,16.7,17,36.4,61.4
			c-8.8,6.4-30.1,25.9-41.8,71.8C571.9,400.8,586.1,508.2,633.6,645z"/>
	</g>
</g>
</svg>
